<?xml version="1.0" encoding="UTF-8"?>
<svg xmlns="http://www.w3.org/2000/svg" version="1.1" viewBox="0 0 24 24">
  <defs>
    <style>
      .cls-1 {
        stroke: #21204c;
      }

      .cls-1, .cls-2 {
        fill: none;
        stroke-linecap: round;
        stroke-linejoin: round;
        stroke-width: 2px;
      }

      .cls-2 {
        stroke: #3282b8;
      }
    </style>
  </defs>
  <!-- Generator: Adobe Illustrator 28.7.1, SVG Export Plug-In . SVG Version: 1.2.0 Build 142)  -->
  <g>
    <g id="_레이어_1" data-name="레이어_1">
      <g>
        <path class="cls-1" d="M9,23s.5,0-2,0c-4,0-6-2.7-6-6V3c0-1.1.9-2,2-2h18c1.1,0,2,.9,2,2v5"/>
        <line class="cls-2" x1="6" y1="7" x2="12" y2="7"/>
        <line class="cls-2" x1="16" y1="7" x2="19" y2="7"/>
        <line class="cls-2" x1="6" y1="12" x2="12" y2="12"/>
        <line class="cls-2" x1="6" y1="17" x2="11" y2="17"/>
        <g>
          <path class="cls-2" d="M18.5,16c-1.4,0-2.5-1.1-2.5-2.5s1.1-2.5,2.5-2.5h1.5c.6,0,1,.4,1,1v1.5c0,1.4-1.1,2.5-2.5,2.5Z"/>
          <path class="cls-2" d="M19,18c3.5,0,4,2,4,2.8v.2c0,1-.9,2-2.1,2h-4.8c-1.2,0-2.1-1-2.1-2s0,.5,0-.2.5-2.8,4-2.8h1Z"/>
        </g>
      </g>
    </g>
  </g>
</svg>