<?xml version="1.0" encoding="UTF-8"?>
<svg xmlns="http://www.w3.org/2000/svg" version="1.1" viewBox="0 0 24 24">
  <defs>
    <style>
      .cls-1 {
        stroke: #21204c;
      }

      .cls-1, .cls-2 {
        fill: none;
        stroke-linecap: round;
        stroke-linejoin: round;
        stroke-width: 2px;
      }

      .cls-2 {
        stroke: #3282b8;
      }
    </style>
  </defs>
  <!-- Generator: Adobe Illustrator 28.7.1, SVG Export Plug-In . SVG Version: 1.2.0 Build 142)  -->
  <g>
    <g id="_레이어_1" data-name="레이어_1">
      <g>
        <polygon class="cls-1" points="14.5 16 22.5 8 20.5 6 12.5 14 12.5 16 14.5 16"/>
        <path class="cls-1" d="M20.5,3c0-1-.9-2-2-2H7.5C4.2,1,1.5,3.7,1.5,7v12c0,3,1.3,4,3,4s3-1,3-4h15c0,3-1.3,4-3,4H4.5"/>
        <line class="cls-1" x1="20.5" y1="19" x2="20.5" y2="15"/>
        <line class="cls-2" x1="7.5" y1="7" x2="13.5" y2="7"/>
        <line class="cls-2" x1="7.5" y1="11" x2="10.5" y2="11"/>
        <line class="cls-2" x1="7.5" y1="15" x2="9.5" y2="15"/>
      </g>
    </g>
  </g>
</svg>