<?xml version="1.0" encoding="utf-8"?>
<!-- Generator: Adobe Illustrator 16.0.0, SVG Export Plug-In . SVG Version: 6.00 Build 0)  -->
<!DOCTYPE svg PUBLIC "-//W3C//DTD SVG 1.1//EN" "http://www.w3.org/Graphics/SVG/1.1/DTD/svg11.dtd">
<svg version="1.1" id="Layer_1" xmlns="http://www.w3.org/2000/svg" xmlns:xlink="http://www.w3.org/1999/xlink" x="0px" y="0px"
	 width="24px" height="24px" viewBox="0 0 24 24" enable-background="new 0 0 24 24" xml:space="preserve">
<g>
	<path fill="none" stroke="#21204C" stroke-width="2" stroke-linecap="round" stroke-miterlimit="10" d="M12,11
		c-2.762,0-5-2.239-5-5s2.238-5,5-5h3c1.104,0,2,0.896,2,2v3C17,8.761,14.762,11,12,11z"/>
	<path fill="none" stroke="#21204C" stroke-width="2" stroke-linecap="round" stroke-miterlimit="10" d="M15.706,15
		C19.214,15,21,17.686,21,19.765v0.935C21,21.738,20.052,23,18.883,23H5.117C3.948,23,3,21.738,3,20.699c0-0.554,0-0.249,0-0.935
		C3,17.686,4.786,15,8.294,15H15.706z"/>
</g>
<line fill="none" stroke="#3282B8" stroke-width="2" stroke-linecap="round" stroke-linejoin="round" stroke-miterlimit="10" x1="12" y1="5" x2="12" y2="7"/>
</svg>
