<?xml version="1.0" encoding="utf-8"?>
<!-- Generator: Adobe Illustrator 16.0.0, SVG Export Plug-In . SVG Version: 6.00 Build 0)  -->
<!DOCTYPE svg PUBLIC "-//W3C//DTD SVG 1.1//EN" "http://www.w3.org/Graphics/SVG/1.1/DTD/svg11.dtd">
<svg version="1.1" id="Layer_1" xmlns="http://www.w3.org/2000/svg" xmlns:xlink="http://www.w3.org/1999/xlink" x="0px" y="0px"
	 width="24px" height="24px" viewBox="0 0 24 24" enable-background="new 0 0 24 24" xml:space="preserve">
<polyline fill="none" stroke="#21204C" stroke-width="2" stroke-linecap="round" stroke-linejoin="round" stroke-miterlimit="10" points="
	3,23 9,23 20,12 12,4 1,15 1,21 "/>
<line fill="none" stroke="#21204C" stroke-width="2" stroke-linecap="round" stroke-linejoin="round" stroke-miterlimit="10" x1="6" y1="15" x2="14" y2="7"/>
<line fill="none" stroke="#21204C" stroke-width="2" stroke-linecap="round" stroke-linejoin="round" stroke-miterlimit="10" x1="9" y1="18" x2="17" y2="10"/>
<polyline fill="none" stroke="#21204C" stroke-width="2" stroke-linecap="round" stroke-linejoin="round" stroke-miterlimit="10" points="
	1,15 6,15 6,18 9,18 9,23 "/>
<polygon fill="none" stroke="#3282B8" stroke-width="2" stroke-linecap="round" stroke-linejoin="round" stroke-miterlimit="10" points="
	1,21 1,23 3,23 "/>
<path fill="none" stroke="#3282B8" stroke-width="2" stroke-linecap="round" stroke-linejoin="round" stroke-miterlimit="10" d="
	M12,4l1.586-1.586c0.781-0.781,2.047-0.781,2.828,0l5.172,5.172c0.781,0.781,0.781,2.047,0,2.828L20,12L12,4z"/>
</svg>
