<?xml version="1.0" encoding="utf-8"?>
<!-- Generator: Adobe Illustrator 16.0.0, SVG Export Plug-In . SVG Version: 6.00 Build 0)  -->
<!DOCTYPE svg PUBLIC "-//W3C//DTD SVG 1.1//EN" "http://www.w3.org/Graphics/SVG/1.1/DTD/svg11.dtd">
<svg version="1.1" id="Layer_1" xmlns="http://www.w3.org/2000/svg" xmlns:xlink="http://www.w3.org/1999/xlink" x="0px" y="0px"
	 width="24px" height="24px" viewBox="0 0 24 24" enable-background="new 0 0 24 24" xml:space="preserve">
<path fill="none" stroke="#3282B8" stroke-width="2" stroke-linecap="round" stroke-linejoin="round" stroke-miterlimit="10" d="
	M15,20c0,1.656-1.344,3-3,3s-3-1.344-3-3"/>
<g>
	<path fill="none" stroke="#21204C" stroke-width="2" stroke-linecap="round" stroke-miterlimit="10" d="M3.5,16C3,17,3,18,3,18
		c0,1.104,0.896,2,2,2h14c1.104,0,2-0.896,2-2c0,0,0-1-0.5-2S19,14.001,19,13c0-0.99,0-0.335,0-2c0-3.866-3.134-7-7-7s-7,3.134-7,7
		v2C5,14,4,15,3.5,16z"/>
	<path fill="none" stroke="#21204C" stroke-width="2" stroke-linecap="round" stroke-miterlimit="10" d="M10,3c0-1.104,0.896-2,2-2
		s2,0.896,2,2"/>
</g>
</svg>
