<?xml version="1.0" encoding="utf-8"?>
<!-- Generator: Adobe Illustrator 16.0.0, SVG Export Plug-In . SVG Version: 6.00 Build 0)  -->
<!DOCTYPE svg PUBLIC "-//W3C//DTD SVG 1.1//EN" "http://www.w3.org/Graphics/SVG/1.1/DTD/svg11.dtd">
<svg version="1.1" id="Layer_1" xmlns="http://www.w3.org/2000/svg" xmlns:xlink="http://www.w3.org/1999/xlink" x="0px" y="0px"
	 width="24px" height="24px" viewBox="0 0 24 24" enable-background="new 0 0 24 24" xml:space="preserve">
<line fill="none" stroke="#3282B8" stroke-width="2" stroke-linecap="round" stroke-linejoin="round" stroke-miterlimit="10" x1="19" y1="17" x2="15" y2="17"/>
<line fill="none" stroke="#3282B8" stroke-width="2" stroke-linecap="round" stroke-linejoin="round" stroke-miterlimit="10" x1="17" y1="15" x2="17" y2="19"/>
<circle fill="none" stroke="#3282B8" stroke-width="2" stroke-linecap="round" stroke-linejoin="round" stroke-miterlimit="10" cx="17" cy="17" r="6"/>
<g>
	<path fill="none" stroke="#21204C" stroke-width="2" stroke-linecap="round" stroke-miterlimit="10" d="M9,9C6.791,9,5,7.209,5,5
		s1.791-4,4-4h2.4C12.283,1,13,1.717,13,2.6V5C13,7.209,11.209,9,9,9z"/>
	<path fill="none" stroke="#21204C" stroke-width="2" stroke-linecap="round" stroke-miterlimit="10" d="M11,23H3
		c-1.169,0-2-1-2-2.301C1,20.146,1,19.686,1,19c0-3,2.492-6,6-6h2"/>
</g>
</svg>
