<?xml version="1.0" encoding="utf-8"?>
<!-- Generator: Adobe Illustrator 15.1.0, SVG Export Plug-In . SVG Version: 6.00 Build 0)  -->
<!DOCTYPE svg PUBLIC "-//W3C//DTD SVG 1.0//EN" "http://www.w3.org/TR/2001/REC-SVG-20010904/DTD/svg10.dtd">
<svg version="1.0" id="Layer_1" xmlns="http://www.w3.org/2000/svg" xmlns:xlink="http://www.w3.org/1999/xlink" x="0px" y="0px"
	 width="411px" height="61.378px" viewBox="0 0 411 61.378" enable-background="new 0 0 411 61.378" xml:space="preserve">
<path fill="#FFFFFF" d="M90.941,23.32H77.216v5.317h7.24c1.669,0,2.446,0.906,2.328,2.729l-0.612,10.675h-5.23v-8.095
	c0-0.883-0.369-1.324-1.109-1.324H62.278v-3.984h9.171V23.32h-13.25v-3.954h22.244v-7.438c0-0.919-0.372-1.37-1.114-1.37H62.883
	V6.612h21.573c0.954,0,1.601,0.194,1.951,0.601c0.345,0.407,0.472,1.12,0.377,2.125l-0.753,10.028h4.91V23.32z"/>
<path fill="#FFFFFF" d="M115.651,10.329c0,9.598-5.042,17.445-15.118,23.548l-2.759-3.421c7.787-5.144,11.677-11.226,11.677-18.271
	c0-0.681-0.334-1.018-1.002-1.018h-9.851V7.172h14.295C114.731,7.172,115.651,8.229,115.651,10.329 M131.02,21.686h-5.696v20.356
	h-5.735V6.535h5.735v11.163h5.696V21.686z"/>
<path fill="#FFFFFF" d="M155.943,21.838l-2.436,3.263c-1.219-0.605-2.403-1.582-3.552-2.921c-1.142-1.343-1.923-2.688-2.33-4.03
	c-0.381,1.419-1.161,2.866-2.342,4.326c-1.185,1.474-2.493,2.625-3.924,3.463l-2.684-3.23c2.314-1.669,3.929-3.589,4.835-5.769
	c0.832-2.003,1.25-4.722,1.25-8.165V6.949h5.445v1.825c0,3.313,0.439,5.964,1.311,7.938
	C152.385,18.686,153.864,20.393,155.943,21.838 M169.195,34.559c0,2.455-0.847,4.469-2.542,6.04
	c-1.862,1.67-4.409,2.504-7.633,2.504c-3.248,0-5.793-0.834-7.629-2.504c-1.721-1.571-2.578-3.585-2.578-6.04
	c0-2.451,0.857-4.473,2.578-6.036c1.836-1.693,4.381-2.542,7.629-2.542c3.224,0,5.771,0.849,7.633,2.542
	C168.348,30.086,169.195,32.107,169.195,34.559 M163.75,34.559c0-1.263-0.426-2.31-1.273-3.133
	c-0.844-0.824-2.001-1.234-3.456-1.234c-1.458,0-2.615,0.41-3.476,1.234c-0.86,0.823-1.288,1.87-1.288,3.133
	c0,1.237,0.428,2.271,1.288,3.095c0.861,0.828,2.018,1.235,3.476,1.235c1.455,0,2.612-0.404,3.456-1.214
	C163.323,36.86,163.75,35.824,163.75,34.559 M169.772,25.521h-5.089v-7.824h-3.116v7.292h-4.909V6.535h4.909v7.174h3.116V6.535
	h5.089V25.521z"/>
<path fill="#FFFFFF" d="M208.436,26.126h-5.772v-4.287h-5.658l-0.109,2.803h-14.188c-2.027,0-3.042-0.984-3.042-2.955V6.987h15.046
	c1.981,0,2.923,0.98,2.829,2.925l-0.037,0.493h5.159v-3.87h5.772V26.126z M191.668,20.622v-8.888c0-0.505-0.238-0.762-0.717-0.762
	h-5.514v8.699c0,0.63,0.295,0.95,0.891,0.95H191.668z M208.181,34.666c0,2.563-0.868,4.587-2.615,6.078
	c-1.787,1.576-4.275,2.358-7.451,2.358c-3.152,0-5.62-0.772-7.396-2.316c-1.781-1.54-2.669-3.581-2.669-6.12
	c0-2.528,0.888-4.564,2.669-6.105c1.776-1.548,4.244-2.316,7.396-2.316c3.176,0,5.65,0.769,7.417,2.316
	C207.296,30.102,208.181,32.138,208.181,34.666 M202.593,34.666c0-1.283-0.407-2.312-1.22-3.074
	c-0.809-0.761-1.897-1.137-3.258-1.137c-1.336,0-2.412,0.39-3.224,1.165c-0.81,0.765-1.217,1.784-1.217,3.046
	c0,1.301,0.407,2.327,1.217,3.1c0.812,0.774,1.888,1.16,3.224,1.16c1.361,0,2.449-0.386,3.258-1.16
	C202.186,36.993,202.593,35.967,202.593,34.666 M202.663,17.958v-3.675h-5.299l-0.18,3.675H202.663z"/>
<path fill="#FFFFFF" d="M250.248,27.263h-7.991v7.104h-5.479v-7.104h-2.655v7.104h-5.478v-7.104h-11.139v-3.866h32.742V27.263z
	 M246.628,41.85H224.2c-0.979,0-1.661-0.197-2.056-0.591c-0.397-0.389-0.596-1.063-0.596-2.034v-8.352h5.628v6.116
	c0,0.634,0.325,0.952,0.968,0.952h18.483V41.85z M244.05,13.177c0,2.458-0.856,4.43-2.579,5.929
	c-1.795,1.544-4.263,2.316-7.416,2.316c-3.152,0-5.605-0.758-7.361-2.288c-1.756-1.509-2.637-3.499-2.637-5.957
	c0-2.431,0.881-4.402,2.637-5.922c1.756-1.519,4.209-2.277,7.361-2.277c3.153,0,5.621,0.772,7.416,2.316
	C243.193,8.782,244.05,10.746,244.05,13.177 M238.462,13.177c0-1.238-0.412-2.253-1.219-3.039c-0.813-0.779-1.876-1.175-3.188-1.175
	c-1.311,0-2.379,0.396-3.187,1.175c-0.812,0.786-1.222,1.801-1.222,3.039c0,1.266,0.41,2.288,1.222,3.077
	c0.808,0.786,1.876,1.176,3.187,1.176c1.313,0,2.375-0.39,3.188-1.176C238.05,15.465,238.462,14.442,238.462,13.177"/>
<path fill="#FFFFFF" d="M287.656,42.042h-5.769V30.72c-0.786,0.862-2.378,1.624-4.765,2.278c-2.176,0.584-5.482,0.879-9.922,0.879
	c-1.744,0-3.166-0.08-4.265-0.229c-2.124-0.306-3.185-1.808-3.185-4.517V17.659h11.961v-5.543c0-0.713-0.299-1.063-0.894-1.063
	h-10.747V7.063h15.223c1.627,0,2.379,0.85,2.261,2.542l-0.828,12h-11.207v6.646c0,0.661,0.456,1.061,1.373,1.203
	c0.925,0.136,2.185,0.202,3.783,0.202c3.081,0,5.349-0.153,6.809-0.471c1.453-0.315,2.49-0.705,3.109-1.161
	c0.862-0.633,1.293-1.567,1.293-2.806V6.535h5.769V42.042z"/>
<path fill="#FFFFFF" d="M319.187,21.686l-2.184,3.495c-1.648-0.539-3.202-1.419-4.673-2.664c-1.469-1.234-2.561-2.59-3.283-4.062
	c-0.473,1.492-1.475,2.955-3.004,4.382c-1.53,1.436-3.272,2.542-5.23,3.328l-2.326-3.568c4.99-2.381,7.483-6.089,7.483-11.131
	v-0.455h-6.305V7.025h18.521v3.985h-6.301v0.386C311.885,16.129,314.318,19.558,319.187,21.686 M328.398,34.639
	c0,2.503-0.873,4.528-2.619,6.068c-1.814,1.596-4.298,2.395-7.447,2.395c-3.157,0-5.619-0.782-7.4-2.357
	c-1.78-1.563-2.671-3.603-2.671-6.105c0-2.531,0.87-4.555,2.622-6.078c1.812-1.624,4.292-2.434,7.449-2.434
	c3.149,0,5.633,0.81,7.447,2.434C327.525,30.084,328.398,32.107,328.398,34.639 M322.811,34.639c0-1.27-0.417-2.298-1.238-3.098
	c-0.828-0.801-1.905-1.196-3.24-1.196c-1.343,0-2.417,0.396-3.228,1.196c-0.813,0.8-1.218,1.828-1.218,3.098
	c0,1.266,0.404,2.285,1.218,3.071c0.811,0.785,1.885,1.179,3.228,1.179c1.335,0,2.412-0.394,3.24-1.179
	C322.394,36.924,322.811,35.904,322.811,34.639 M328.575,26.012h-5.73v-8.658h-6.273v-3.87h6.273V6.535h5.73V26.012z"/>
<path fill="#FFFFFF" d="M354.964,23.015l-2.184,3.112c-1.241-0.558-2.434-1.396-3.582-2.504c-1.217-1.192-2.079-2.393-2.58-3.606
	c-0.431,1.266-1.23,2.542-2.398,3.836c-1.173,1.286-2.483,2.326-3.937,3.112l-2.407-3.192c2.057-1.314,3.541-2.786,4.444-4.406
	c0.863-1.544,1.329-3.391,1.399-5.539h-5.051V9.836h5.154V5.735h5.195v4.101h5.125v3.991h-5.049
	C349.262,17.822,351.216,20.887,354.964,23.015 M368.832,31.141l-0.647,10.901h-5.153v-8.433c0-0.786-0.362-1.176-1.078-1.176
	h-17.09v-3.991h21.611C368.136,28.442,368.929,29.34,368.832,31.141 M368.692,26.77h-5.019v-8.2h-3.011V26.7h-4.837V6.535h4.837
	v8.051h3.011V6.535h5.019V26.77z"/>
<path fill="#FFFFFF" d="M399.908,24.419c-1.892,0.762-4.757,1.214-8.603,1.37v5.47h-5.702v-5.442h-7.984V22.1h12.323
	c4.158,0,7.331-0.223,9.534-0.678L399.908,24.419z M397.578,13.139c0,2.149-0.744,3.887-2.225,5.205
	c-1.579,1.416-3.802,2.129-6.662,2.129c-2.846,0-5.064-0.713-6.663-2.129c-1.51-1.318-2.257-3.056-2.257-5.205
	c0-2.148,0.747-3.888,2.257-5.205c1.599-1.392,3.817-2.083,6.663-2.083c2.86,0,5.083,0.691,6.662,2.083
	C396.834,9.251,397.578,10.99,397.578,13.139 M408.751,41.927h-22.537c-0.973,0-1.661-0.201-2.058-0.605
	c-0.394-0.406-0.591-1.095-0.591-2.055v-6.645h5.771v4.597c0,0.657,0.32,0.984,0.967,0.984h18.447V41.927z M392.133,13.139
	c0-1.016-0.313-1.826-0.938-2.431c-0.615-0.608-1.453-0.911-2.503-0.911c-1.059,0-1.886,0.303-2.509,0.911
	c-0.622,0.604-0.928,1.415-0.928,2.431s0.306,1.825,0.928,2.431c0.623,0.608,1.45,0.911,2.509,0.911c1.05,0,1.888-0.303,2.503-0.911
	C391.82,14.964,392.133,14.154,392.133,13.139 M407.28,33.647h-5.767v-2.736h-6.377v-3.564h6.377V6.535h5.767V33.647z"/>
<path fill="#F89728" d="M24.758,46.658c-0.365-0.108-0.724-0.227-1.08-0.345c-0.748-0.258-1.474-0.545-2.179-0.864
	c-2.289-1.035-4.357-2.38-6.157-3.972c-0.31-0.279-0.615-0.561-0.909-0.847c-0.294-0.289-0.578-0.588-0.859-0.891
	c-2.824,0.17-5.596-0.172-8.2-0.978c-0.426-0.129-0.887,0.037-1.122,0.405c-0.232,0.374-0.175,0.851,0.141,1.161
	c5.49,5.343,13.489,8.028,21.605,6.649C25.584,46.882,25.171,46.78,24.758,46.658"/>
<path fill="#5A4099" d="M49.252,39.931c-0.228-0.375-0.69-0.547-1.119-0.423c-3.822,1.116-7.994,1.266-12.146,0.229
	c-12.065-3.047-19.304-14.944-16.203-26.649c1.07-4.018,3.227-7.484,6.088-10.188c0.323-0.299,0.388-0.774,0.161-1.146
	c-0.226-0.375-0.689-0.549-1.119-0.425C16.992,3.645,10.468,9.802,8.241,18.133c-3.385,12.698,4.494,25.655,17.602,28.938
	c8.599,2.15,17.32-0.395,23.249-5.992c0.132-0.121,0.22-0.271,0.265-0.438C49.418,40.409,49.387,40.15,49.252,39.931"/>
<path fill="#00788A" d="M43.424,15.826c-9.606-9.24-25.125-9.186-34.664,0.122c-6.258,6.106-8.386,14.688-6.392,22.471
	c0.043,0.173,0.134,0.324,0.257,0.443c0.176,0.172,0.421,0.274,0.689,0.274c0.447-0.007,0.834-0.301,0.939-0.723
	c0.933-3.764,2.906-7.329,5.923-10.276c8.799-8.559,23.059-8.608,31.921-0.115c3.044,2.927,5.042,6.48,6.005,10.236
	c0.11,0.418,0.499,0.712,0.945,0.712c0.448-0.001,0.838-0.299,0.943-0.721C51.921,30.455,49.73,21.891,43.424,15.826"/>
<path fill="#F89728" d="M45.121,17.84C43.442,9.389,37.327,2.849,29.567,0.063c-0.172-0.065-0.353-0.078-0.523-0.045
	c-0.245,0.045-0.471,0.186-0.621,0.396c-0.248,0.357-0.215,0.838,0.085,1.161c2.681,2.865,4.611,6.457,5.423,10.534
	c1.684,8.541-1.813,16.736-8.575,21.594c0.236,0.228,0.417,0.499,0.659,0.718c0.24,0.216,0.515,0.395,0.768,0.603
	c2.024,1.667,4.244,3.135,6.902,4.053c0.448,0.154,0.898,0.289,1.349,0.413c0.392,0.111,0.789,0.204,1.185,0.291
	c0.401,0.087,0.805,0.165,1.208,0.232C43.609,34.626,46.811,26.324,45.121,17.84"/>
<path fill="#FFFFFF" d="M2.289,51.365c0-0.357,0.297-0.646,0.666-0.646H4.93v3.897l2.768-3.897h3.513l-3.12,3.894l3.26,6.421H8.097
	l-1.802-4.241L4.93,58.516v2.518H2.289V51.365z"/>
<path fill="#FFFFFF" d="M14.492,53.784c-2.089,0-3.782,1.643-3.782,3.666c0,2.022,1.693,3.664,3.782,3.664
	c2.088,0,3.782-1.642,3.782-3.664C18.274,55.427,16.58,53.784,14.492,53.784 M14.492,58.987c-0.876,0-1.586-0.688-1.586-1.537
	c0-0.85,0.71-1.539,1.586-1.539s1.587,0.689,1.587,1.539C16.079,58.299,15.368,58.987,14.492,58.987"/>
<path fill="#FFFFFF" d="M24.598,50.719v5.707l-3.22-5.707h-1.846c-0.343,0-0.62,0.27-0.62,0.601v9.715h2.484V55.37l3.202,5.664h2.49
	V50.719H24.598z"/>
<path fill="#FFFFFF" d="M29.567,50.719c-0.342,0-0.619,0.27-0.619,0.601v9.715h2.648V50.719H29.567z"/>
<path fill="#FFFFFF" d="M40.964,56.463c-0.29-0.434-0.742-0.737-1.356-0.918c0.404-0.168,0.711-0.397,0.921-0.688
	c0.315-0.437,0.473-0.959,0.473-1.569c0-0.726-0.221-1.337-0.662-1.828c-0.441-0.493-1.075-0.739-1.897-0.739h-4.328
	c-0.341,0-0.618,0.268-0.618,0.6v9.714h4.56c0.195,0,0.587-0.047,1.183-0.141c0.446-0.069,0.782-0.183,1.003-0.337
	c0.358-0.247,0.64-0.586,0.847-1.015c0.204-0.424,0.309-0.905,0.309-1.44C41.399,57.444,41.253,56.898,40.964,56.463 M36.162,52.81
	h1.167c0.399,0,0.68,0.083,0.843,0.254c0.161,0.168,0.24,0.402,0.24,0.703c0,0.324-0.079,0.571-0.24,0.741
	c-0.163,0.171-0.448,0.258-0.861,0.258h-1.149V52.81z M38.471,58.526c-0.186,0.194-0.507,0.291-0.963,0.291h-1.347v-2.089h1.342
	c0.463,0,0.786,0.091,0.972,0.276c0.183,0.187,0.277,0.432,0.277,0.735C38.752,58.07,38.658,58.33,38.471,58.526"/>
<path fill="#FFFFFF" d="M49.309,51.542c-0.477-0.547-1.193-0.823-2.149-0.823h-3.773c-0.341,0-0.618,0.269-0.618,0.601v9.714h2.652
	v-3.826h1.448c1.064,0,1.857-0.294,2.376-0.88c0.519-0.587,0.779-1.4,0.779-2.442C50.024,52.871,49.786,52.092,49.309,51.542
	 M47.143,54.797c-0.207,0.214-0.564,0.32-1.074,0.32h-0.648v-2.3h0.752c0.494,0,0.832,0.111,1.01,0.337
	c0.179,0.225,0.269,0.499,0.269,0.823C47.452,54.312,47.348,54.583,47.143,54.797"/>
<polygon fill="#FFFFFF" points="71.083,49.431 68.007,49.431 64.586,53.607 64.586,49.431 62.188,49.431 62.188,61.121 
	64.586,61.121 64.586,57.227 65.4,56.264 68.189,61.121 71.152,61.121 67.059,54.24 "/>
<path fill="#FFFFFF" d="M78.586,50.995c-0.411-0.567-0.918-1.018-1.509-1.337c-1.18-0.642-2.755-0.642-3.935-0.001
	c-0.591,0.321-1.1,0.771-1.509,1.338c-0.404,0.56-0.717,1.216-0.93,1.951c-0.21,0.727-0.317,1.511-0.317,2.33
	c0,0.82,0.107,1.604,0.317,2.329c0.213,0.737,0.526,1.394,0.93,1.95c0.41,0.568,0.918,1.018,1.509,1.34
	c0.592,0.319,1.254,0.482,1.968,0.482c0.714,0,1.376-0.163,1.967-0.483c0.59-0.319,1.098-0.77,1.509-1.338
	c0.404-0.559,0.717-1.215,0.93-1.95c0.21-0.728,0.318-1.511,0.318-2.33c0-0.818-0.108-1.603-0.318-2.331
	C79.304,52.213,78.991,51.556,78.586,50.995 M77.435,55.276c0,0.491-0.051,0.967-0.151,1.414c-0.098,0.435-0.247,0.829-0.444,1.172
	c-0.186,0.322-0.427,0.581-0.716,0.77c-0.572,0.367-1.459,0.367-2.027,0c-0.295-0.191-0.529-0.443-0.718-0.77
	c-0.197-0.343-0.346-0.737-0.444-1.171c-0.1-0.449-0.15-0.925-0.15-1.415c0-0.491,0.05-0.97,0.151-1.423
	c0.097-0.438,0.246-0.831,0.442-1.168c0.186-0.319,0.428-0.576,0.719-0.764v-0.001c0.283-0.184,0.624-0.276,1.013-0.276
	c0.393,0,0.725,0.09,1.012,0.276c0.29,0.188,0.532,0.446,0.718,0.77c0.196,0.342,0.346,0.736,0.444,1.171
	C77.384,54.309,77.435,54.785,77.435,55.276"/>
<path fill="#FFFFFF" d="M88.676,59.491c-0.08-0.473-0.119-1.035-0.119-1.668c0-0.45-0.05-0.847-0.147-1.179
	c-0.101-0.343-0.238-0.63-0.408-0.854c-0.092-0.12-0.188-0.224-0.288-0.311c0.093-0.088,0.189-0.19,0.286-0.31
	c0.196-0.24,0.366-0.563,0.504-0.961c0.135-0.395,0.205-0.866,0.205-1.404c0-1.06-0.302-1.898-0.895-2.495
	c-0.58-0.584-1.418-0.88-2.493-0.88H80.61v11.69h2.399v-4.43h1.909c0.546,0,0.908,0.146,1.074,0.435
	c0.139,0.244,0.305,0.778,0.305,1.946c0,0.387,0.017,0.711,0.048,0.975c0.037,0.304,0.119,0.586,0.246,0.839l0.118,0.235h2.824
	l-0.584-0.77C88.886,60.269,88.768,60.047,88.676,59.491 M86.31,53.076c0,0.89-0.327,1.251-1.127,1.251h-2.174v-2.428h2.148
	c0.196,0,0.372,0.019,0.523,0.057c0.126,0.031,0.238,0.088,0.341,0.173c0.085,0.068,0.15,0.17,0.201,0.307
	C86.281,52.594,86.31,52.809,86.31,53.076"/>
<polygon fill="#FFFFFF" points="92.414,56.346 96.953,56.346 96.953,53.876 92.414,53.876 92.414,51.99 97.319,51.99 97.319,49.431 
	90.015,49.431 90.015,61.122 97.407,61.122 97.407,58.563 92.414,58.563 "/>
<path fill="#FFFFFF" d="M101.875,49.431l-3.754,11.69h2.508l0.845-2.847h3.004l0.844,2.847h2.573l-3.768-11.69H101.875z
	 M103.788,55.91h-1.61l0.809-2.747L103.788,55.91z"/>
<polygon fill="#FFFFFF" points="117.87,56.161 114.38,49.431 112.07,49.431 112.07,61.121 114.392,61.121 114.392,54.385 
	117.882,61.121 120.193,61.121 120.193,49.431 117.87,49.431 "/>
<path fill="#FFFFFF" d="M124.418,49.431l-3.754,11.69h2.508l0.845-2.847h3.004l0.845,2.847h2.572l-3.768-11.69H124.418z
	 M126.332,55.91h-1.61l0.809-2.746L126.332,55.91z"/>
<polygon fill="#FFFFFF" points="128.808,51.991 131.657,51.991 131.657,61.121 134.056,61.121 134.056,51.991 136.917,51.991 
	136.917,49.431 128.808,49.431 "/>
<rect x="137.67" y="49.432" fill="#FFFFFF" width="2.399" height="11.689"/>
<path fill="#FFFFFF" d="M148.937,50.995c-0.41-0.567-0.918-1.018-1.509-1.337c-1.18-0.642-2.756-0.641-3.935-0.001
	c-0.591,0.321-1.1,0.771-1.509,1.338c-0.405,0.561-0.718,1.218-0.93,1.951c-0.21,0.727-0.317,1.511-0.317,2.33
	c0,0.82,0.107,1.604,0.317,2.329c0.212,0.736,0.525,1.393,0.93,1.95c0.41,0.568,0.918,1.018,1.509,1.34
	c0.591,0.319,1.253,0.482,1.968,0.482c0.714,0,1.376-0.163,1.967-0.483c0.59-0.319,1.098-0.77,1.509-1.338
	c0.404-0.559,0.717-1.215,0.93-1.95c0.21-0.727,0.317-1.51,0.317-2.33c0-0.819-0.107-1.604-0.317-2.331
	C149.654,52.213,149.341,51.556,148.937,50.995 M147.786,55.276c0,0.491-0.051,0.967-0.151,1.414
	c-0.098,0.435-0.247,0.829-0.444,1.172c-0.186,0.322-0.427,0.581-0.716,0.77c-0.572,0.367-1.459,0.367-2.027,0
	c-0.295-0.19-0.529-0.442-0.718-0.77c-0.197-0.342-0.346-0.735-0.444-1.171c-0.1-0.449-0.15-0.925-0.15-1.415
	c0-0.491,0.05-0.97,0.151-1.423c0.097-0.439,0.246-0.832,0.441-1.168c0.19-0.324,0.425-0.574,0.72-0.764v-0.001
	c0.283-0.184,0.624-0.276,1.013-0.276c0.393,0,0.725,0.09,1.013,0.276c0.289,0.188,0.531,0.446,0.717,0.77
	c0.196,0.342,0.346,0.736,0.444,1.171C147.734,54.309,147.786,54.785,147.786,55.276"/>
<polygon fill="#FFFFFF" points="156.942,56.159 153.452,49.431 151.142,49.431 151.142,61.121 153.465,61.121 153.465,54.385 
	156.954,61.121 159.265,61.121 159.265,49.431 156.942,49.431 "/>
<path fill="#FFFFFF" d="M163.735,49.431l-3.754,11.69h2.508l0.845-2.847h3.004l0.844,2.847h2.573l-3.768-11.69H163.735z
	 M165.648,55.91h-1.61l0.809-2.747L165.648,55.91z"/>
<polygon fill="#FFFFFF" points="172.785,49.431 170.386,49.431 170.386,61.121 177.362,61.121 177.362,58.563 172.785,58.563 "/>
<rect x="181.331" y="49.432" fill="#FFFFFF" width="2.398" height="11.689"/>
<polygon fill="#FFFFFF" points="190.736,56.161 187.246,49.431 184.936,49.431 184.936,61.121 187.258,61.121 187.258,54.385 
	190.748,61.121 193.059,61.121 193.059,49.431 190.736,49.431 "/>
<path fill="#FFFFFF" d="M200.344,54.354c-0.081-0.032-0.224-0.08-0.43-0.145l-2.189-0.691c-0.264-0.087-0.467-0.214-0.605-0.379
	c-0.116-0.14-0.17-0.317-0.17-0.561c0-0.173,0.028-0.315,0.084-0.421c0.063-0.116,0.144-0.207,0.25-0.279
	c0.125-0.084,0.261-0.143,0.405-0.178c0.159-0.038,0.327-0.057,0.501-0.057c0.485,0,0.864,0.119,1.128,0.353
	c0.245,0.216,0.377,0.578,0.404,1.106l0.022,0.438h2.376v-0.466c0-0.606-0.103-1.165-0.303-1.657
	c-0.202-0.493-0.49-0.916-0.857-1.257c-0.359-0.334-0.777-0.585-1.242-0.748c-0.856-0.3-1.89-0.329-2.798-0.023
	c-0.436,0.145-0.836,0.371-1.188,0.669c-0.365,0.308-0.655,0.695-0.863,1.152c-0.211,0.463-0.318,0.998-0.318,1.594
	c0,0.72,0.182,1.368,0.538,1.929c0.36,0.566,0.95,0.986,1.751,1.245c0.245,0.081,0.647,0.207,1.206,0.379
	c0.707,0.216,1.192,0.383,1.441,0.495c0.151,0.069,0.271,0.17,0.366,0.307c0.079,0.114,0.12,0.318,0.12,0.587
	c0,0.321-0.104,0.577-0.329,0.806c-0.232,0.236-0.624,0.355-1.163,0.355c-0.584,0-1.054-0.156-1.397-0.464
	c-0.32-0.286-0.475-0.736-0.475-1.375v-0.466h-2.405l0.007,0.473c0.009,0.704,0.123,1.338,0.338,1.886
	c0.219,0.558,0.528,1.021,0.918,1.378c0.381,0.349,0.829,0.612,1.331,0.783c0.491,0.169,1.024,0.254,1.582,0.254
	c0.495,0,0.981-0.07,1.443-0.211c0.474-0.145,0.904-0.372,1.279-0.674c0.389-0.313,0.701-0.724,0.927-1.219
	c0.227-0.497,0.343-1.082,0.343-1.737c0-0.682-0.176-1.328-0.523-1.923C201.495,55.008,200.984,54.582,200.344,54.354"/>
<polygon fill="#FFFFFF" points="202.717,51.991 205.567,51.991 205.567,61.121 207.965,61.121 207.965,51.991 210.826,51.991 
	210.826,49.431 202.717,49.431 "/>
<rect x="211.702" y="49.432" fill="#FFFFFF" width="2.397" height="11.689"/>
<polygon fill="#FFFFFF" points="214.879,51.991 217.729,51.991 217.729,61.121 220.125,61.121 220.125,51.991 222.987,51.991 
	222.987,49.431 214.879,49.431 "/>
<path fill="#FFFFFF" d="M229.698,56.166c0,0.446-0.019,0.832-0.054,1.145c-0.032,0.277-0.104,0.538-0.215,0.778
	c-0.097,0.209-0.252,0.377-0.476,0.515c-0.464,0.286-1.464,0.286-1.928,0c-0.224-0.138-0.38-0.306-0.476-0.515
	c-0.111-0.242-0.184-0.504-0.216-0.778c-0.034-0.307-0.053-0.691-0.053-1.145v-6.735h-2.397v7.352c0,1.474,0.375,2.622,1.119,3.414
	c0.735,0.783,1.74,1.182,2.985,1.182c1.247,0,2.252-0.398,2.987-1.182c0.744-0.792,1.119-1.94,1.119-3.414v-7.352h-2.397V56.166z"/>
<polygon fill="#FFFFFF" points="232.883,51.991 235.732,51.991 235.732,61.121 238.131,61.121 238.131,51.991 240.992,51.991 
	240.992,49.431 232.883,49.431 "/>
<polygon fill="#FFFFFF" points="244.145,56.346 248.684,56.346 248.684,53.876 244.145,53.876 244.145,51.99 249.05,51.99 
	249.05,49.431 241.746,49.431 241.746,61.122 249.137,61.122 249.137,58.563 244.145,58.563 "/>
<polygon fill="#FFFFFF" points="254.313,61.121 256.709,61.121 256.709,56.345 260.783,56.345 260.783,53.876 256.709,53.876 
	256.709,51.991 261.352,51.991 261.352,49.432 254.313,49.432 "/>
<path fill="#FFFFFF" d="M269.795,50.995c-0.41-0.567-0.918-1.018-1.511-1.338c-1.178-0.641-2.752-0.641-3.933,0
	c-0.592,0.319-1.098,0.77-1.51,1.338c-0.405,0.561-0.719,1.217-0.932,1.951c-0.209,0.731-0.316,1.516-0.316,2.33
	c0,0.815,0.107,1.599,0.317,2.33c0.214,0.735,0.526,1.393,0.931,1.95c0.412,0.569,0.918,1.019,1.51,1.339
	c0.591,0.319,1.253,0.482,1.967,0.482c0.715,0,1.376-0.163,1.967-0.483c0.592-0.32,1.098-0.77,1.51-1.338
	c0.403-0.557,0.717-1.213,0.93-1.951c0.21-0.726,0.316-1.51,0.316-2.329c0-0.818-0.106-1.603-0.316-2.331
	C270.512,52.21,270.199,51.555,269.795,50.995 M268.644,55.276c0,0.492-0.052,0.968-0.152,1.414
	c-0.097,0.437-0.245,0.83-0.442,1.171c-0.188,0.327-0.424,0.579-0.717,0.771c-0.574,0.37-1.455,0.37-2.027,0
	c-0.293-0.191-0.528-0.443-0.717-0.771c-0.197-0.342-0.347-0.734-0.442-1.171c-0.103-0.449-0.153-0.925-0.153-1.414
	c0-0.49,0.053-0.969,0.153-1.424c0.096-0.438,0.245-0.831,0.44-1.167c0.188-0.319,0.43-0.576,0.719-0.764l0.002-0.001
	c0.281-0.184,0.623-0.276,1.012-0.276c0.393,0,0.725,0.09,1.014,0.277c0.289,0.187,0.53,0.445,0.717,0.769
	c0.195,0.342,0.346,0.736,0.442,1.171C268.592,54.308,268.644,54.783,268.644,55.276"/>
<path fill="#FFFFFF" d="M280.007,59.492c-0.08-0.477-0.12-1.038-0.12-1.669c0-0.449-0.049-0.846-0.146-1.179
	c-0.101-0.344-0.238-0.631-0.408-0.853c-0.092-0.12-0.188-0.224-0.289-0.312c0.095-0.089,0.19-0.191,0.285-0.309
	c0.2-0.243,0.364-0.557,0.505-0.961c0.136-0.393,0.205-0.866,0.205-1.406c0-1.059-0.301-1.897-0.895-2.495
	c-0.58-0.583-1.418-0.879-2.492-0.879h-4.711v11.69h2.397V56.69h1.91c0.546,0,0.908,0.147,1.073,0.437
	c0.14,0.244,0.307,0.778,0.307,1.946c0,0.386,0.016,0.711,0.047,0.974c0.036,0.303,0.119,0.585,0.246,0.839l0.118,0.235h2.821
	l-0.582-0.77C280.217,60.269,280.098,60.047,280.007,59.492 M274.339,51.899h2.149c0.195,0,0.371,0.02,0.522,0.057
	c0.126,0.032,0.237,0.088,0.341,0.173c0.084,0.069,0.15,0.169,0.201,0.308c0.059,0.156,0.088,0.372,0.088,0.641
	c0,0.889-0.326,1.251-1.127,1.251h-2.175V51.899z"/>
<path fill="#FFFFFF" d="M292.845,54.775c0.168-0.169,0.313-0.359,0.436-0.572c0.264-0.468,0.397-1.019,0.397-1.639
	c0-1.015-0.288-1.805-0.857-2.346c-0.549-0.523-1.298-0.788-2.226-0.788h-4.786v11.69h4.546c1.209,0,2.139-0.318,2.763-0.945
	c0.641-0.644,0.965-1.49,0.965-2.52c0-0.823-0.17-1.526-0.506-2.092C293.381,55.237,293.137,54.974,292.845,54.775 M291.686,57.416
	c0,0.416-0.091,0.719-0.275,0.926c-0.188,0.209-0.459,0.31-0.828,0.31h-2.376v-2.427h2.376c0.371,0,0.642,0.099,0.829,0.305
	C291.595,56.731,291.686,57.021,291.686,57.416 M288.206,53.937v-2.037h2.161c0.337,0,0.58,0.073,0.72,0.218
	c0.127,0.131,0.194,0.405,0.194,0.794c0,0.341-0.079,0.589-0.241,0.759c-0.171,0.18-0.391,0.267-0.673,0.267H288.206z"/>
<rect x="295.091" y="49.432" fill="#FFFFFF" width="2.398" height="11.689"/>
<path fill="#FFFFFF" d="M306.479,50.995c-0.411-0.567-0.919-1.018-1.512-1.338c-1.178-0.641-2.753-0.641-3.933,0
	c-0.592,0.32-1.1,0.771-1.51,1.338c-0.405,0.561-0.719,1.217-0.932,1.951c-0.209,0.731-0.315,1.516-0.315,2.33
	c0,0.815,0.106,1.599,0.316,2.33c0.213,0.735,0.526,1.393,0.931,1.949c0.41,0.568,0.918,1.019,1.51,1.34
	c0.591,0.319,1.253,0.482,1.967,0.482c0.715,0,1.376-0.163,1.967-0.483c0.592-0.32,1.099-0.77,1.511-1.338
	c0.402-0.557,0.716-1.213,0.929-1.951c0.21-0.726,0.316-1.51,0.316-2.329c0-0.818-0.106-1.603-0.316-2.331
	C307.195,52.21,306.883,51.555,306.479,50.995 M305.327,55.276c0,0.492-0.051,0.968-0.152,1.414
	c-0.097,0.437-0.246,0.83-0.441,1.171c-0.189,0.327-0.425,0.579-0.719,0.771c-0.572,0.37-1.454,0.37-2.025,0
	c-0.294-0.191-0.529-0.443-0.718-0.771c-0.197-0.342-0.347-0.734-0.442-1.171c-0.102-0.449-0.153-0.925-0.153-1.414
	c0-0.49,0.053-0.969,0.153-1.424c0.096-0.438,0.245-0.831,0.441-1.167c0.187-0.319,0.429-0.576,0.719-0.764l0.001-0.001
	c0.282-0.184,0.623-0.276,1.012-0.276c0.394,0,0.726,0.09,1.013,0.277c0.289,0.187,0.531,0.445,0.718,0.769
	c0.195,0.342,0.346,0.736,0.442,1.171C305.276,54.308,305.327,54.783,305.327,55.276"/>
<polygon fill="#FFFFFF" points="311.022,56.346 315.562,56.346 315.562,53.876 311.022,53.876 311.022,51.99 315.929,51.99 
	315.929,49.431 308.625,49.431 308.625,61.122 316.016,61.122 316.016,58.563 311.022,58.563 "/>
<polygon fill="#FFFFFF" points="316.851,51.991 319.7,51.991 319.7,61.121 322.099,61.121 322.099,51.991 324.961,51.991 
	324.961,49.431 316.851,49.431 "/>
<polygon fill="#FFFFFF" points="331.473,53.71 328.196,53.71 328.196,49.431 325.798,49.431 325.798,61.121 328.196,61.121 
	328.196,56.271 331.473,56.271 331.473,61.121 333.87,61.121 333.87,49.431 331.473,49.431 "/>
<rect x="334.979" y="49.432" fill="#FFFFFF" width="2.398" height="11.689"/>
<path fill="#FFFFFF" d="M345.022,56.514c-0.06,0.733-0.255,1.313-0.597,1.769c-0.316,0.422-0.737,0.626-1.288,0.626
	c-0.393,0-0.726-0.091-1.013-0.276c-0.291-0.189-0.533-0.448-0.719-0.77c-0.195-0.343-0.346-0.735-0.442-1.172
	c-0.102-0.446-0.152-0.922-0.152-1.413c0-0.494,0.051-0.973,0.152-1.425c0.097-0.438,0.245-0.832,0.441-1.168
	c0.186-0.317,0.427-0.573,0.719-0.764c0.288-0.187,0.62-0.276,1.014-0.276c0.52,0,0.913,0.146,1.202,0.449
	c0.304,0.315,0.519,0.764,0.643,1.334l0.076,0.355h2.345l-0.036-0.504c-0.047-0.635-0.189-1.212-0.424-1.716
	c-0.235-0.507-0.556-0.945-0.947-1.302c-0.761-0.71-1.72-1.076-2.858-1.087c-0.716,0-1.378,0.163-1.968,0.483
	c-0.591,0.319-1.1,0.77-1.509,1.337c-0.404,0.558-0.718,1.214-0.931,1.951c-0.211,0.727-0.316,1.512-0.316,2.331
	c0,0.818,0.105,1.602,0.316,2.328c0.213,0.739,0.527,1.396,0.931,1.95c0.409,0.568,0.918,1.02,1.508,1.339
	c0.592,0.32,1.254,0.482,1.969,0.482c0.587,0,1.141-0.118,1.648-0.35c0.508-0.234,0.954-0.571,1.328-1.002
	c0.371-0.426,0.671-0.938,0.889-1.525c0.215-0.579,0.342-1.223,0.379-1.915l0.023-0.494h-2.348L345.022,56.514z"/>
<path fill="#FFFFFF" d="M354.357,54.354c-0.08-0.032-0.223-0.08-0.429-0.145l-2.19-0.691c-0.263-0.086-0.466-0.214-0.603-0.378
	c-0.117-0.142-0.173-0.319-0.173-0.562c0-0.173,0.029-0.314,0.084-0.42c0.064-0.117,0.146-0.208,0.252-0.28
	c0.124-0.084,0.261-0.143,0.404-0.178c0.159-0.038,0.328-0.057,0.501-0.057c0.485,0,0.864,0.119,1.128,0.353
	c0.245,0.216,0.377,0.578,0.403,1.106l0.022,0.438h2.375v-0.466c0-0.607-0.102-1.166-0.303-1.657
	c-0.201-0.495-0.49-0.918-0.856-1.257c-0.359-0.334-0.776-0.585-1.241-0.748c-0.855-0.299-1.892-0.328-2.797-0.024
	c-0.437,0.146-0.836,0.37-1.188,0.669c-0.364,0.306-0.653,0.694-0.864,1.153c-0.211,0.462-0.316,0.998-0.316,1.594
	c0,0.721,0.181,1.369,0.538,1.929c0.359,0.566,0.95,0.986,1.75,1.245c0.244,0.081,0.646,0.207,1.205,0.379
	c0.704,0.216,1.19,0.382,1.44,0.495c0.152,0.069,0.272,0.17,0.366,0.307c0.079,0.114,0.122,0.318,0.122,0.587
	c0,0.321-0.106,0.578-0.33,0.806c-0.232,0.236-0.624,0.355-1.163,0.355c-0.592,0-1.049-0.152-1.397-0.464
	c-0.318-0.286-0.475-0.736-0.475-1.375v-0.466h-2.403l0.006,0.473c0.01,0.704,0.124,1.339,0.338,1.885
	c0.219,0.558,0.527,1.021,0.919,1.378c0.38,0.349,0.827,0.612,1.33,0.784c0.492,0.169,1.023,0.254,1.582,0.254
	c0.496,0,0.98-0.07,1.441-0.211c0.475-0.145,0.906-0.372,1.28-0.674c0.39-0.316,0.702-0.726,0.926-1.219
	c0.229-0.495,0.344-1.08,0.344-1.737c0-0.682-0.176-1.328-0.522-1.922C355.51,55.009,354.998,54.583,354.357,54.354"/>
<path fill="#FFFFFF" d="M368.494,50.729c-0.266-0.394-0.637-0.712-1.104-0.947c-0.46-0.232-1.027-0.351-1.688-0.351h-4.383v11.69
	h2.398v-4.128h1.984c0.66,0,1.229-0.117,1.692-0.35c0.473-0.235,0.848-0.556,1.114-0.949c0.254-0.382,0.433-0.791,0.532-1.223
	c0.091-0.406,0.136-0.824,0.136-1.244c0-0.432-0.049-0.859-0.146-1.273C368.93,51.521,368.75,51.109,368.494,50.729 M363.718,51.899
	h1.923c0.375,0,0.658,0.096,0.865,0.292c0.182,0.173,0.274,0.516,0.274,1.021c0,0.253-0.035,0.467-0.103,0.638
	c-0.065,0.162-0.148,0.288-0.254,0.384c-0.113,0.104-0.234,0.175-0.367,0.219c-0.147,0.049-0.296,0.071-0.442,0.071h-1.896V51.899z"
	/>
<path fill="#FFFFFF" d="M377.613,50.995c-0.41-0.567-0.918-1.018-1.511-1.338c-1.178-0.641-2.755-0.641-3.933,0
	c-0.592,0.32-1.1,0.771-1.51,1.338c-0.404,0.558-0.717,1.214-0.931,1.951c-0.21,0.728-0.316,1.512-0.316,2.33
	c0,0.819,0.106,1.604,0.316,2.33c0.214,0.738,0.527,1.395,0.931,1.949c0.41,0.568,0.918,1.019,1.509,1.339s1.253,0.483,1.968,0.483
	s1.376-0.163,1.967-0.483c0.592-0.32,1.1-0.771,1.51-1.337c0.402-0.557,0.717-1.213,0.93-1.952c0.21-0.726,0.316-1.51,0.316-2.329
	c0-0.818-0.106-1.603-0.316-2.331C378.33,52.209,378.017,51.553,377.613,50.995 M376.462,55.276c0,0.492-0.051,0.968-0.152,1.414
	c-0.097,0.437-0.247,0.83-0.443,1.172c-0.185,0.321-0.427,0.58-0.718,0.77c-0.57,0.371-1.453,0.37-2.024,0
	c-0.291-0.189-0.533-0.448-0.718-0.771c-0.196-0.341-0.347-0.734-0.443-1.171c-0.101-0.446-0.152-0.922-0.152-1.414
	c0-0.494,0.052-0.972,0.152-1.423c0.097-0.439,0.246-0.832,0.442-1.169c0.185-0.317,0.427-0.574,0.718-0.763
	c0.572-0.372,1.455-0.372,2.025,0c0.291,0.188,0.533,0.446,0.719,0.769c0.195,0.341,0.346,0.735,0.442,1.171
	C376.411,54.308,376.462,54.783,376.462,55.276"/>
<polygon fill="#FFFFFF" points="382.157,49.431 379.76,49.431 379.76,61.121 386.734,61.121 386.734,58.563 382.157,58.563 "/>
<rect x="387.525" y="49.432" fill="#FFFFFF" width="2.397" height="11.689"/>
<path fill="#FFFFFF" d="M397.322,56.514c-0.061,0.732-0.256,1.312-0.597,1.769c-0.315,0.421-0.737,0.626-1.288,0.626
	c-0.393,0-0.726-0.09-1.013-0.277c-0.292-0.188-0.533-0.447-0.718-0.77c-0.196-0.341-0.347-0.735-0.443-1.171
	c-0.101-0.446-0.152-0.921-0.152-1.414s0.052-0.972,0.152-1.423c0.097-0.439,0.245-0.832,0.442-1.169
	c0.185-0.317,0.426-0.574,0.718-0.764c0.288-0.187,0.62-0.276,1.014-0.276c0.521,0,0.913,0.146,1.203,0.45
	c0.303,0.314,0.518,0.764,0.642,1.333l0.076,0.355h2.346l-0.037-0.505c-0.046-0.633-0.189-1.21-0.423-1.714
	c-0.236-0.507-0.557-0.947-0.948-1.303c-0.761-0.711-1.72-1.075-2.858-1.088c-0.716,0-1.378,0.163-1.968,0.484
	c-0.591,0.32-1.099,0.771-1.509,1.337c-0.404,0.559-0.717,1.213-0.931,1.951c-0.211,0.727-0.316,1.511-0.316,2.33
	s0.105,1.603,0.316,2.33c0.214,0.739,0.527,1.395,0.931,1.95c0.41,0.567,0.918,1.018,1.508,1.338
	c0.592,0.319,1.254,0.482,1.969,0.482c0.588,0,1.144-0.118,1.648-0.351c0.508-0.233,0.955-0.57,1.329-1.001
	c0.37-0.425,0.67-0.938,0.888-1.525c0.215-0.579,0.342-1.224,0.379-1.916l0.024-0.493h-2.348L397.322,56.514z"/>
<polygon fill="#FFFFFF" points="406.027,49.431 403.921,53.76 401.782,49.431 398.996,49.431 402.683,56.563 402.683,61.121 
	405.079,61.121 405.079,56.563 408.751,49.431 "/>
</svg>
