<?xml version="1.0" encoding="UTF-8"?>
<svg xmlns="http://www.w3.org/2000/svg" version="1.1" viewBox="0 0 24 24">
  <defs>
    <style>
      .cls-1 {
        fill: none;
        stroke: #fff;
        stroke-linecap: round;
        stroke-linejoin: round;
        stroke-width: 2px;
      }
    </style>
  </defs>
  <!-- Generator: Adobe Illustrator 28.7.1, SVG Export Plug-In . SVG Version: 1.2.0 Build 142)  -->
  <g>
    <g id="_레이어_1" data-name="레이어_1">
      <g>
        <line class="cls-1" x1="1" y1="14" x2="1" y2="23"/>
        <line class="cls-1" x1="23" y1="14" x2="23" y2="23"/>
        <line class="cls-1" x1="1" y1="20" x2="23" y2="20"/>
        <circle class="cls-1" cx="5" cy="12" r="2"/>
        <path class="cls-1" d="M21,12c0,1.1-.9,2-2,2h-8c-1.1,0-2-.9-2-2h0c0-1.1.9-2,2-2h8c1.1,0,2,.9,2,2h0Z"/>
        <line class="cls-1" x1="1" y1="17" x2="23" y2="17"/>
        <path class="cls-1" d="M14,4.5c0,.8-.7,1.5-1.5,1.5h0c-.8,0-1.5-.7-1.5-1.5v-2c0-.8.7-1.5,1.5-1.5h0c.8,0,1.5.7,1.5,1.5v2Z"/>
        <line class="cls-1" x1="17" y1="1" x2="17" y2="9"/>
      </g>
    </g>
  </g>
</svg>