<?xml version="1.0" encoding="UTF-8"?>
<svg xmlns="http://www.w3.org/2000/svg" version="1.1" viewBox="0 0 24 24">
  <defs>
    <style>
      .cls-1 {
        stroke-linecap: round;
      }

      .cls-1, .cls-2 {
        fill: none;
        stroke: #fff;
        stroke-linejoin: round;
      }

      .cls-2 {
        stroke-linecap: square;
      }
    </style>
  </defs>
  <!-- Generator: Adobe Illustrator 28.7.1, SVG Export Plug-In . SVG Version: 1.2.0 Build 142)  -->
  <g>
    <g id="_레이어_1" data-name="레이어_1">
      <g>
        <path class="cls-1" d="M21.7,10c-.6.6-1.5.6-2.1,0l-6.4-6.4c-.6-.6-.6-1.5,0-2.1h0c.6-.6,1.5-.6,2.1,0l6.4,6.4c.6.6.6,1.5,0,2.1h0Z"/>
        <path class="cls-1" d="M13.2,18.5c-.6.6-1.5.6-2.1,0l-6.4-6.4c-.6-.6-.6-1.5,0-2.1h0c.6-.6,1.5-.6,2.1,0l6.4,6.4c.6.6.6,1.5,0,2.1h0Z"/>
        <line class="cls-1" x1="7.2" y1="10.3" x2="13.6" y2="4"/>
        <line class="cls-1" x1="12.8" y1="16" x2="19.2" y2="9.6"/>
        <path class="cls-2" d="M17.5,12.5l4.9,4.5c.6.6.6,1.5,0,2.1h0c-.6.6-1.5.6-2.1,0l-4.6-4.6"/>
        <line class="cls-1" x1="6.2" y1="22.9" x2="16.2" y2="22.9"/>
        <line class="cls-1" x1="1.2" y1="22.9" x2="3.2" y2="22.9"/>
      </g>
    </g>
  </g>
</svg>