<?xml version="1.0" encoding="UTF-8"?>
<svg xmlns="http://www.w3.org/2000/svg" version="1.1" viewBox="0 0 24 24">
  <defs>
    <style>
      .cls-1 {
        stroke: #000;
      }

      .cls-1, .cls-2 {
        fill: none;
        stroke-linecap: round;
        stroke-linejoin: round;
        stroke-width: 2px;
      }

      .cls-2 {
        stroke: #ff8300;
      }
    </style>
  </defs>
  <!-- Generator: Adobe Illustrator 28.7.1, SVG Export Plug-In . SVG Version: 1.2.0 Build 142)  -->
  <g>
    <g id="_레이어_1" data-name="레이어_1">
      <path class="cls-2" d="M9,10v8.1"/>
      <path class="cls-2" d="M15,10v8.1"/>
      <path class="cls-2" d="M4.1,10v8.1"/>
      <path class="cls-2" d="M19.9,10v8.1"/>
      <path class="cls-1" d="M3.5,18.6h17c.8,0,1.5.7,1.5,1.5v1.5c0,.8-.7,1.5-1.5,1.5H3.5c-.8-.1-1.5-.8-1.5-1.6v-1.5c0-.8.7-1.4,1.5-1.4Z"/>
      <path class="cls-1" d="M10.6,1.3c.9-.3,1.8-.3,2.7,0l7.7,3.4c.6.3,1,.8,1,1.4v2.4c0,.8-.7,1.5-1.5,1.5H3.5c-.8,0-1.5-.7-1.5-1.5v-2.4c0-.6.4-1.1.9-1.4l7.7-3.4Z"/>
    </g>
  </g>
</svg>