<?xml version="1.0" encoding="UTF-8"?>
<svg xmlns="http://www.w3.org/2000/svg" version="1.1" viewBox="0 0 24 24">
  <defs>
    <style>
      .cls-1 {
        fill: #fff;
      }

      .cls-2 {
        fill: none;
        stroke: #fff;
        stroke-linecap: round;
        stroke-linejoin: round;
        stroke-width: 2px;
      }
    </style>
  </defs>
  <!-- Generator: Adobe Illustrator 28.7.1, SVG Export Plug-In . SVG Version: 1.2.0 Build 142)  -->
  <g>
    <g id="_레이어_1" data-name="레이어_1">
      <path class="cls-2" d="M16,5.7c-1.2-2.8-4-4.7-7.2-4.7S1,4.5,1,8.8s.8,3.8,2,5.2l-1.4,3.3,3.7-1.5"/>
      <path class="cls-2" d="M6.3,14c0,4.6,3.7,8.3,8.3,8.3s2.6-.3,3.7-.9l4,1.6-1.5-3.5c1.3-1.5,2.1-3.4,2.1-5.5,0-4.6-3.7-8.3-8.3-8.3s-8.3,3.7-8.3,8.3Z"/>
      <circle class="cls-1" cx="17.8" cy="14" r="1"/>
      <circle class="cls-1" cx="14.8" cy="14" r="1"/>
      <circle class="cls-1" cx="11.8" cy="14" r="1"/>
    </g>
  </g>
</svg>