<?xml version="1.0" encoding="UTF-8"?>
<svg xmlns="http://www.w3.org/2000/svg" version="1.1" viewBox="0 0 24 24">
  <defs>
    <style>
      .cls-1 {
        stroke: #21204c;
      }

      .cls-1, .cls-2, .cls-3 {
        stroke-linejoin: round;
      }

      .cls-1, .cls-2, .cls-3, .cls-4 {
        fill: none;
        stroke-linecap: round;
        stroke-width: 2px;
      }

      .cls-2 {
        stroke: #3282b8;
      }

      .cls-3, .cls-4 {
        stroke: #fff;
      }

      .cls-4 {
        stroke-miterlimit: 10;
      }
    </style>
  </defs>
  <!-- Generator: Adobe Illustrator 28.7.1, SVG Export Plug-In . SVG Version: 1.2.0 Build 142)  -->
  <g>
    <g id="_레이어_1" data-name="레이어_1">
      <circle class="cls-1" cx="501.3" cy="1035.8" r="5"/>
      <circle class="cls-1" cx="501.3" cy="1035.8" r="5"/>
      <path class="cls-1" d="M502.8,1043.3v-10c0-3-1-4-3-5"/>
      <path class="cls-1" d="M499.8,1043.3v-10c0-3,1-4,3-5"/>
      <path class="cls-2" d="M500.3,1034.8c1.1,0,2,.9,2,2"/>
      <path class="cls-2" d="M500.3,1034.8c1.1,0,2,.9,2,2"/>
      <g>
        <polyline class="cls-3" points="14 10 12 12 9.7 10.1"/>
        <line class="cls-3" x1="12" y1="12" x2="12" y2="17"/>
        <path class="cls-4" d="M12,1c-4.4,0-8,3.6-8,8s1.3,5,3.3,6.4c.9.7,1.7,1.8,1.7,2.8v1.8c0,1.7,1.3,3,3,3s3-1.3,3-3v-1.8c0-1,.9-2.1,1.7-2.8,2-1.5,3.3-3.8,3.3-6.4,0-4.4-3.6-8-8-8Z"/>
        <line class="cls-4" x1="9" y1="17" x2="15" y2="17"/>
        <line class="cls-4" x1="9" y1="20" x2="15" y2="20"/>
      </g>
    </g>
  </g>
</svg>