<?xml version="1.0" encoding="UTF-8"?>
<svg xmlns="http://www.w3.org/2000/svg" version="1.1" viewBox="0 0 24 48">
  <defs>
    <style>
      .cls-1 {
        stroke: #fff;
      }

      .cls-1, .cls-2, .cls-3 {
        fill: none;
        stroke-linecap: round;
        stroke-linejoin: round;
        stroke-width: 2px;
      }

      .cls-2 {
        stroke: #006072;
      }

      .cls-3 {
        stroke: #ff8300;
      }
    </style>
  </defs>
  <!-- Generator: Adobe Illustrator 28.7.1, SVG Export Plug-In . SVG Version: 1.2.0 Build 142)  -->
  <g>
    <g id="_레이어_1" data-name="레이어_1">
      <path class="cls-2" d="M1,43.9s3.4,2.2,4,2.5,2.9.5,4,.5h8c1.1,0,2-.9,2-2s-.9-2-2-2h-6,2"/>
      <path class="cls-2" d="M9,40.9c1,1,2,2,3.7.7.8-.8.8-2,0-2.8l-2.3-2.4c-.8-.8-2.3-1.4-3.4-1.4H1"/>
      <line class="cls-2" x1="8" y1="39.9" x2="11" y2="42.9"/>
      <path class="cls-3" d="M23,31s.4-3-2.4-4.9c-3.7-2.4-8.2.3-9.8,1.8,0,0,1.7.7,2.4,3.1.5,1.5,2.4,4.9,6.1,3.7"/>
      <path class="cls-3" d="M19,31.9s3,0,3,4"/>
      <g>
        <path class="cls-1" d="M1,19.9s3.4,2.2,4,2.5,2.9.5,4,.5h8c1.1,0,2-.9,2-2s-.9-2-2-2h-6,2"/>
        <path class="cls-1" d="M9,16.9c1,1,2,2,3.7.7.8-.8.8-2,0-2.8l-2.3-2.4c-.8-.8-2.3-1.4-3.4-1.4H1"/>
        <line class="cls-1" x1="8" y1="15.9" x2="11" y2="18.9"/>
        <path class="cls-1" d="M23,7s.4-3-2.4-4.9c-3.7-2.4-8.2.3-9.8,1.8,0,0,1.7.7,2.4,3.1.5,1.5,2.4,4.9,6.1,3.7"/>
        <path class="cls-1" d="M19,7.9s3,0,3,4"/>
      </g>
    </g>
  </g>
</svg>