<?xml version="1.0" encoding="UTF-8"?>
<svg xmlns="http://www.w3.org/2000/svg" version="1.1" viewBox="0 0 24 24">
  <defs>
    <style>
      .cls-1 {
        fill: none;
        stroke: #fff;
        stroke-linecap: round;
        stroke-linejoin: round;
        stroke-width: 2px;
      }
    </style>
  </defs>
  <!-- Generator: Adobe Illustrator 28.7.1, SVG Export Plug-In . SVG Version: 1.2.0 Build 142)  -->
  <g>
    <g id="_레이어_1" data-name="레이어_1">
      <g>
        <path class="cls-1" d="M9,23s.5,0-2,0c-4,0-6-2.7-6-6V3c0-1.1.9-2,2-2h18c1.1,0,2,.9,2,2v6"/>
        <line class="cls-1" x1="6" y1="7" x2="16" y2="7"/>
        <line class="cls-1" x1="6" y1="12" x2="9" y2="12"/>
        <line class="cls-1" x1="6" y1="17" x2="7" y2="17"/>
        <path class="cls-1" d="M23,17c0,3.3-2.7,6-6,6s-6-2.7-6-6,2.7-6,6-6c0,0,2,0,3,1"/>
        <polyline class="cls-1" points="15 16 17 18 22 14"/>
      </g>
    </g>
  </g>
</svg>