<?xml version="1.0" encoding="UTF-8"?>
<svg xmlns="http://www.w3.org/2000/svg" version="1.1" viewBox="0 0 24 24">
  <defs>
    <style>
      .cls-1 {
        stroke: #21204c;
        stroke-linecap: round;
      }

      .cls-1, .cls-2 {
        fill: none;
        stroke-linejoin: round;
        stroke-width: 2px;
      }

      .cls-2 {
        stroke: #3282b8;
      }
    </style>
  </defs>
  <!-- Generator: Adobe Illustrator 28.7.1, SVG Export Plug-In . SVG Version: 1.2.0 Build 142)  -->
  <g>
    <g id="_레이어_1" data-name="레이어_1">
      <g>
        <path class="cls-1" d="M7.2,2.8c-.5-1-1.7-1.4-2.7-.9l-1.9,1c-1,.5-1.4,1.7-1.4,2.8,0,2.9.8,6.4,5.8,11.5,4.9,4.9,8.4,5.6,10.9,5.3,1.1-.1,2.4-.4,2.9-1.3l.9-1.9c.5-1,.1-2.2-.9-2.7l-4.1-2.2-1.2,3.1s-2.7-.2-5.9-3.4c-3.2-3.2-3.3-5.7-3.3-5.7l3.3-1.1-2.6-4.5Z"/>
        <path class="cls-2" d="M11,3.6c2.2-2.2,6.5-3.2,9.7,0,3.2,3.2,2.2,7.5,0,9.7"/>
        <path class="cls-2" d="M13.8,6.4c1.1-1.1,2.9-1.1,4.1,0,1.1,1.1,1.1,2.9,0,4.1"/>
      </g>
    </g>
  </g>
</svg>