<?xml version="1.0" encoding="UTF-8"?>
<svg xmlns="http://www.w3.org/2000/svg" version="1.1" viewBox="0 0 24 24">
  <defs>
    <style>
      .cls-1 {
        fill: none;
        stroke: #000;
        stroke-linecap: round;
        stroke-linejoin: round;
        stroke-width: 2px;
      }

      .cls-2 {
        fill: #ff8300;
      }
    </style>
  </defs>
  <!-- Generator: Adobe Illustrator 28.7.1, SVG Export Plug-In . SVG Version: 1.2.0 Build 142)  -->
  <g>
    <g id="_레이어_1" data-name="레이어_1">
      <path class="cls-1" d="M7,1v9l-4.3,9.4c-.9,2,.1,3.6,2.3,3.6h14c2.2,0,3.2-1.6,2.3-3.6l-4.3-9.4V1"/>
      <line class="cls-1" x1="5" y1="1" x2="19" y2="1"/>
      <path class="cls-2" d="M11,14c2,0,2,2,5,2l1.1,2.2c.5,1,0,1.8-1.1,1.8h-8c-1.1,0-1.6-.8-1.1-1.8l1.1-2.2s1-2,3-2Z"/>
      <circle class="cls-2" cx="13" cy="11" r="2"/>
      <circle class="cls-2" cx="11" cy="6" r="1"/>
    </g>
  </g>
</svg>