<?xml version="1.0" encoding="UTF-8"?>
<svg xmlns="http://www.w3.org/2000/svg" version="1.1" viewBox="0 0 24 24">
  <defs>
    <style>
      .cls-1 {
        stroke-linejoin: round;
      }

      .cls-1, .cls-2 {
        fill: none;
        stroke: #fff;
        stroke-linecap: round;
        stroke-width: 2px;
      }

      .cls-2 {
        stroke-miterlimit: 10;
      }
    </style>
  </defs>
  <!-- Generator: Adobe Illustrator 28.7.1, SVG Export Plug-In . SVG Version: 1.2.0 Build 142)  -->
  <g>
    <g id="_레이어_1" data-name="레이어_1">
      <g>
        <path class="cls-1" d="M6.7,10.5c-2.2,0-3.8-1.6-3.8-3.8s1.9-3.8,4-3.8"/>
        <path class="cls-2" d="M15.9,10.5c-2.2,0-4-1.6-4-3.8s1.7-3.8,3.8-3.8h2.3c.9,0,1.9.4,1.9,1.3v2.3c0,2.2-1.9,3.9-4.1,3.9Z"/>
        <path class="cls-2" d="M9,19.5v-1.5c0-2.2,1.8-4,4-4h6c2.2,0,4,1.8,4,4v1.5c0,.8-.9,1.5-2,1.5h-10c-1.1,0-2-.7-2-1.5Z"/>
        <path class="cls-1" d="M7,14h-2c-2.2,0-4,1.8-4,4v1.5c0,.8.9,1.5,2,1.5h4"/>
      </g>
    </g>
  </g>
</svg>