<?xml version="1.0" encoding="UTF-8"?>
<svg xmlns="http://www.w3.org/2000/svg" version="1.1" viewBox="0 0 24 24">
  <defs>
    <style>
      .cls-1 {
        stroke: #000;
      }

      .cls-1, .cls-2 {
        fill: none;
        stroke-linecap: round;
        stroke-linejoin: round;
        stroke-width: 2px;
      }

      .cls-2 {
        stroke: #ff8300;
      }
    </style>
  </defs>
  <!-- Generator: Adobe Illustrator 28.7.1, SVG Export Plug-In . SVG Version: 1.2.0 Build 142)  -->
  <g>
    <g id="_레이어_1" data-name="레이어_1">
      <path class="cls-2" d="M1,22s.4.2,1,.5c.6.3,2.9.5,4,.5h8c1.1,0,2-.9,2-2s-.9-2-2-2h-6,2"/>
      <path class="cls-2" d="M6,17c1,1,2,2,3.7.7.8-.8.8-2,0-2.8l-2.3-2.4c-.8-.9-2.3-1.5-3.4-1.5H1"/>
      <line class="cls-2" x1="5" y1="16" x2="8" y2="19"/>
      <path class="cls-1" d="M1,8v-3c0-1.1.9-2,2-2h18c1.1,0,2,.9,2,2v14c0,3.3-2,4-4,4"/>
      <line class="cls-1" x1="19" y1="1" x2="19" y2="3"/>
      <line class="cls-1" x1="5" y1="1" x2="5" y2="3"/>
      <line class="cls-2" x1="18" y1="9" x2="11" y2="9"/>
      <line class="cls-2" x1="18" y1="13" x2="15" y2="13"/>
    </g>
  </g>
</svg>