<?xml version="1.0" encoding="UTF-8"?>
<svg xmlns="http://www.w3.org/2000/svg" version="1.1" viewBox="0 0 24 48">
  <defs>
    <style>
      .cls-1 {
        stroke: #21204c;
      }

      .cls-1, .cls-2, .cls-3, .cls-4, .cls-5 {
        fill: none;
        stroke-linecap: round;
        stroke-linejoin: round;
        stroke-width: 2px;
      }

      .cls-2 {
        stroke: #3282b8;
      }

      .cls-3 {
        stroke: #fff;
      }

      .cls-4 {
        stroke: #006072;
      }

      .cls-5 {
        stroke: #ff8300;
      }
    </style>
  </defs>
  <!-- Generator: Adobe Illustrator 28.7.1, SVG Export Plug-In . SVG Version: 1.2.0 Build 142)  -->
  <g>
    <g id="_레이어_1" data-name="레이어_1">
      <line class="cls-2" x1="1006" y1="508" x2="1009" y2="508"/>
      <line class="cls-2" x1="1006" y1="512" x2="1013" y2="512"/>
      <line class="cls-2" x1="1006" y1="516" x2="1013" y2="516"/>
      <path class="cls-1" d="M1020,523h-14.4c-2,0-3.6-1.6-3.6-3.6v-12.4c0-3.3,2.7-6,6-6h8c1.1,0,2,.9,2,2v17c0,1.7,1.3,3,3,3s3-1.3,3-3v-10c0-1.1-.9-2-2-2h-4"/>
      <path class="cls-5" d="M23,39s.3-2.3-2-4c-4-3-8,1.5-8,1.5,0,0,1.4.5,2,2.5.4,1.2,2,4,5,3"/>
      <path class="cls-5" d="M19,39s3,0,3,4"/>
      <path class="cls-4" d="M14,43h-7c-3.3,0-6-2.7-6-6v-10c0-1.1.9-2,2-2h18c1.1,0,2,.9,2,2v3"/>
      <line class="cls-4" x1="8" y1="47" x2="16" y2="47"/>
      <g>
        <path class="cls-3" d="M23,15s.3-2.3-2-4c-4-3-8,1.5-8,1.5,0,0,1.4.5,2,2.5.4,1.2,2,4,5,3"/>
        <path class="cls-3" d="M19,15s3,0,3,4"/>
        <path class="cls-3" d="M14,19h-7c-3.3,0-6-2.7-6-6V3c0-1.1.9-2,2-2h18c1.1,0,2,.9,2,2v3"/>
        <line class="cls-3" x1="8" y1="23" x2="16" y2="23"/>
      </g>
    </g>
  </g>
</svg>