<?xml version="1.0" encoding="UTF-8"?>
<svg xmlns="http://www.w3.org/2000/svg" version="1.1" viewBox="0 0 24 48">
  <defs>
    <style>
      .cls-1 {
        stroke: #21204c;
      }

      .cls-1, .cls-2 {
        fill: none;
        stroke-linecap: round;
        stroke-linejoin: round;
        stroke-width: 2px;
      }

      .cls-2 {
        stroke: #3282b8;
      }

      .cls-3 {
        fill: #fff;
      }

      .cls-4 {
        fill: #ff8300;
      }

      .cls-5 {
        fill: #006072;
      }
    </style>
  </defs>
  <!-- Generator: Adobe Illustrator 28.7.1, SVG Export Plug-In . SVG Version: 1.2.0 Build 142)  -->
  <g>
    <g id="_레이어_1" data-name="레이어_1">
      <line class="cls-2" x1="1006" y1="508" x2="1009" y2="508"/>
      <line class="cls-2" x1="1006" y1="512" x2="1013" y2="512"/>
      <line class="cls-2" x1="1006" y1="516" x2="1013" y2="516"/>
      <path class="cls-1" d="M1020,523h-14.4c-2,0-3.6-1.6-3.6-3.6v-12.4c0-3.3,2.7-6,6-6h8c1.1,0,2,.9,2,2v17c0,1.7,1.3,3,3,3s3-1.3,3-3v-10c0-1.1-.9-2-2-2h-4"/>
      <path class="cls-4" d="M14,39h0c-.4,0-.7-.2-.9-.6l-3.2-6.4-1,1.6c-.3.2-.6.4-.9.4h-3c-.6,0-1-.4-1-1s.4-1,1-1h2.5l1.7-2.6c.2-.3.5-.5.9-.4.4,0,.7.2.8.6l3.2,6.5,1-1.6c.2-.3.5-.4.8-.4h3c.6,0,1,.4,1,1s-.4,1-1,1h-2.5l-1.7,2.6c0,.1-.4.3-.7.3Z"/>
      <path class="cls-5" d="M21,44H7c-3.9,0-7-3.1-7-7v-10c0-1.7,1.3-3,3-3h18c1.7,0,3,1.3,3,3v14c0,1.7-1.3,3-3,3ZM3,26c-.6,0-1,.4-1,1v10c0,2.8,2.2,5,5,5h14c.6,0,1-.4,1-1v-14c0-.6-.4-1-1-1H3Z"/>
      <path class="cls-5" d="M9,47h-.2c-.5,0-.9-.7-.7-1.2l1-3c.1-.5.7-.9,1.2-.7.5,0,.9.7.7,1.2l-1,3c-.1.4-.6.7-1,.7Z"/>
      <path class="cls-5" d="M15,47c-.4,0-.9-.3-1-.8l-1-3c-.1-.5.2-1.1.7-1.2.5,0,1.1.2,1.2.7l1,3c.1.5-.2,1.1-.7,1.2,0,0,0,0-.2,0Z"/>
      <path class="cls-5" d="M17,48H7c-.6,0-1-.4-1-1s.4-1,1-1h10c.6,0,1,.4,1,1s-.4,1-1,1Z"/>
      <g>
        <path class="cls-3" d="M14,15h0c-.4,0-.7-.2-.9-.6l-3.2-6.4-1,1.6c-.3.2-.6.4-.9.4h-3c-.6,0-1-.4-1-1s.4-1,1-1h2.5l1.7-2.6c.2-.3.5-.4.9-.4s.7.2.8.6l3.2,6.5,1-1.6c.2-.3.5-.4.8-.4h3c.6,0,1,.4,1,1s-.4,1-1,1h-2.5l-1.7,2.6c-.1,0-.4.3-.7.3Z"/>
        <path class="cls-3" d="M21,20H7c-3.9,0-7-3.1-7-7V3C0,1.3,1.3,0,3,0h18c1.7,0,3,1.3,3,3v14c0,1.7-1.3,3-3,3ZM3,2c-.6,0-1,.4-1,1v10c0,2.8,2.2,5,5,5h14c.6,0,1-.4,1-1V3c0-.6-.4-1-1-1H3Z"/>
        <path class="cls-3" d="M9,23h-.2c-.5-.1-.9-.7-.7-1.2l1-3c.1-.5.7-.9,1.2-.7.5.1.9.7.7,1.2l-1,3c-.1.4-.6.7-1,.7Z"/>
        <path class="cls-3" d="M15,23c-.4,0-.9-.3-1-.8l-1-3c-.1-.5.2-1.1.7-1.2s1.1.2,1.2.7l1,3c.1.5-.2,1.1-.7,1.2,0,0,0,0-.2,0Z"/>
        <path class="cls-3" d="M17,24H7c-.6,0-1-.4-1-1s.4-1,1-1h10c.6,0,1,.4,1,1s-.4,1-1,1Z"/>
      </g>
    </g>
  </g>
</svg>