<?xml version="1.0" encoding="UTF-8"?>
<svg xmlns="http://www.w3.org/2000/svg" version="1.1" viewBox="0 0 24 24">
  <defs>
    <style>
      .cls-1 {
        stroke: #21204c;
      }

      .cls-1, .cls-2, .cls-3 {
        fill: none;
        stroke-linecap: round;
        stroke-linejoin: round;
        stroke-width: 2px;
      }

      .cls-2 {
        stroke: #3282b8;
      }

      .cls-3 {
        stroke: #fff;
      }
    </style>
  </defs>
  <!-- Generator: Adobe Illustrator 28.7.1, SVG Export Plug-In . SVG Version: 1.2.0 Build 142)  -->
  <g>
    <g id="_레이어_1" data-name="레이어_1">
      <circle class="cls-1" cx="501.3" cy="1035.8" r="5"/>
      <circle class="cls-1" cx="501.3" cy="1035.8" r="5"/>
      <path class="cls-1" d="M502.8,1043.3v-10c0-3-1-4-3-5"/>
      <path class="cls-1" d="M499.8,1043.3v-10c0-3,1-4,3-5"/>
      <path class="cls-2" d="M500.3,1034.8c1.1,0,2,.9,2,2"/>
      <path class="cls-2" d="M500.3,1034.8c1.1,0,2,.9,2,2"/>
      <g>
        <line class="cls-3" x1="4.8" y1="19.1" x2="1.8" y2="22.1"/>
        <line class="cls-3" x1="6.8" y1="21.1" x2="5.4" y2="22.6"/>
        <line class="cls-3" x1="2.8" y1="17.1" x2="1.4" y2="18.6"/>
        <path class="cls-3" d="M13.2,19.7l7.6-7.6s4-5,0-9c-5-4-9,0-9,0l-7.6,7.6c-.8.8-.8,2,0,2.8l6.2,6.2c.8.8,2,.8,2.8,0Z"/>
        <polyline class="cls-3" points="9.8 19.1 8.8 22.1 1.8 15.1 4.8 14.1"/>
        <circle class="cls-3" cx="14.8" cy="9.1" r="2"/>
        <path class="cls-3" d="M14.8,18.1l1.6,1.6c.8.8,1.6.5,1.9-.5l1.5-6.1"/>
        <path class="cls-3" d="M5.8,9.1l-1.6-1.6c-.8-.8-.5-1.6.5-1.9l6.1-1.5"/>
      </g>
    </g>
  </g>
</svg>