<?xml version="1.0" encoding="UTF-8"?>
<svg xmlns="http://www.w3.org/2000/svg" version="1.1" viewBox="0 0 24 24">
  <defs>
    <style>
      .cls-1 {
        fill: none;
        stroke: #fff;
        stroke-linecap: round;
        stroke-linejoin: round;
        stroke-width: 2px;
      }
    </style>
  </defs>
  <!-- Generator: Adobe Illustrator 28.7.1, SVG Export Plug-In . SVG Version: 1.2.0 Build 142)  -->
  <g>
    <g id="_레이어_1" data-name="레이어_1">
      <g>
        <path class="cls-1" d="M2,17.5V7.5C2,4.2,4.7,1.5,8,1.5h12c1.1,0,2,.9,2,2v2"/>
        <path class="cls-1" d="M5,22.5c-1.1,0-2.3-.8-2.7-1.9,0,0-.3-.7-.6-1.6-.3-.9.3-1.6,1.4-1.6h18c1.1,0,1.7.7,1.4,1.6l-.6,1.6c-.4,1-1.6,1.9-2.7,1.9H5Z"/>
        <circle class="cls-1" cx="18" cy="10.5" r="3"/>
        <line class="cls-1" x1="21" y1="13.5" x2="22.5" y2="15"/>
      </g>
    </g>
  </g>
</svg>