<?xml version="1.0" encoding="UTF-8"?>
<svg xmlns="http://www.w3.org/2000/svg" version="1.1" viewBox="0 0 24 24">
  <defs>
    <style>
      .cls-1 {
        fill: none;
        stroke: #fff;
        stroke-linecap: round;
        stroke-linejoin: round;
        stroke-width: 2px;
      }
    </style>
  </defs>
  <!-- Generator: Adobe Illustrator 28.7.1, SVG Export Plug-In . SVG Version: 1.2.0 Build 142)  -->
  <g>
    <g id="_레이어_1" data-name="레이어_1">
      <g>
        <polyline class="cls-1" points="3.4 22.6 9.4 22.6 20.4 11.6 12.4 3.6 1.4 14.6 1.4 20.6"/>
        <line class="cls-1" x1="6.4" y1="14.6" x2="14.4" y2="6.6"/>
        <line class="cls-1" x1="9.4" y1="17.6" x2="17.4" y2="9.6"/>
        <polyline class="cls-1" points="1.4 14.6 6.4 14.6 6.4 17.6 9.4 17.6 9.4 22.6"/>
        <polygon class="cls-1" points="1.4 20.6 1.4 22.6 3.4 22.6 1.4 20.6"/>
        <path class="cls-1" d="M12.4,3.6l1.6-1.6c.8-.8,2-.8,2.8,0l5.2,5.2c.8.8.8,2,0,2.8l-1.6,1.6L12.4,3.6Z"/>
      </g>
    </g>
  </g>
</svg>