<?xml version="1.0" encoding="UTF-8"?>
<svg xmlns="http://www.w3.org/2000/svg" version="1.1" viewBox="0 0 24 24">
  <defs>
    <style>
      .cls-1 {
        stroke-linejoin: round;
      }

      .cls-1, .cls-2 {
        fill: none;
        stroke: #fff;
        stroke-linecap: round;
        stroke-width: 2px;
      }

      .cls-2 {
        stroke-miterlimit: 10;
      }
    </style>
  </defs>
  <!-- Generator: Adobe Illustrator 28.7.1, SVG Export Plug-In . SVG Version: 1.2.0 Build 142)  -->
  <g>
    <g id="_레이어_1" data-name="레이어_1">
      <g>
        <path class="cls-1" d="M17,15"/>
        <path class="cls-1" d="M23,17c0,3.3-2.7,6-6,6s-6-2.7-6-6,2.7-6,6-6c0,0,2,0,3,1"/>
        <g>
          <path class="cls-2" d="M9,9c-2.2,0-4-1.8-4-4S6.8,1,9,1h2.4c.9,0,1.6.7,1.6,1.6v2.4c0,2.2-1.8,4-4,4Z"/>
          <path class="cls-2" d="M11,23H3c-1.2,0-2-1-2-2.3v-1.7c0-3,2.5-6,6-6h2"/>
        </g>
        <polyline class="cls-1" points="15 16 17 18 22 14"/>
      </g>
    </g>
  </g>
</svg>