<?xml version="1.0" encoding="UTF-8"?>
<svg xmlns="http://www.w3.org/2000/svg" version="1.1" viewBox="0 0 24 48">
  <defs>
    <style>
      .cls-1 {
        stroke: #21204c;
      }

      .cls-1, .cls-2, .cls-3, .cls-4 {
        fill: none;
        stroke-linecap: round;
        stroke-linejoin: round;
        stroke-width: 2px;
      }

      .cls-2 {
        stroke: #3282b8;
      }

      .cls-5 {
        fill: #fff;
      }

      .cls-3 {
        stroke: #006072;
      }

      .cls-4 {
        stroke: #ff8300;
      }
    </style>
  </defs>
  <!-- Generator: Adobe Illustrator 28.7.1, SVG Export Plug-In . SVG Version: 1.2.0 Build 142)  -->
  <g>
    <g id="_레이어_1" data-name="레이어_1">
      <line class="cls-2" x1="1006" y1="508" x2="1009" y2="508"/>
      <line class="cls-2" x1="1006" y1="512" x2="1013" y2="512"/>
      <line class="cls-2" x1="1006" y1="516" x2="1013" y2="516"/>
      <path class="cls-1" d="M1020,523h-14.4c-2,0-3.6-1.6-3.6-3.6v-12.4c0-3.3,2.7-6,6-6h8c1.1,0,2,.9,2,2v17c0,1.7,1.3,3,3,3s3-1.3,3-3v-10c0-1.1-.9-2-2-2h-4"/>
      <path class="cls-3" d="M10,43h-3c-3.3,0-6-2.7-6-6v-10c0-1.1.9-2,2-2h18c1.1,0,2,.9,2,2v3"/>
      <line class="cls-3" x1="7" y1="47" x2="17" y2="47"/>
      <path class="cls-4" d="M23,38c0,2.8-2.2,5-5,5s-5-2.2-5-5,2.2-5,5-5c0,0,1.7,0,2.5.8"/>
      <polyline class="cls-4" points="16.3 37.2 18 38.8 22.2 35.5"/>
      <line class="cls-4" x1="6" y1="31" x2="13" y2="31"/>
      <line class="cls-4" x1="6" y1="35" x2="9" y2="35"/>
      <g>
        <path class="cls-5" d="M10,20h-3c-3.9,0-7-3.1-7-7V3C0,1.3,1.3,0,3,0h18c1.7,0,3,1.3,3,3v3c0,.6-.4,1-1,1s-1-.4-1-1v-3c0-.6-.4-1-1-1H3c-.5,0-1,.4-1,1v10c0,2.8,2.2,5,5,5h3c.6,0,1,.4,1,1s-.4,1-1,1Z"/>
        <path class="cls-5" d="M17,24H7c-.6,0-1-.4-1-1s.4-1,1-1h10c.6,0,1,.4,1,1s-.4,1-1,1Z"/>
        <path class="cls-5" d="M18,20c-3.3,0-6-2.7-6-6s2.7-6,6-6,2.1,0,3.2,1.1.4,1,0,1.4-1,.4-1.4,0c-.4-.4-1.4-.5-1.8-.5-2.2,0-4,1.8-4,4s1.8,4,4,4,4-1.8,4-4,.4-1,1-1,1,.4,1,1c0,3.3-2.7,6-6,6Z"/>
        <path class="cls-5" d="M18,15.8c-.3,0-.5-.1-.7-.3l-1.7-1.7c-.4-.4-.4-1,0-1.4s1-.4,1.4,0l1,1,3.5-2.8c.4-.3,1.1-.3,1.4.2.3.4.3,1.1-.2,1.4l-4.2,3.3c0,.3-.3.3-.5.3Z"/>
        <path class="cls-5" d="M13,8h-7c-.5,0-1-.4-1-1s.4-1,1-1h7c.6,0,1,.4,1,1s-.4,1-1,1Z"/>
        <path class="cls-5" d="M9,12h-3c-.6,0-1-.4-1-1s.4-1,1-1h3c.6,0,1,.4,1,1s-.4,1-1,1Z"/>
      </g>
    </g>
  </g>
</svg>