<?xml version="1.0" encoding="UTF-8"?>
<svg xmlns="http://www.w3.org/2000/svg" version="1.1" viewBox="0 0 24 48">
  <defs>
    <style>
      .cls-1 {
        stroke: #fff;
      }

      .cls-1, .cls-2, .cls-3 {
        fill: none;
        stroke-linecap: round;
        stroke-linejoin: round;
        stroke-width: 2px;
      }

      .cls-2 {
        stroke: #006072;
      }

      .cls-3 {
        stroke: #ff8300;
      }
    </style>
  </defs>
  <!-- Generator: Adobe Illustrator 28.7.1, SVG Export Plug-In . SVG Version: 1.2.0 Build 142)  -->
  <g>
    <g id="_레이어_1" data-name="레이어_1">
      <g>
        <path class="cls-1" d="M3,17V7c0-1.1.9-2,2-2h1"/>
        <path class="cls-1" d="M21,17V7c0-1.1-.9-2-2-2h-1"/>
        <path class="cls-1" d="M3,22l-1-1c-1-1-1.1-3,0-3h20c1.1,0,1,2,0,3l-1,1c-1,1-1.9,1-3,1H6c-1.1,0-2,0-3-1Z"/>
        <path class="cls-1" d="M10,1h6c1.1,0,2,.9,2,2v6c0,1.1-1.2,2-2,2h-2l-2,2-2-2h-2c-.8,0-2-.9-2-2v-4c0-2.2,1.8-4,4-4Z"/>
        <line class="cls-1" x1="11" y1="6" x2="13" y2="6"/>
      </g>
      <path class="cls-2" d="M3,41v-10c0-1.1.9-2,2-2h1"/>
      <path class="cls-2" d="M21,41v-10c0-1.1-.9-2-2-2h-1"/>
      <path class="cls-2" d="M3,46l-1-1c-1-1-1.1-3,0-3h20c1.1,0,1,2,0,3l-1,1c-1,1-1.9,1-3,1H6c-1.1,0-2,0-3-1Z"/>
      <path class="cls-2" d="M10,25h6c1.1,0,2,.9,2,2v6c0,1.1-1.2,2-2,2h-2l-2,2-2-2h-2c-.8,0-2-.9-2-2v-4c0-2.2,1.8-4,4-4Z"/>
      <line class="cls-3" x1="11" y1="30" x2="13" y2="30"/>
    </g>
  </g>
</svg>