<?xml version="1.0" encoding="UTF-8"?>
<svg xmlns="http://www.w3.org/2000/svg" version="1.1" viewBox="0 0 24 24">
  <defs>
    <style>
      .cls-1 {
        fill: none;
        stroke: #fff;
        stroke-linecap: round;
        stroke-linejoin: round;
      }
    </style>
  </defs>
  <!-- Generator: Adobe Illustrator 28.7.1, SVG Export Plug-In . SVG Version: 1.2.0 Build 142)  -->
  <g>
    <g id="_레이어_1" data-name="레이어_1">
      <g>
        <path class="cls-1" d="M12,5.8l-1.3-1.3c-.4-.4-1.2-.7-1.7-.7-.6,0-1.3.3-1.7.7l-4.6,4.6c-.4.4-.7,1.2-.7,1.7h0c0,.6.3,1.3.7,1.7l7.3,7.3c1,1,2,0,2,0,.7-.7.7-1.3,0-2"/>
        <path class="cls-1" d="M12,17.8l1,1c1,1,2,0,2,0,.7-.7.7-1.3,0-2"/>
        <path class="cls-1" d="M14,15.8l2,2c1,1,2,0,2,0,.7-.7.7-1.3,0-2"/>
        <path class="cls-1" d="M16,9.8h-4l-2,2c-1,1-2,0-2,0,0,0-1-1,0-2l5.3-5.3c.4-.4,1.2-.7,1.7-.7h0c.6,0,1.3.3,1.7.7l4.6,4.6c.4.4.7,1.2.7,1.7h0c0,.6-.3,1.3-.7,1.7l-1.3,1.3"/>
        <path class="cls-1" d="M16,13.8l3,3c1,1,2,0,2,0,.7-.7.7-1.3,0-2l-5-5"/>
      </g>
    </g>
  </g>
</svg>