<?xml version="1.0" encoding="utf-8"?>
<!-- Generator: Adobe Illustrator 15.1.0, SVG Export Plug-In . SVG Version: 6.00 Build 0)  -->
<!DOCTYPE svg PUBLIC "-//W3C//DTD SVG 1.1//EN" "http://www.w3.org/Graphics/SVG/1.1/DTD/svg11.dtd">
<svg version="1.1" xmlns="http://www.w3.org/2000/svg" xmlns:xlink="http://www.w3.org/1999/xlink" x="0px" y="0px" width="102px"
	 height="102px" viewBox="0 0 102 102" enable-background="new 0 0 102 102" xml:space="preserve">
<g id="Layer_2">
	<rect x="3" fill="#FFFFFF" width="99" height="99"/>
</g>
<g id="Layer_1">
	<g>
		<g>
			<path fill="#9C7F5D" d="M96.586,81.315c-0.973-0.383-1.722-1.14-2.002-2.023l-1.145,0.373c0.397,1.247,1.384,2.262,2.709,2.784
				c0.99,0.391,1.976,0.449,2.907,0.186v18.101h1.256V80.679l-0.9,0.517C98.614,81.655,97.558,81.7,96.586,81.315"/>
			<path fill="#9C7F5D" d="M25.406,7.481c1.323,0.474,2.738,0.348,3.825,0.184c2.711-0.41,5.338-1.354,7.879-2.266
				c3.488-1.253,6.77-2.443,10.302-2.377c1.438,0.025,2.435,0.304,3.134,0.88c0.705,0.581,1.118,1.756,0.584,2.515
				c-0.251,0.357-0.786,0.453-1.186,0.359c-0.164-0.037-0.554-0.166-0.618-0.54l-1.185,0.209c0.131,0.759,0.705,1.327,1.536,1.518
				c0.192,0.044,0.384,0.066,0.575,0.066c0.748,0,1.451-0.331,1.855-0.905c0.114-0.161,0.202-0.331,0.273-0.507
				c0.42,1.037,1.229,1.918,2.255,2.347c1.266,0.528,2.71,0.339,3.674-0.482c1.088-0.927,1.378-2.609,0.646-3.751
				C58.56,4.113,57.86,3.702,57.083,3.63c-0.732-0.071-1.404,0.173-1.862,0.662l0.871,0.838c0.203-0.217,0.526-0.322,0.881-0.289
				c0.408,0.039,0.781,0.25,0.976,0.553c0.406,0.633,0.218,1.621-0.41,2.156c-0.616,0.524-1.6,0.64-2.443,0.288
				c-1.069-0.447-1.822-1.577-1.829-2.748c-0.007-1.172,0.73-2.312,1.793-2.773c1.168-0.505,2.564-0.219,3.649,0.089
				c2.21,0.622,4.291,1.599,6.188,2.905c0.625,0.43,1.228,0.894,1.83,1.357c0.767,0.589,1.559,1.199,2.395,1.737
				c1.828,1.175,3.506,1.746,5.126,1.746h0.06c1.83-0.016,3.541-0.891,4.467-2.234c0.573,1.358,1.778,2.372,3.139,2.586
				c0.172,0.026,0.344,0.04,0.516,0.04c1.498,0,2.941-0.995,3.359-2.395c0.246-0.825,0.099-1.781-0.395-2.558
				c-0.465-0.733-1.178-1.215-1.957-1.322l-0.162,1.206c0.43,0.059,0.832,0.341,1.107,0.774c0.305,0.481,0.401,1.06,0.256,1.548
				c-0.295,0.985-1.46,1.673-2.54,1.504c-1.054-0.166-2.019-1.077-2.348-2.216c-0.503-1.741,0.526-3.848,2.246-4.601
				c1.688-0.74,3.857-0.216,5.159,1.243c1.254,1.405,1.675,3.559,1.072,5.489v0.001c-0.657,1.09-1.255,2.269-1.773,3.553
				c-0.709,0.167-1.415,0.342-2.113,0.539c-1.4,0.394-2.964,0.968-3.952,2.226c-0.603,0.768-0.889,1.847-0.748,2.816
				c0.115,0.79,0.503,1.455,1.095,1.871c0.467,0.328,0.99,0.472,1.52,0.472c1.041,0,2.102-0.558,2.783-1.354
				c0.851-0.994,1.228-2.229,1.593-3.422l0.122-0.399c0.183-0.587,0.378-1.155,0.586-1.707c0.165-0.038,0.329-0.076,0.494-0.113
				c1.549-0.357,3.125-0.738,4.66-1.261l0.003,0.01c1.906-0.608,4.034-0.183,5.421,1.086c1.439,1.318,1.957,3.515,1.228,5.224
				c-0.745,1.744-2.825,2.789-4.543,2.276c-1.126-0.334-2.026-1.311-2.188-2.378c-0.168-1.096,0.512-2.274,1.483-2.572
				c0.483-0.145,1.055-0.05,1.53,0.258c0.426,0.279,0.705,0.687,0.764,1.121l1.191-0.164c-0.105-0.788-0.582-1.51-1.306-1.98
				c-0.768-0.5-1.713-0.65-2.526-0.4c-1.541,0.472-2.584,2.233-2.325,3.923c0.211,1.378,1.212,2.599,2.554,3.178
				c-1.326,0.939-2.19,2.672-2.206,4.525c-0.015,1.659,0.55,3.376,1.724,5.251c0.532,0.848,1.135,1.652,1.718,2.429
				c0.456,0.609,0.914,1.217,1.338,1.849c1.289,1.921,2.253,4.029,2.868,6.266c0.302,1.102,0.586,2.517,0.088,3.695
				c-0.455,1.078-1.598,1.773-2.737,1.818c-1.157-0.007-2.272-0.769-2.714-1.853c-0.348-0.855-0.234-1.849,0.284-2.473
				c0.527-0.639,1.503-0.828,2.129-0.416c0.299,0.197,0.508,0.575,0.544,0.986c0.034,0.362-0.07,0.688-0.283,0.893l0.826,0.882
				c0.483-0.463,0.722-1.151,0.655-1.886c-0.073-0.786-0.479-1.495-1.087-1.896c-1.127-0.74-2.789-0.448-3.704,0.653
				c-0.811,0.977-0.997,2.437-0.476,3.721c0.423,1.04,1.293,1.859,2.316,2.284c-0.173,0.071-0.341,0.161-0.5,0.276
				c-0.711,0.514-1.044,1.503-0.83,2.462c0.189,0.842,0.75,1.423,1.5,1.556l0.205-1.2c-0.368-0.065-0.496-0.459-0.532-0.626
				c-0.092-0.404,0.002-0.946,0.355-1.2c0.748-0.543,1.909-0.123,2.482,0.591c0.568,0.709,0.846,1.717,0.87,3.174
				c0.06,3.563-1.109,6.9-2.348,10.433c-0.9,2.573-1.833,5.234-2.238,7.979c-0.161,1.099-0.286,2.533,0.183,3.873
				c0.515,1.477,1.708,2.528,3.038,2.68c0.099,0.01,0.196,0.015,0.295,0.015c0.804,0,1.619-0.363,2.229-1.006
				c0.687-0.723,1.015-1.692,0.878-2.595c-0.134-0.903-0.733-1.73-1.6-2.213c-0.865-0.482-1.877-0.553-2.701-0.186l0.482,1.116
				c0.484-0.217,1.099-0.164,1.64,0.137c0.541,0.302,0.912,0.799,0.992,1.329c0.079,0.531-0.129,1.117-0.557,1.568
				c-0.429,0.451-1,0.687-1.525,0.624c-0.996-0.112-1.742-1.023-2.039-1.875c-0.38-1.087-0.268-2.328-0.126-3.288
				c0.387-2.628,1.3-5.232,2.182-7.751c1.219-3.479,2.479-7.077,2.416-10.86c-0.028-1.745-0.391-2.99-1.138-3.922
				c-0.298-0.371-0.698-0.675-1.141-0.899c1.255-0.315,2.368-1.217,2.879-2.426c0.644-1.528,0.317-3.207-0.036-4.5
				c-0.65-2.365-1.67-4.594-3.032-6.624c-0.436-0.65-0.905-1.276-1.375-1.902c-0.568-0.757-1.155-1.539-1.659-2.344
				c-1.047-1.671-1.55-3.171-1.537-4.588c0.014-1.661,0.862-3.183,2.11-3.786c0.675-0.327,1.521-0.341,2.26-0.036
				c0.623,0.254,1.076,0.696,1.278,1.243c0.22,0.597,0.025,1.376-0.486,1.938c-0.433,0.478-0.988,0.68-1.479,0.538l-0.325,1.173
				c0.939,0.264,1.944-0.066,2.69-0.887c0.822-0.905,1.106-2.156,0.727-3.188c-0.285-0.772-0.874-1.389-1.655-1.79
				c1.019-0.545,1.881-1.414,2.354-2.52c0.928-2.173,0.286-4.953-1.525-6.61c-0.873-0.798-1.98-1.321-3.163-1.545
				c1.721-1.056,4.477-3.403,5.236-5.768c0.313-0.971,0.27-1.863-0.129-2.648c-0.365-0.723-0.972-1.166-1.754-1.283
				c-2.84-0.418-7.381,3.646-8.156,4.464c-0.375,0.396-0.729,0.824-1.076,1.263C89.61,5.548,89.05,4.036,88.045,2.91
				c-1.637-1.835-4.383-2.484-6.527-1.545c-1.091,0.478-1.95,1.352-2.488,2.384c-0.396-0.791-1.005-1.388-1.768-1.676
				c-1.017-0.385-2.253-0.097-3.147,0.734c-0.812,0.757-1.139,1.775-0.875,2.726l1.156-0.328c-0.138-0.501,0.062-1.062,0.532-1.501
				c0.556-0.517,1.325-0.714,1.913-0.49c0.541,0.204,0.977,0.664,1.229,1.292c0.3,0.752,0.287,1.608-0.035,2.291
				c-0.598,1.264-2.101,2.123-3.739,2.137c-1.427-0.031-2.882-0.498-4.53-1.557c-0.794-0.51-1.565-1.104-2.313-1.679
				c-0.618-0.476-1.238-0.952-1.881-1.394c-2.004-1.38-4.205-2.412-6.54-3.07c-1.276-0.361-2.932-0.69-4.444-0.037
				c-1.193,0.517-2.084,1.643-2.396,2.913c-0.222-0.447-0.521-0.852-0.888-1.153c-0.919-0.756-2.149-1.123-3.872-1.153
				c-3.717-0.056-7.289,1.213-10.724,2.447c-2.486,0.894-5.058,1.817-7.653,2.21c-0.948,0.142-2.174,0.257-3.247-0.127
				c-0.842-0.302-1.74-1.058-1.852-2.066c-0.061-0.533,0.171-1.111,0.616-1.544c0.445-0.433,1.023-0.645,1.549-0.564
				c0.522,0.081,1.014,0.457,1.313,1.005c0.296,0.549,0.349,1.169,0.135,1.66l1.102,0.489c0.362-0.835,0.293-1.858-0.184-2.735
				c-0.477-0.878-1.294-1.485-2.185-1.622c-0.891-0.138-1.85,0.195-2.563,0.889c-0.713,0.695-1.079,1.65-0.979,2.557
				C22.91,5.75,23.948,6.959,25.406,7.481 M85.604,15.151l-0.125,0.406c-0.343,1.123-0.668,2.184-1.353,2.986
				c-0.667,0.779-1.912,1.239-2.708,0.678c-0.404-0.284-0.545-0.727-0.591-1.048c-0.093-0.637,0.104-1.376,0.5-1.881
				c0.771-0.984,2.059-1.452,3.333-1.811c0.422-0.12,0.848-0.23,1.274-0.336C85.821,14.475,85.711,14.81,85.604,15.151
				 M91.622,6.693c1.22-1.288,5.144-4.402,7.114-4.102c0.397,0.059,0.671,0.26,0.859,0.633c0.25,0.493,0.268,1.055,0.056,1.716
				c-0.696,2.168-3.708,4.62-5.198,5.383c-2.031,1.04-4.319,1.595-6.552,2.11C88.904,10.17,90.149,8.247,91.622,6.693"/>
			<path fill="#9C7F5D" d="M20.223,5.073c-0.38-0.985-0.335-2.055,0.117-2.863l0.511-0.911H1.018v1.222h17.901
				c-0.262,0.942-0.202,1.99,0.184,2.994c0.516,1.342,1.518,2.341,2.749,2.743l0.368-1.16C21.348,6.814,20.602,6.057,20.223,5.073"
				/>
		</g>
		
			<text transform="matrix(1 0 0 1.0127 -308.8184 166.1553)" fill="#9C7F5D" font-family="'AbhayaLibre-SemiBold'" font-size="36.5387"> </text>
	</g>
</g>
</svg>
