<?xml version="1.0" encoding="utf-8"?>
<!-- Generator: Adobe Illustrator 28.7.1, SVG Export Plug-In . SVG Version: 9.03 Build 54978)  -->
<svg version="1.0" id="레이어_1" xmlns="http://www.w3.org/2000/svg" xmlns:xlink="http://www.w3.org/1999/xlink" x="0px"
	 y="0px" viewBox="0 0 129 109.8" style="enable-background:new 0 0 129 109.8;" xml:space="preserve">
<style type="text/css">
	.st0{fill:#FF8300;}
	.st1{fill:#773DBD;}
	.st2{fill:#006072;}
	.st3{fill:#FFFFFF;}
</style>
<g>
	<g>
		<path class="st0" d="M63.3,54.7c-0.4-0.1-0.8-0.3-1.3-0.4c-0.9-0.3-1.7-0.6-2.6-1c-2.7-1.2-5.1-2.8-7.2-4.7
			c-0.4-0.3-0.7-0.7-1.1-1c-0.3-0.3-0.7-0.7-1-1c-3.3,0.2-6.6-0.2-9.6-1.1c-0.5-0.2-1,0-1.3,0.5c-0.3,0.4-0.2,1,0.2,1.4
			c6.4,6.3,15.8,9.4,25.3,7.8C64.3,55,63.8,54.9,63.3,54.7z"/>
		<path class="st1" d="M92.1,46.8c-0.3-0.4-0.8-0.6-1.3-0.5c-4.5,1.3-9.4,1.5-14.2,0.3c-14.2-3.6-22.6-17.5-19-31.3
			c1.3-4.7,3.8-8.8,7.1-11.9c0.4-0.4,0.5-0.9,0.2-1.3c-0.3-0.4-0.8-0.6-1.3-0.5C54.2,4.3,46.6,11.5,44,21.3
			c-4,14.9,5.3,30.1,20.6,33.9c10.1,2.5,20.3-0.5,27.3-7c0.2-0.1,0.3-0.3,0.3-0.5C92.3,47.4,92.2,47.1,92.1,46.8z"/>
		<path class="st2" d="M85.2,18.6C74,7.7,55.8,7.8,44.6,18.7c-7.3,7.2-9.8,17.2-7.5,26.4c0,0.2,0.2,0.4,0.3,0.5
			c0.2,0.2,0.5,0.3,0.8,0.3c0.5,0,1-0.4,1.1-0.8c1.1-4.4,3.4-8.6,6.9-12.1c10.3-10,27-10.1,37.4-0.1c3.6,3.4,5.9,7.6,7,12
			c0.1,0.5,0.6,0.8,1.1,0.8c0.5,0,1-0.4,1.1-0.8C95.2,35.7,92.6,25.7,85.2,18.6z"/>
		<path class="st0" d="M87.2,20.9C85.3,11,78.1,3.3,69,0.1C68.8,0,68.6,0,68.4,0c-0.3,0.1-0.6,0.2-0.7,0.5c-0.3,0.4-0.3,1,0.1,1.4
			c3.1,3.4,5.4,7.6,6.4,12.4c2,10-2.1,19.6-10.1,25.3c0.3,0.3,0.5,0.6,0.8,0.8c0.3,0.3,0.6,0.5,0.9,0.7c2.4,2,5,3.7,8.1,4.8
			c0.5,0.2,1.1,0.3,1.6,0.5c0.5,0.1,0.9,0.2,1.4,0.3c0.5,0.1,0.9,0.2,1.4,0.3C85.5,40.6,89.2,30.9,87.2,20.9z"/>
	</g>
	<g>
		<path class="st3" d="M1,63.7c0-1,0.8-1.7,1.8-1.7h5.3v10.4l7.4-10.4h9.4l-8.4,10.4l8.7,17.2h-8.7l-4.8-11.4l-3.7,4.6v6.7H1V63.7z"
			/>
		<g>
			<path class="st3" d="M33.7,70.2c-5.6,0-10.1,4.4-10.1,9.8c0,5.4,4.5,9.8,10.1,9.8c5.6,0,10.1-4.4,10.1-9.8
				C43.9,74.6,39.3,70.2,33.7,70.2z M33.7,84.1c-2.3,0-4.3-1.8-4.3-4.1c0-2.3,1.9-4.1,4.3-4.1c2.3,0,4.3,1.8,4.3,4.1
				C38,82.3,36.1,84.1,33.7,84.1z"/>
		</g>
		<path class="st3" d="M60.8,61.9v15.3l-8.6-15.3h-4.9c-0.9,0-1.7,0.7-1.7,1.6v26h6.7V74.4l8.6,15.2h6.7V61.9H60.8z"/>
		<path class="st3" d="M74.1,61.9c-0.9,0-1.7,0.7-1.7,1.6v26h7.1V61.9H74.1z"/>
		<path class="st3" d="M104.7,77.3c-0.8-1.2-2-2-3.6-2.5c1.1-0.5,1.9-1.1,2.5-1.8c0.8-1.2,1.3-2.6,1.3-4.2c0-1.9-0.6-3.6-1.8-4.9
			c-1.2-1.3-2.9-2-5.1-2H86.3c-0.9,0-1.7,0.7-1.7,1.6v26h12.2c0.5,0,1.6-0.1,3.2-0.4c1.2-0.2,2.1-0.5,2.7-0.9c1-0.7,1.7-1.6,2.3-2.7
			c0.5-1.1,0.8-2.4,0.8-3.9C105.8,80,105.5,78.5,104.7,77.3z M91.8,67.5h3.1c1.1,0,1.8,0.2,2.3,0.7c0.4,0.5,0.6,1.1,0.6,1.9
			c0,0.9-0.2,1.5-0.6,2c-0.4,0.5-1.2,0.7-2.3,0.7h-3.1V67.5z M98,82.9c-0.5,0.5-1.4,0.8-2.6,0.8h-3.6v-5.6h3.6
			c1.2,0,2.1,0.2,2.6,0.7c0.5,0.5,0.7,1.2,0.7,2C98.7,81.6,98.5,82.3,98,82.9z"/>
		<path class="st3" d="M127,64.2c-1.3-1.5-3.2-2.2-5.8-2.2h-10.1c-0.9,0-1.7,0.7-1.7,1.6v26h7.1V79.3h3.9c2.9,0,5-0.8,6.4-2.4
			c1.4-1.6,2.1-3.8,2.1-6.5C129,67.7,128.3,65.6,127,64.2z M121.2,72.9c-0.6,0.6-1.5,0.9-2.9,0.9h-1.7v-6.2h2c1.3,0,2.2,0.3,2.7,0.9
			c0.5,0.6,0.7,1.3,0.7,2.2C122.1,71.6,121.8,72.3,121.2,72.9z"/>
	</g>
	<g>
		<path class="st3" d="M1,109.8v-3.4h0.5v1.7l1.8-1.7h0.6l-1.5,1.4l1.5,2H3.3L2,108l-0.6,0.5v1.2H1z"/>
		<path class="st3" d="M4.1,108.1c0-0.6,0.2-1,0.5-1.3s0.7-0.5,1.2-0.5c0.3,0,0.6,0.1,0.9,0.2c0.3,0.2,0.5,0.4,0.6,0.6
			c0.1,0.3,0.2,0.6,0.2,0.9c0,0.3-0.1,0.7-0.2,0.9c-0.1,0.3-0.3,0.5-0.6,0.6c-0.3,0.1-0.5,0.2-0.9,0.2c-0.3,0-0.6-0.1-0.9-0.2
			c-0.3-0.2-0.5-0.4-0.6-0.6C4.2,108.7,4.1,108.4,4.1,108.1z M4.6,108.1c0,0.4,0.1,0.7,0.3,1c0.2,0.2,0.5,0.4,0.9,0.4
			c0.4,0,0.6-0.1,0.9-0.4c0.2-0.2,0.3-0.6,0.3-1c0-0.3,0-0.5-0.1-0.7c-0.1-0.2-0.2-0.4-0.4-0.5c-0.2-0.1-0.4-0.2-0.6-0.2
			c-0.3,0-0.6,0.1-0.9,0.3C4.7,107.2,4.6,107.6,4.6,108.1z"/>
		<path class="st3" d="M8.1,109.8v-3.4h1.6c0.3,0,0.6,0,0.7,0.1c0.2,0.1,0.3,0.2,0.4,0.3c0.1,0.2,0.1,0.3,0.1,0.5
			c0,0.2-0.1,0.4-0.2,0.6c-0.2,0.2-0.4,0.3-0.8,0.3c0.1,0.1,0.2,0.1,0.3,0.2c0.1,0.1,0.3,0.3,0.4,0.5l0.6,0.9h-0.6l-0.5-0.7
			c-0.1-0.2-0.2-0.4-0.3-0.5c-0.1-0.1-0.2-0.2-0.2-0.2c-0.1,0-0.1-0.1-0.2-0.1c-0.1,0-0.1,0-0.3,0H8.6v1.5H8.1z M8.6,107.9h1
			c0.2,0,0.4,0,0.5-0.1c0.1,0,0.2-0.1,0.3-0.2c0.1-0.1,0.1-0.2,0.1-0.3c0-0.2-0.1-0.3-0.2-0.4c-0.1-0.1-0.3-0.2-0.6-0.2H8.6V107.9z"
			/>
		<path class="st3" d="M11.7,109.8v-3.4h2.5v0.4h-2.1v1h2v0.4h-2v1.2h2.2v0.4H11.7z"/>
		<path class="st3" d="M14.6,109.8l1.4-3.4h0.5l1.4,3.4h-0.5l-0.4-1h-1.5l-0.4,1H14.6z M15.6,108.4h1.2l-0.4-0.9
			c-0.1-0.3-0.2-0.5-0.2-0.7c0,0.2-0.1,0.4-0.2,0.7L15.6,108.4z"/>
		<path class="st3" d="M19.3,109.8v-3.4h0.5l1.9,2.7v-2.7h0.4v3.4h-0.5l-1.9-2.7v2.7H19.3z"/>
		<path class="st3" d="M22.5,109.8l1.4-3.4h0.5l1.4,3.4h-0.5l-0.4-1h-1.5l-0.4,1H22.5z M23.5,108.4h1.2l-0.4-0.9
			c-0.1-0.3-0.2-0.5-0.3-0.7c0,0.2-0.1,0.4-0.2,0.7L23.5,108.4z"/>
		<path class="st3" d="M26.7,109.8v-3h-1.2v-0.4h2.8v0.4h-1.2v3H26.7z"/>
		<path class="st3" d="M28.9,109.8v-3.4h0.5v3.4H28.9z"/>
		<path class="st3" d="M30.1,108.1c0-0.6,0.2-1,0.5-1.3c0.3-0.3,0.7-0.5,1.2-0.5c0.3,0,0.6,0.1,0.9,0.2c0.3,0.2,0.5,0.4,0.6,0.6
			c0.1,0.3,0.2,0.6,0.2,0.9c0,0.3-0.1,0.7-0.2,0.9c-0.1,0.3-0.3,0.5-0.6,0.6c-0.3,0.1-0.6,0.2-0.9,0.2c-0.3,0-0.6-0.1-0.9-0.2
			c-0.3-0.2-0.5-0.4-0.6-0.6C30.1,108.7,30.1,108.4,30.1,108.1z M30.5,108.1c0,0.4,0.1,0.7,0.3,1c0.2,0.2,0.5,0.4,0.9,0.4
			c0.4,0,0.6-0.1,0.9-0.4c0.2-0.2,0.3-0.6,0.3-1c0-0.3,0-0.5-0.1-0.7c-0.1-0.2-0.2-0.4-0.4-0.5c-0.2-0.1-0.4-0.2-0.6-0.2
			c-0.3,0-0.6,0.1-0.9,0.3C30.7,107.2,30.5,107.6,30.5,108.1z"/>
		<path class="st3" d="M34,109.8v-3.4h0.5l1.9,2.7v-2.7h0.4v3.4h-0.5l-1.9-2.7v2.7H34z"/>
		<path class="st3" d="M37.2,109.8l1.4-3.4h0.5l1.4,3.4H40l-0.4-1h-1.5l-0.4,1H37.2z M38.2,108.4h1.2l-0.4-0.9
			c-0.1-0.3-0.2-0.5-0.3-0.7c0,0.2-0.1,0.4-0.2,0.7L38.2,108.4z"/>
		<path class="st3" d="M40.9,109.8v-3.4h0.5v3h1.7v0.4H40.9z"/>
		<path class="st3" d="M44.9,109.8v-3.4h0.5v3.4H44.9z"/>
		<path class="st3" d="M46.2,109.8v-3.4h0.5l1.9,2.7v-2.7h0.4v3.4h-0.5l-1.9-2.7v2.7H46.2z"/>
		<path class="st3" d="M49.6,108.7l0.4,0c0,0.2,0.1,0.3,0.1,0.4c0.1,0.1,0.2,0.2,0.4,0.3c0.2,0.1,0.3,0.1,0.5,0.1
			c0.2,0,0.3,0,0.5-0.1c0.1-0.1,0.2-0.1,0.3-0.2c0.1-0.1,0.1-0.2,0.1-0.3c0-0.1,0-0.2-0.1-0.3c-0.1-0.1-0.2-0.1-0.3-0.2
			c-0.1,0-0.3-0.1-0.6-0.2c-0.3-0.1-0.6-0.1-0.7-0.2c-0.2-0.1-0.3-0.2-0.4-0.3c-0.1-0.1-0.1-0.3-0.1-0.4c0-0.2,0.1-0.3,0.2-0.5
			c0.1-0.1,0.2-0.3,0.4-0.3c0.2-0.1,0.4-0.1,0.6-0.1c0.3,0,0.5,0,0.7,0.1c0.2,0.1,0.4,0.2,0.5,0.4c0.1,0.2,0.2,0.3,0.2,0.5l-0.4,0
			c0-0.2-0.1-0.4-0.2-0.5c-0.1-0.1-0.3-0.2-0.6-0.2c-0.3,0-0.5,0.1-0.6,0.2c-0.1,0.1-0.2,0.2-0.2,0.4c0,0.1,0,0.2,0.1,0.3
			c0.1,0.1,0.3,0.2,0.7,0.2c0.4,0.1,0.6,0.2,0.8,0.2c0.2,0.1,0.4,0.2,0.5,0.3c0.1,0.1,0.1,0.3,0.1,0.5c0,0.2-0.1,0.4-0.2,0.5
			c-0.1,0.2-0.3,0.3-0.5,0.4c-0.2,0.1-0.4,0.1-0.7,0.1c-0.3,0-0.6,0-0.8-0.1c-0.2-0.1-0.4-0.2-0.5-0.4
			C49.6,109.1,49.6,108.9,49.6,108.7z"/>
		<path class="st3" d="M53.9,109.8v-3h-1.2v-0.4h2.8v0.4h-1.2v3H53.9z"/>
		<path class="st3" d="M56.1,109.8v-3.4h0.5v3.4H56.1z"/>
		<path class="st3" d="M58.3,109.8v-3h-1.2v-0.4h2.8v0.4h-1.2v3H58.3z"/>
		<path class="st3" d="M62.7,106.4h0.5v2c0,0.3,0,0.6-0.1,0.8c-0.1,0.2-0.2,0.4-0.4,0.5c-0.2,0.1-0.5,0.2-0.8,0.2
			c-0.3,0-0.6-0.1-0.8-0.2c-0.2-0.1-0.4-0.3-0.4-0.5c-0.1-0.2-0.1-0.5-0.1-0.9v-2h0.5v2c0,0.3,0,0.5,0.1,0.7
			c0.1,0.1,0.2,0.2,0.3,0.3c0.1,0.1,0.3,0.1,0.5,0.1c0.3,0,0.6-0.1,0.7-0.2c0.1-0.2,0.2-0.4,0.2-0.9V106.4z"/>
		<path class="st3" d="M64.9,109.8v-3h-1.2v-0.4h2.8v0.4h-1.2v3H64.9z"/>
		<path class="st3" d="M67,109.8v-3.4h2.6v0.4h-2.1v1h2v0.4h-2v1.2h2.2v0.4H67z"/>
		<path class="st3" d="M71.6,109.8v-3.4H74v0.4h-1.9v1.1h1.7v0.4h-1.7v1.6H71.6z"/>
		<path class="st3" d="M74.5,108.1c0-0.6,0.2-1,0.5-1.3c0.3-0.3,0.7-0.5,1.2-0.5c0.3,0,0.6,0.1,0.9,0.2c0.3,0.2,0.5,0.4,0.6,0.6
			c0.1,0.3,0.2,0.6,0.2,0.9c0,0.3-0.1,0.7-0.2,0.9c-0.1,0.3-0.3,0.5-0.6,0.6c-0.3,0.1-0.6,0.2-0.9,0.2c-0.3,0-0.6-0.1-0.9-0.2
			c-0.3-0.2-0.5-0.4-0.6-0.6C74.6,108.7,74.5,108.4,74.5,108.1z M75,108.1c0,0.4,0.1,0.7,0.3,1c0.2,0.2,0.5,0.4,0.9,0.4
			c0.4,0,0.6-0.1,0.9-0.4c0.2-0.2,0.3-0.6,0.3-1c0-0.3,0-0.5-0.1-0.7c-0.1-0.2-0.2-0.4-0.4-0.5c-0.2-0.1-0.4-0.2-0.6-0.2
			c-0.3,0-0.6,0.1-0.9,0.3C75.1,107.2,75,107.6,75,108.1z"/>
		<path class="st3" d="M78.5,109.8v-3.4H80c0.3,0,0.6,0,0.7,0.1c0.2,0.1,0.3,0.2,0.4,0.3c0.1,0.2,0.1,0.3,0.1,0.5
			c0,0.2-0.1,0.4-0.2,0.6c-0.2,0.2-0.4,0.3-0.8,0.3c0.1,0.1,0.2,0.1,0.3,0.2c0.1,0.1,0.3,0.3,0.4,0.5l0.6,0.9H81l-0.5-0.7
			c-0.1-0.2-0.2-0.4-0.3-0.5c-0.1-0.1-0.2-0.2-0.2-0.2c-0.1,0-0.1-0.1-0.2-0.1c-0.1,0-0.1,0-0.3,0h-0.5v1.5H78.5z M78.9,107.9h1
			c0.2,0,0.4,0,0.5-0.1c0.1,0,0.2-0.1,0.3-0.2c0.1-0.1,0.1-0.2,0.1-0.3c0-0.2-0.1-0.3-0.2-0.4c-0.1-0.1-0.3-0.2-0.6-0.2h-1.1V107.9z
			"/>
		<path class="st3" d="M83.4,109.8v-3.4h1.3c0.3,0,0.5,0,0.6,0.1c0.2,0.1,0.3,0.2,0.4,0.3c0.1,0.1,0.1,0.3,0.1,0.5
			c0,0.1,0,0.3-0.1,0.4c-0.1,0.1-0.2,0.2-0.4,0.3c0.2,0.1,0.4,0.2,0.5,0.3c0.1,0.1,0.2,0.3,0.2,0.5c0,0.2,0,0.3-0.1,0.4
			c-0.1,0.1-0.2,0.2-0.3,0.3c-0.1,0.1-0.2,0.1-0.4,0.2c-0.2,0-0.3,0.1-0.6,0.1H83.4z M83.8,107.8h0.8c0.2,0,0.4,0,0.4,0
			c0.1,0,0.2-0.1,0.3-0.2c0.1-0.1,0.1-0.2,0.1-0.3c0-0.1,0-0.2-0.1-0.3c-0.1-0.1-0.1-0.1-0.2-0.2c-0.1,0-0.3,0-0.5,0h-0.7V107.8z
			 M83.8,109.4h0.9c0.1,0,0.3,0,0.3,0c0.1,0,0.2,0,0.3-0.1c0.1,0,0.1-0.1,0.2-0.2c0-0.1,0.1-0.2,0.1-0.3c0-0.1,0-0.2-0.1-0.3
			c-0.1-0.1-0.2-0.2-0.3-0.2c-0.1,0-0.3-0.1-0.5-0.1h-0.8V109.4z"/>
		<path class="st3" d="M86.8,109.8v-3.4h0.5v3.4H86.8z"/>
		<path class="st3" d="M87.9,108.1c0-0.6,0.2-1,0.5-1.3c0.3-0.3,0.7-0.5,1.2-0.5c0.3,0,0.6,0.1,0.9,0.2c0.3,0.2,0.5,0.4,0.6,0.6
			c0.1,0.3,0.2,0.6,0.2,0.9c0,0.3-0.1,0.7-0.2,0.9c-0.1,0.3-0.3,0.5-0.6,0.6c-0.3,0.1-0.6,0.2-0.9,0.2c-0.3,0-0.6-0.1-0.9-0.2
			c-0.3-0.2-0.5-0.4-0.6-0.6C88,108.7,87.9,108.4,87.9,108.1z M88.4,108.1c0,0.4,0.1,0.7,0.3,1c0.2,0.2,0.5,0.4,0.9,0.4
			c0.4,0,0.6-0.1,0.9-0.4c0.2-0.2,0.3-0.6,0.3-1c0-0.3,0-0.5-0.1-0.7c-0.1-0.2-0.2-0.4-0.4-0.5c-0.2-0.1-0.4-0.2-0.6-0.2
			c-0.3,0-0.6,0.1-0.9,0.3C88.5,107.2,88.4,107.6,88.4,108.1z"/>
		<path class="st3" d="M91.9,109.8v-3.4h2.6v0.4h-2.1v1h2v0.4h-2v1.2h2.2v0.4H91.9z"/>
		<path class="st3" d="M96.1,109.8v-3h-1.2v-0.4h2.8v0.4h-1.2v3H96.1z"/>
		<path class="st3" d="M98.2,109.8v-3.4h0.5v1.4h1.8v-1.4h0.5v3.4h-0.5v-1.6h-1.8v1.6H98.2z"/>
		<path class="st3" d="M101.8,109.8v-3.4h0.5v3.4H101.8z"/>
		<path class="st3" d="M105.6,108.6l0.5,0.1c-0.1,0.4-0.3,0.7-0.5,0.8c-0.3,0.2-0.6,0.3-0.9,0.3c-0.4,0-0.7-0.1-0.9-0.2
			c-0.2-0.2-0.4-0.4-0.5-0.7c-0.1-0.3-0.2-0.6-0.2-0.9c0-0.4,0.1-0.7,0.2-0.9c0.1-0.3,0.3-0.5,0.6-0.6c0.3-0.1,0.5-0.2,0.9-0.2
			c0.4,0,0.6,0.1,0.9,0.3c0.2,0.2,0.4,0.4,0.5,0.7l-0.5,0.1c-0.1-0.2-0.2-0.4-0.4-0.5c-0.2-0.1-0.4-0.2-0.6-0.2
			c-0.3,0-0.5,0.1-0.7,0.2c-0.2,0.1-0.3,0.3-0.4,0.5c-0.1,0.2-0.1,0.4-0.1,0.7c0,0.3,0,0.5,0.1,0.8c0.1,0.2,0.2,0.4,0.4,0.5
			c0.2,0.1,0.4,0.2,0.6,0.2c0.3,0,0.5-0.1,0.7-0.2C105.4,109.1,105.5,108.9,105.6,108.6z"/>
		<path class="st3" d="M106.5,108.7l0.4,0c0,0.2,0.1,0.3,0.1,0.4c0.1,0.1,0.2,0.2,0.4,0.3c0.2,0.1,0.3,0.1,0.5,0.1
			c0.2,0,0.3,0,0.5-0.1c0.1-0.1,0.2-0.1,0.3-0.2c0.1-0.1,0.1-0.2,0.1-0.3c0-0.1,0-0.2-0.1-0.3c-0.1-0.1-0.2-0.1-0.3-0.2
			c-0.1,0-0.3-0.1-0.6-0.2c-0.3-0.1-0.6-0.1-0.7-0.2c-0.2-0.1-0.3-0.2-0.4-0.3c-0.1-0.1-0.1-0.3-0.1-0.4c0-0.2,0-0.3,0.2-0.5
			c0.1-0.1,0.2-0.3,0.4-0.3c0.2-0.1,0.4-0.1,0.6-0.1c0.3,0,0.5,0,0.7,0.1c0.2,0.1,0.4,0.2,0.5,0.4c0.1,0.2,0.2,0.3,0.2,0.5l-0.4,0
			c0-0.2-0.1-0.4-0.2-0.5c-0.1-0.1-0.3-0.2-0.6-0.2c-0.3,0-0.5,0.1-0.6,0.2c-0.1,0.1-0.2,0.2-0.2,0.4c0,0.1,0,0.2,0.1,0.3
			c0.1,0.1,0.3,0.2,0.7,0.2c0.4,0.1,0.6,0.2,0.8,0.2c0.2,0.1,0.4,0.2,0.5,0.3c0.1,0.1,0.1,0.3,0.1,0.5c0,0.2-0.1,0.4-0.2,0.5
			c-0.1,0.2-0.3,0.3-0.5,0.4c-0.2,0.1-0.4,0.1-0.7,0.1c-0.3,0-0.6,0-0.8-0.1c-0.2-0.1-0.4-0.2-0.5-0.4
			C106.6,109.1,106.5,108.9,106.5,108.7z"/>
		<path class="st3" d="M111.3,109.8v-3.4h1.3c0.2,0,0.4,0,0.5,0c0.2,0,0.3,0.1,0.4,0.2c0.1,0.1,0.2,0.2,0.3,0.3
			c0.1,0.1,0.1,0.3,0.1,0.5c0,0.3-0.1,0.5-0.3,0.7c-0.2,0.2-0.5,0.3-1,0.3h-0.9v1.4H111.3z M111.8,108h0.9c0.3,0,0.5-0.1,0.6-0.2
			c0.1-0.1,0.2-0.3,0.2-0.5c0-0.1,0-0.3-0.1-0.4c-0.1-0.1-0.2-0.2-0.3-0.2c-0.1,0-0.2,0-0.4,0h-0.9V108z"/>
		<path class="st3" d="M114.5,108.1c0-0.6,0.2-1,0.5-1.3c0.3-0.3,0.7-0.5,1.2-0.5c0.3,0,0.6,0.1,0.9,0.2c0.3,0.2,0.5,0.4,0.6,0.6
			c0.1,0.3,0.2,0.6,0.2,0.9c0,0.3-0.1,0.7-0.2,0.9c-0.1,0.3-0.3,0.5-0.6,0.6c-0.3,0.1-0.6,0.2-0.9,0.2c-0.3,0-0.6-0.1-0.9-0.2
			c-0.3-0.2-0.5-0.4-0.6-0.6C114.5,108.7,114.5,108.4,114.5,108.1z M114.9,108.1c0,0.4,0.1,0.7,0.3,1c0.2,0.2,0.5,0.4,0.9,0.4
			c0.4,0,0.6-0.1,0.9-0.4c0.2-0.2,0.3-0.6,0.3-1c0-0.3,0-0.5-0.1-0.7c-0.1-0.2-0.2-0.4-0.4-0.5c-0.2-0.1-0.4-0.2-0.6-0.2
			c-0.3,0-0.6,0.1-0.9,0.3C115.1,107.2,114.9,107.6,114.9,108.1z"/>
		<path class="st3" d="M118.4,109.8v-3.4h0.5v3h1.7v0.4H118.4z"/>
		<path class="st3" d="M121.2,109.8v-3.4h0.5v3.4H121.2z"/>
		<path class="st3" d="M125.1,108.6l0.5,0.1c-0.1,0.4-0.3,0.7-0.5,0.8c-0.3,0.2-0.6,0.3-0.9,0.3c-0.4,0-0.7-0.1-0.9-0.2
			c-0.2-0.2-0.4-0.4-0.5-0.7c-0.1-0.3-0.2-0.6-0.2-0.9c0-0.4,0.1-0.7,0.2-0.9c0.1-0.3,0.3-0.5,0.6-0.6c0.3-0.1,0.5-0.2,0.9-0.2
			c0.4,0,0.6,0.1,0.9,0.3c0.2,0.2,0.4,0.4,0.5,0.7l-0.5,0.1c-0.1-0.2-0.2-0.4-0.4-0.5c-0.2-0.1-0.4-0.2-0.6-0.2
			c-0.3,0-0.5,0.1-0.7,0.2c-0.2,0.1-0.3,0.3-0.4,0.5c-0.1,0.2-0.1,0.4-0.1,0.7c0,0.3,0,0.5,0.1,0.8c0.1,0.2,0.2,0.4,0.4,0.5
			c0.2,0.1,0.4,0.2,0.6,0.2c0.3,0,0.5-0.1,0.7-0.2C124.9,109.1,125,108.9,125.1,108.6z"/>
		<path class="st3" d="M127.1,109.8v-1.4l-1.4-2h0.6l0.7,1c0.1,0.2,0.2,0.4,0.4,0.6c0.1-0.2,0.2-0.4,0.4-0.6l0.7-1h0.5l-1.4,2v1.4
			H127.1z"/>
	</g>
	<g>
		<path class="st3" d="M23.1,92.9c0,0.2,0,0.4,0,0.7c0,0.3,0,0.6-0.1,0.9c0,0.3-0.1,0.6-0.1,0.9c0,0.3-0.1,0.6-0.2,0.9h2
			c0,0,0.1,0,0.1,0.1c0,0,0.1,0.1,0.1,0.1v0.9c0,0,0,0.1-0.1,0.1c0,0-0.1,0.1-0.1,0.1h-5.3v2h2.7c0.4,0,0.6,0.1,0.7,0.2
			c0.1,0.1,0.2,0.4,0.2,0.8v3.6c0,0,0,0.1-0.1,0.1c0,0-0.1,0.1-0.1,0.1h-1.2c-0.1,0-0.1,0-0.1-0.1c0,0-0.1-0.1-0.1-0.1v-3.1
			c0-0.1,0-0.1-0.1-0.2c0,0-0.1,0-0.2,0h-6.8c0,0-0.1,0-0.1,0c0,0-0.1-0.1-0.1-0.1v-1c0-0.1,0-0.1,0.1-0.1c0,0,0.1,0,0.1,0h3.5v-2
			h-5.1c-0.1,0-0.1,0-0.1-0.1c0,0-0.1-0.1-0.1-0.1v-0.9c0-0.1,0.1-0.2,0.2-0.2h8.5c0.1-0.4,0.2-0.9,0.2-1.4c0.1-0.5,0.1-1,0.1-1.5
			c0-0.1,0-0.2-0.1-0.2c-0.1,0-0.2,0-0.3,0h-6.4c0,0-0.1,0-0.1-0.1c0,0-0.1-0.1-0.1-0.1v-0.9c0-0.1,0-0.1,0.1-0.1c0,0,0.1,0,0.1,0
			h7.5c0.3,0,0.5,0.1,0.7,0.2C23,92.4,23.1,92.6,23.1,92.9z"/>
		<path class="st3" d="M32.6,93.8c-0.1,0.8-0.2,1.6-0.5,2.4c-0.3,0.8-0.7,1.5-1.1,2.1c-0.5,0.7-1.1,1.3-1.8,1.9
			c-0.7,0.6-1.5,1.1-2.3,1.6c-0.1,0-0.2,0.1-0.2,0c-0.1,0-0.1,0-0.2-0.1l-0.6-0.7c0-0.1-0.1-0.1,0-0.2c0-0.1,0.1-0.1,0.1-0.2
			c1.4-0.7,2.5-1.6,3.3-2.7c0.8-1.1,1.4-2.2,1.5-3.4c0-0.2,0-0.3,0-0.4c-0.1-0.1-0.2-0.1-0.3-0.1h-3.9c-0.1,0-0.2-0.1-0.2-0.2v-0.9
			c0-0.1,0.1-0.2,0.2-0.2h5c0.4,0,0.7,0.1,0.8,0.2C32.5,93.2,32.6,93.4,32.6,93.8z M38.1,97.9c0,0-0.1,0.1-0.1,0.1h-1.9v6.4
			c0,0.1-0.1,0.2-0.2,0.2h-1.2c-0.1,0-0.2-0.1-0.2-0.2V91.9c0-0.1,0.1-0.2,0.2-0.2h1.2c0.1,0,0.2,0.1,0.2,0.2v4.7H38
			c0.1,0,0.1,0,0.1,0c0,0,0.1,0.1,0.1,0.1v0.9C38.2,97.8,38.2,97.8,38.1,97.9z"/>
		<path class="st3" d="M39.8,98.7c-0.1,0-0.2,0.1-0.2,0.1c-0.1,0-0.2,0-0.2-0.1l-0.5-0.6c-0.1-0.1-0.1-0.3,0.1-0.4
			c0.5-0.4,1-0.7,1.3-1.2c0.3-0.4,0.6-0.8,0.8-1.3c0.2-0.4,0.4-0.9,0.4-1.4c0.1-0.5,0.1-1,0.1-1.5c0-0.1,0-0.1,0.1-0.2
			c0,0,0.1-0.1,0.1-0.1l1.2,0.1c0.1,0,0.2,0.1,0.2,0.2c0,0.7-0.1,1.4-0.2,2c0.2,0.5,0.5,1,0.9,1.5c0.4,0.5,0.9,0.9,1.4,1.2
			c0.1,0,0.1,0.1,0.1,0.1c0,0,0,0.1-0.1,0.2l-0.5,0.7c-0.1,0.1-0.2,0.2-0.4,0.1c-0.4-0.2-0.8-0.5-1.2-0.9c-0.4-0.4-0.7-0.8-1-1.2
			c-0.3,0.5-0.6,1-1,1.4C40.8,98,40.3,98.3,39.8,98.7z M50.4,101.9c0,0.4-0.1,0.7-0.4,1c-0.2,0.3-0.6,0.6-1,0.8
			c-0.4,0.2-0.9,0.4-1.4,0.5c-0.5,0.1-1.1,0.2-1.7,0.2c-0.6,0-1.2-0.1-1.8-0.2c-0.5-0.1-1-0.3-1.4-0.5c-0.4-0.2-0.7-0.5-0.9-0.8
			c-0.2-0.3-0.3-0.7-0.3-1c0-0.4,0.1-0.7,0.3-1c0.2-0.3,0.5-0.6,0.9-0.8c0.4-0.2,0.9-0.4,1.4-0.5c0.5-0.1,1.1-0.2,1.8-0.2
			c0.6,0,1.2,0.1,1.7,0.2c0.5,0.1,1,0.3,1.4,0.5c0.4,0.2,0.7,0.5,1,0.8C50.2,101.2,50.4,101.5,50.4,101.9z M48.7,102
			c0-0.2-0.1-0.4-0.3-0.6c-0.2-0.2-0.4-0.3-0.7-0.4c-0.3-0.1-0.6-0.2-0.9-0.3c-0.3-0.1-0.7-0.1-1-0.1c-0.4,0-0.7,0-1.1,0.1
			c-0.3,0.1-0.6,0.1-0.9,0.3c-0.3,0.1-0.5,0.2-0.6,0.4c-0.2,0.2-0.2,0.4-0.2,0.6c0,0.2,0.1,0.4,0.2,0.6c0.2,0.2,0.4,0.3,0.6,0.4
			c0.3,0.1,0.6,0.2,0.9,0.2c0.3,0.1,0.7,0.1,1.1,0.1c0.3,0,0.7,0,1-0.1c0.3-0.1,0.6-0.1,0.9-0.2c0.3-0.1,0.5-0.2,0.7-0.4
			C48.7,102.4,48.7,102.2,48.7,102z M48.7,91.9c0-0.1,0.1-0.2,0.2-0.2h1.2c0.1,0,0.2,0.1,0.2,0.2v7.2c0,0.1-0.1,0.2-0.2,0.2h-1.2
			c-0.1,0-0.2-0.1-0.2-0.2v-2.8h-1.2v2.4c0,0.1-0.1,0.2-0.2,0.2h-1.1c-0.1,0-0.2-0.1-0.2-0.2v-6.6c0-0.1,0.1-0.2,0.2-0.2h1.1
			c0.1,0,0.2,0.1,0.2,0.2V95h1.2V91.9z"/>
		<path class="st3" d="M58.5,98.3c-0.1,0.1-0.4,0.2-0.7,0.2h-4.1c-0.4,0-0.7-0.1-0.8-0.2c-0.1-0.1-0.2-0.4-0.2-0.7v-4.4
			c0-0.3,0.1-0.6,0.2-0.7c0.1-0.1,0.4-0.2,0.7-0.2h4.2c0.4,0,0.6,0.1,0.7,0.2c0.1,0.1,0.2,0.4,0.2,0.7v0.4h2.4v-1.6
			c0-0.1,0.1-0.2,0.2-0.2h1.2c0.1,0,0.2,0.1,0.2,0.2v7.1c0,0.1-0.1,0.2-0.2,0.2h-1.2c-0.1,0-0.2-0.1-0.2-0.2v-1.7h-2.4v0.2
			C58.7,97.9,58.7,98.2,58.5,98.3z M57.2,93.7c0-0.1,0-0.1,0-0.2c0,0-0.1,0-0.1,0h-2.6c-0.1,0-0.1,0-0.1,0c0,0,0,0.1,0,0.1v3.4
			c0,0.1,0,0.1,0,0.1c0,0,0.1,0,0.1,0H57c0.1,0,0.1,0,0.1,0c0,0,0-0.1,0-0.1V93.7z M62.8,101.9c0,0.4-0.1,0.7-0.3,1
			c-0.2,0.3-0.5,0.6-0.9,0.8c-0.4,0.2-0.8,0.4-1.3,0.5c-0.5,0.1-1.1,0.2-1.7,0.2c-0.6,0-1.2-0.1-1.7-0.2c-0.5-0.1-0.9-0.3-1.3-0.5
			c-0.4-0.2-0.6-0.5-0.8-0.8c-0.2-0.3-0.3-0.7-0.3-1c0-0.4,0.1-0.7,0.3-1c0.2-0.3,0.5-0.6,0.8-0.8c0.4-0.2,0.8-0.4,1.3-0.5
			c0.5-0.1,1.1-0.2,1.7-0.2c0.6,0,1.2,0.1,1.7,0.2c0.5,0.1,0.9,0.3,1.3,0.5c0.4,0.2,0.7,0.5,0.9,0.8
			C62.7,101.2,62.8,101.5,62.8,101.9z M61.1,102c0-0.2-0.1-0.4-0.2-0.6c-0.1-0.2-0.3-0.3-0.5-0.4c-0.2-0.1-0.5-0.2-0.8-0.3
			c-0.3-0.1-0.6-0.1-1-0.1c-0.7,0-1.3,0.1-1.8,0.3c-0.5,0.2-0.7,0.6-0.7,1c0,0.4,0.2,0.7,0.7,1c0.5,0.2,1.1,0.3,1.8,0.3
			c0.3,0,0.7,0,1-0.1c0.3-0.1,0.6-0.1,0.8-0.2c0.2-0.1,0.4-0.2,0.5-0.4C61.1,102.4,61.1,102.2,61.1,102z M61.1,96.2v-1.4h-2.4v1.4
			H61.1z"/>
		<path class="st3" d="M76.9,99.1c0,0.1-0.1,0.1-0.1,0.1h-3.2v2.4c0,0.1-0.1,0.2-0.2,0.2h-1.2c-0.1,0-0.2-0.1-0.2-0.2v-2.4h-1.9v2.4
			c0,0.1-0.1,0.2-0.2,0.2h-1.2c-0.1,0-0.2-0.1-0.2-0.2v-2.4h-3.8c-0.1,0-0.1,0-0.1-0.1c0-0.1-0.1-0.1-0.1-0.1V98
			c0-0.1,0-0.1,0.1-0.1c0,0,0.1-0.1,0.1-0.1h12c0,0,0.1,0,0.1,0.1C77,98,77,98,77,98v0.9C77,99,77,99,76.9,99.1z M75.4,104.1
			c0,0-0.1,0-0.1,0h-7.9c-0.4,0-0.7-0.1-0.8-0.2c-0.1-0.1-0.2-0.4-0.2-0.7v-2.8c0,0,0-0.1,0.1-0.1c0,0,0.1-0.1,0.1-0.1h1.2
			c0.1,0,0.1,0,0.1,0.1c0,0,0.1,0.1,0.1,0.1v2.3c0,0.1,0,0.1,0.1,0.2c0,0,0.1,0,0.2,0h7.1c0,0,0.1,0,0.1,0c0,0,0.1,0.1,0.1,0.1v1
			C75.5,104,75.5,104.1,75.4,104.1z M70.8,96.8c-0.6,0-1.2-0.1-1.8-0.2c-0.5-0.1-1-0.3-1.4-0.5c-0.4-0.2-0.7-0.5-0.9-0.8
			c-0.2-0.3-0.3-0.6-0.3-1c0-0.4,0.1-0.7,0.3-1c0.2-0.3,0.5-0.6,0.9-0.8c0.4-0.2,0.8-0.4,1.4-0.5c0.5-0.1,1.1-0.2,1.8-0.2
			s1.2,0.1,1.8,0.2c0.5,0.1,1,0.3,1.4,0.5c0.4,0.2,0.7,0.5,0.9,0.8c0.2,0.3,0.3,0.7,0.3,1c0,0.4-0.1,0.7-0.3,1
			c-0.2,0.3-0.5,0.6-0.9,0.8c-0.4,0.2-0.8,0.4-1.4,0.5C72,96.8,71.4,96.8,70.8,96.8z M70.8,93.2c-0.4,0-0.8,0-1.1,0.1
			c-0.3,0.1-0.6,0.1-0.9,0.3c-0.2,0.1-0.4,0.2-0.6,0.4c-0.1,0.2-0.2,0.3-0.2,0.5c0,0.2,0.1,0.3,0.2,0.5c0.1,0.2,0.3,0.3,0.6,0.4
			c0.2,0.1,0.5,0.2,0.9,0.2c0.3,0.1,0.7,0.1,1.1,0.1c0.4,0,0.8,0,1.1-0.1c0.3-0.1,0.6-0.1,0.9-0.2c0.2-0.1,0.4-0.2,0.6-0.4
			c0.1-0.2,0.2-0.3,0.2-0.5c0-0.2-0.1-0.3-0.2-0.5c-0.1-0.2-0.3-0.3-0.6-0.4c-0.2-0.1-0.5-0.2-0.9-0.3
			C71.5,93.2,71.2,93.2,70.8,93.2z"/>
		<path class="st3" d="M86.1,100.8c-0.1,0-0.1,0.1-0.2,0.1c-0.3,0.1-0.6,0.1-0.9,0.2c-0.3,0-0.7,0.1-1.1,0.1c-0.4,0-0.8,0.1-1.2,0.1
			s-0.8,0-1.1,0.1c-0.4,0-0.7,0-1,0s-0.6,0-0.8,0c-0.4,0-0.7-0.1-0.8-0.3c-0.2-0.1-0.2-0.4-0.2-0.7v-3.2c0-0.3,0.1-0.6,0.2-0.7
			c0.2-0.1,0.4-0.2,0.7-0.2H83c0.1,0,0.1,0,0.2,0c0,0,0-0.1,0-0.2v-1.9c0-0.1,0-0.1,0-0.1c0,0-0.1,0-0.2,0h-4c0,0-0.1,0-0.1-0.1
			c0,0-0.1-0.1-0.1-0.1v-0.9c0,0,0-0.1,0.1-0.1c0,0,0.1,0,0.1,0h4.8c0.4,0,0.7,0.1,0.8,0.2c0.1,0.1,0.2,0.4,0.2,0.7v3
			c0,0.3-0.1,0.6-0.2,0.7c-0.1,0.1-0.4,0.2-0.8,0.2h-3.3c-0.1,0-0.2,0.1-0.2,0.2v2.1c0,0.1,0,0.2,0.1,0.2c0,0,0.1,0,0.2,0
			c0.4,0,0.8,0,1.3,0c0.4,0,0.9,0,1.3-0.1c0.5,0,0.9-0.1,1.3-0.1c0.4-0.1,0.8-0.1,1.2-0.2c0.1,0,0.1,0,0.2,0c0.1,0,0.1,0.1,0.1,0.2
			l0.1,0.8C86.2,100.7,86.1,100.8,86.1,100.8z M88.7,104.3c0,0.1-0.1,0.2-0.2,0.2h-1.2c-0.1,0-0.2-0.1-0.2-0.2V91.9
			c0-0.1,0.1-0.2,0.2-0.2h1.2c0.1,0,0.2,0.1,0.2,0.2V104.3z"/>
		<path class="st3" d="M91.7,99.2c-0.1,0-0.2-0.1-0.2-0.2l-0.4-0.7c0-0.1-0.1-0.1,0-0.2c0-0.1,0.1-0.1,0.2-0.2
			c0.5-0.2,1-0.5,1.5-0.8c0.5-0.3,0.9-0.6,1.3-1c0.4-0.3,0.7-0.7,1-1.1c0.3-0.4,0.5-0.7,0.6-1.1c0-0.1,0.1-0.2,0-0.2
			c0-0.1-0.1-0.1-0.2-0.1H92c-0.1,0-0.1,0-0.1-0.1c0,0-0.1-0.1-0.1-0.1v-0.9c0-0.1,0-0.1,0.1-0.1c0,0,0.1-0.1,0.1-0.1h4.4
			c0.4,0,0.7,0.1,0.9,0.2c0.2,0.1,0.3,0.4,0.2,0.7c0,0.1,0,0.2-0.1,0.3c0,0.1-0.1,0.2-0.1,0.3c-0.1,0.3-0.3,0.6-0.4,0.9
			c-0.2,0.3-0.4,0.6-0.6,0.9c0.2,0.2,0.3,0.3,0.6,0.5c0.2,0.2,0.4,0.3,0.6,0.5c0.2,0.1,0.4,0.3,0.6,0.4c0.2,0.1,0.4,0.2,0.6,0.3
			c0.2,0.1,0.2,0.2,0.1,0.4l-0.4,0.7c-0.1,0.2-0.2,0.2-0.4,0.1c-0.2-0.1-0.4-0.2-0.6-0.3c-0.2-0.1-0.4-0.3-0.7-0.4
			c-0.2-0.2-0.5-0.3-0.7-0.5c-0.2-0.2-0.4-0.4-0.6-0.6c-0.5,0.5-1,0.9-1.6,1.3c-0.6,0.4-1.2,0.8-1.9,1.1
			C91.9,99.2,91.8,99.2,91.7,99.2z M101.5,103c-0.2,0.3-0.5,0.6-0.9,0.8c-0.4,0.2-0.8,0.4-1.3,0.5c-0.5,0.1-1.1,0.2-1.6,0.2
			c-0.6,0-1.2-0.1-1.7-0.2c-0.5-0.1-0.9-0.3-1.3-0.5c-0.4-0.2-0.6-0.5-0.8-0.8c-0.2-0.3-0.3-0.7-0.3-1c0-0.4,0.1-0.7,0.3-1
			c0.2-0.3,0.5-0.6,0.8-0.8c0.4-0.2,0.8-0.4,1.3-0.5c0.5-0.1,1.1-0.2,1.7-0.2c0.6,0,1.1,0.1,1.6,0.2c0.5,0.1,0.9,0.3,1.3,0.5
			c0.4,0.2,0.7,0.5,0.9,0.8c0.2,0.3,0.3,0.7,0.3,1C101.8,102.3,101.7,102.6,101.5,103z M99.9,101.4c-0.1-0.2-0.3-0.3-0.5-0.4
			c-0.2-0.1-0.5-0.2-0.8-0.3c-0.3-0.1-0.6-0.1-1-0.1c-0.7,0-1.3,0.1-1.8,0.3c-0.5,0.2-0.7,0.6-0.7,1c0,0.2,0.1,0.4,0.2,0.6
			c0.1,0.2,0.3,0.3,0.5,0.4c0.2,0.1,0.5,0.2,0.8,0.2c0.3,0.1,0.6,0.1,1,0.1c0.3,0,0.7,0,1-0.1c0.3-0.1,0.6-0.1,0.8-0.2
			c0.2-0.1,0.4-0.2,0.5-0.4c0.1-0.2,0.2-0.3,0.2-0.6C100.1,101.7,100.1,101.5,99.9,101.4z M97.7,95.9v-0.9c0,0,0-0.1,0.1-0.1
			c0,0,0.1,0,0.1,0h2.2v-2.8c0-0.1,0.1-0.2,0.2-0.2h1.2c0.1,0,0.2,0.1,0.2,0.2V99c0,0.1-0.1,0.2-0.2,0.2h-1.2
			c-0.1,0-0.2-0.1-0.2-0.2v-3h-2.2c0,0-0.1,0-0.1,0C97.7,95.9,97.7,95.9,97.7,95.9z"/>
		<path class="st3" d="M104.8,99.4c0,0-0.1,0-0.2,0c-0.1,0-0.1,0-0.2-0.1l-0.4-0.6c0-0.1-0.1-0.1,0-0.2c0-0.1,0.1-0.1,0.2-0.2
			c0.4-0.2,0.8-0.4,1.1-0.6c0.4-0.2,0.7-0.5,1.1-0.8c0.3-0.3,0.6-0.5,0.9-0.8c0.3-0.3,0.4-0.5,0.5-0.7c0-0.1,0-0.1,0.1-0.2
			c0,0,0-0.1-0.2-0.1h-2.9c-0.1,0-0.1,0-0.1-0.1c0,0,0-0.1,0-0.2v-0.8c0-0.1,0.1-0.2,0.2-0.2h3.9c0.4,0,0.6,0,0.8,0.1
			c0.2,0.1,0.3,0.2,0.3,0.5c0,0.1,0,0.2-0.1,0.3c0,0.1-0.1,0.2-0.1,0.3c-0.1,0.2-0.2,0.4-0.4,0.7c-0.2,0.2-0.3,0.5-0.6,0.7
			c0.3,0.3,0.6,0.5,0.9,0.7c0.3,0.2,0.6,0.4,0.9,0.6c0.2,0.1,0.2,0.2,0.1,0.3L110,99c0,0-0.1,0.1-0.2,0.1c-0.1,0-0.1,0-0.2,0
			c-0.3-0.2-0.6-0.4-1-0.6c-0.3-0.3-0.7-0.5-1-0.8c-0.4,0.4-0.9,0.7-1.4,1C105.8,98.9,105.3,99.2,104.8,99.4z M108.7,93.2
			c0,0-0.1,0.1-0.2,0.1h-2.9c0,0-0.1,0-0.1-0.1c-0.1,0-0.1-0.1-0.1-0.1v-0.7c0-0.1,0-0.1,0.1-0.2c0.1,0,0.1-0.1,0.1-0.1h2.9
			c0.1,0,0.1,0,0.2,0.1c0,0.1,0.1,0.1,0.1,0.2v0.7C108.8,93.1,108.8,93.2,108.7,93.2z M115.2,104.4c0,0-0.1,0.1-0.1,0.1h-1.2
			c-0.1,0-0.1,0-0.1-0.1c0,0-0.1-0.1-0.1-0.1v-2.7c0-0.1,0-0.1-0.1-0.2c0,0-0.1,0-0.2,0h-6.9c0,0-0.1,0-0.1,0c0,0-0.1-0.1-0.1-0.1
			v-1c0-0.1,0-0.1,0.1-0.1c0,0,0.1,0,0.1,0h7.8c0.4,0,0.6,0.1,0.7,0.2c0.1,0.1,0.2,0.4,0.2,0.7v3.3
			C115.3,104.3,115.2,104.3,115.2,104.4z M113.7,91.9c0-0.1,0.1-0.2,0.2-0.2h1.2c0.1,0,0.2,0.1,0.2,0.2v7.4c0,0.1-0.1,0.2-0.2,0.2
			h-1.2c-0.1,0-0.2-0.1-0.2-0.2v-2.9h-1.2v2.8c0,0.1-0.1,0.2-0.2,0.2h-1.1c-0.1,0-0.2-0.1-0.2-0.2v-7.1c0-0.1,0.1-0.2,0.2-0.2h1.1
			c0.1,0,0.2,0.1,0.2,0.2v3h1.2V91.9z"/>
		<path class="st3" d="M125.9,98.2c0,0-0.1,0.1-0.1,0.1c-0.3,0-0.5,0.1-0.9,0.1c-0.3,0-0.6,0.1-1,0.1c-0.3,0-0.7,0.1-1,0.1
			c-0.3,0-0.6,0-0.9,0v1.9c0,0.1,0,0.1-0.1,0.1c0,0-0.1,0.1-0.1,0.1h-1.1c-0.1,0-0.1,0-0.1-0.1c0,0-0.1-0.1-0.1-0.1v-1.8
			c-0.3,0-0.6,0-0.8,0c-0.3,0-0.6,0-0.8,0c-0.3,0-0.5,0-0.8,0c-0.2,0-0.5,0-0.6,0c-0.1,0-0.1,0-0.1-0.1c0,0-0.1-0.1-0.1-0.1v-0.8
			c0-0.1,0-0.1,0.1-0.1c0,0,0.1-0.1,0.1-0.1c0.6,0,1.3,0,2.1,0c0.8,0,1.5,0,2.2-0.1c0.7,0,1.5-0.1,2.2-0.1c0.7-0.1,1.3-0.1,1.8-0.2
			c0,0,0.1,0,0.1,0c0.1,0,0.1,0.1,0.1,0.1l0.1,0.8C125.9,98.2,125.9,98.2,125.9,98.2z M121.3,91.9c0.5,0,0.9,0.1,1.3,0.2
			c0.4,0.1,0.7,0.3,1,0.5c0.3,0.2,0.5,0.5,0.7,0.8c0.2,0.3,0.2,0.6,0.2,0.9c0,0.3-0.1,0.7-0.2,1c-0.2,0.3-0.4,0.6-0.7,0.8
			c-0.3,0.2-0.6,0.4-1,0.5c-0.4,0.1-0.8,0.2-1.3,0.2c-0.5,0-0.9-0.1-1.3-0.2c-0.4-0.1-0.7-0.3-1-0.5c-0.3-0.2-0.5-0.5-0.6-0.8
			c-0.2-0.3-0.2-0.6-0.2-1c0-0.3,0.1-0.6,0.2-0.9c0.2-0.3,0.4-0.6,0.6-0.8c0.3-0.2,0.6-0.4,1-0.5C120.4,92,120.9,91.9,121.3,91.9z
			 M128.2,104.2c0,0-0.1,0-0.1,0h-7.8c-0.4,0-0.7-0.1-0.8-0.2c-0.1-0.1-0.2-0.4-0.2-0.7v-1.9c0,0,0-0.1,0.1-0.1c0,0,0.1-0.1,0.1-0.1
			h1.2c0.1,0,0.1,0,0.1,0.1c0,0,0.1,0.1,0.1,0.1v1.4c0,0.1,0,0.1,0.1,0.2c0,0,0.1,0,0.2,0h7.1c0,0,0.1,0,0.1,0.1
			c0,0,0.1,0.1,0.1,0.1v1C128.3,104.1,128.3,104.2,128.2,104.2z M121.3,93.1c-0.2,0-0.4,0-0.6,0.1c-0.2,0.1-0.4,0.2-0.5,0.3
			c-0.1,0.1-0.3,0.2-0.4,0.4c-0.1,0.2-0.1,0.3-0.1,0.5c0,0.2,0,0.4,0.1,0.5c0.1,0.2,0.2,0.3,0.4,0.4c0.1,0.1,0.3,0.2,0.5,0.3
			c0.2,0.1,0.4,0.1,0.6,0.1c0.2,0,0.4,0,0.6-0.1c0.2-0.1,0.4-0.2,0.5-0.3c0.2-0.1,0.3-0.2,0.4-0.4c0.1-0.2,0.1-0.3,0.1-0.5
			c0-0.2,0-0.3-0.1-0.5c-0.1-0.2-0.2-0.3-0.4-0.4c-0.2-0.1-0.3-0.2-0.5-0.3C121.8,93.1,121.6,93.1,121.3,93.1z M127.8,101.8h-1.2
			c-0.1,0-0.2-0.1-0.2-0.2v-1.2H124c0,0-0.1,0-0.1-0.1c0,0-0.1-0.1-0.1-0.1v-0.8c0,0,0-0.1,0.1-0.1c0,0,0.1,0,0.1,0h2.4v-7.2
			c0-0.1,0.1-0.2,0.2-0.2h1.2c0.1,0,0.2,0.1,0.2,0.2v9.6C128,101.7,127.9,101.8,127.8,101.8z"/>
	</g>
	<g>
		<path class="st3" d="M0.4,96.1C0.4,96.1,0.4,96.1,0.4,96.1c-0.1,0-0.2,0-0.2,0L0,95.8c0,0,0-0.1,0-0.1c0,0,0-0.1,0.1-0.1
			c0.2-0.2,0.5-0.3,0.7-0.5c0.2-0.2,0.4-0.4,0.5-0.6c0.2-0.2,0.3-0.4,0.4-0.7c0.1-0.2,0.2-0.4,0.2-0.6c0-0.1,0-0.1,0-0.1
			c0,0,0,0-0.1,0H0.4c0,0,0,0,0,0c0,0,0,0,0-0.1v-0.4c0-0.1,0-0.1,0.1-0.1h1.6c0.2,0,0.3,0,0.4,0.1c0.1,0.1,0.1,0.1,0.1,0.2
			c0,0,0,0.1,0,0.1c0,0,0,0.1,0,0.1c0,0.2-0.1,0.4-0.2,0.6c-0.1,0.2-0.2,0.4-0.3,0.6c0.1,0.1,0.1,0.2,0.2,0.3
			c0.1,0.1,0.2,0.2,0.2,0.3c0.1,0.1,0.2,0.2,0.3,0.3c0.1,0.1,0.2,0.1,0.2,0.2c0,0,0.1,0.1,0.1,0.1c0,0,0,0.1,0,0.1l-0.2,0.3
			c-0.1,0.1-0.1,0.1-0.2,0c-0.1,0-0.1-0.1-0.2-0.2c-0.1-0.1-0.2-0.1-0.2-0.2c-0.1-0.1-0.2-0.2-0.2-0.3c-0.1-0.1-0.1-0.2-0.2-0.3
			C1.4,95.3,0.9,95.7,0.4,96.1z M4.4,92.1C4.4,92,4.4,92,4.4,92.1L5,92c0.1,0,0.1,0,0.1,0.1v5.3c0,0,0,0.1-0.1,0.1H4.5
			c-0.1,0-0.1,0-0.1-0.1v-2.7H3.9v2.5c0,0,0,0,0,0.1c0,0,0,0-0.1,0H3.3c0,0,0,0-0.1,0c0,0,0,0,0-0.1v-5c0,0,0,0,0-0.1c0,0,0,0,0.1,0
			h0.5c0,0,0,0,0.1,0c0,0,0,0,0,0.1v1.9h0.5V92.1z"/>
		<path class="st3" d="M9.1,94.8C9.1,94.8,9.1,94.8,9.1,94.8c-0.2,0.1-0.4,0.1-0.6,0.1c-0.2,0-0.4,0.1-0.7,0.1c-0.2,0-0.5,0-0.7,0
			c-0.2,0-0.5,0-0.6,0c-0.1,0-0.2,0-0.3-0.1c-0.1-0.1-0.1-0.2-0.1-0.3v-1.9c0-0.1,0-0.2,0.1-0.3c0.1-0.1,0.2-0.1,0.3-0.1h2.1
			c0.1,0,0.1,0,0.1,0.1v0.4c0,0.1,0,0.1-0.1,0.1H6.8c-0.1,0-0.1,0-0.1,0.1v1.3c0,0.1,0,0.1,0,0.1c0,0,0.1,0,0.1,0c0.1,0,0.3,0,0.4,0
			c0.2,0,0.3,0,0.5,0c0.2,0,0.4,0,0.6-0.1c0.2,0,0.4,0,0.5-0.1c0.1,0,0.1,0,0.1,0.1L9.1,94.8C9.2,94.7,9.1,94.8,9.1,94.8z
			 M10.3,97.3C10.3,97.3,10.3,97.3,10.3,97.3l-3.2,0c-0.2,0-0.3,0-0.4-0.1c-0.1-0.1-0.1-0.2-0.1-0.3v-1.2c0,0,0,0,0-0.1
			c0,0,0,0,0.1,0h0.5c0,0,0,0,0.1,0c0,0,0,0,0,0.1v1c0,0,0,0.1,0,0.1c0,0,0,0,0.1,0h2.8c0,0,0,0,0.1,0c0,0,0,0,0,0.1L10.3,97.3
			C10.3,97.3,10.3,97.3,10.3,97.3z M11,94.3C11,94.3,10.9,94.3,11,94.3l-0.9,0v1.5c0,0.1,0,0.1-0.1,0.1H9.5c-0.1,0-0.1,0-0.1-0.1
			v-3.7c0-0.1,0-0.1,0.1-0.1H10c0.1,0,0.1,0,0.1,0.1v1.7h0.8c0,0,0,0,0.1,0c0,0,0,0,0,0L11,94.3C11,94.3,11,94.3,11,94.3z"/>
		<path class="st3" d="M3,101.5c-0.1,0.1-0.2,0.1-0.3,0.1H1c-0.2,0-0.3,0-0.4-0.1c-0.1-0.1-0.1-0.2-0.1-0.3v-2.1c0,0,0-0.1,0.1-0.1
			h0.5c0,0,0,0,0.1,0c0,0,0,0,0,0.1v0.7h1.3v-0.7c0,0,0,0,0-0.1c0,0,0,0,0.1,0h0.5c0,0,0,0,0.1,0c0,0,0,0,0,0.1v1h1V99
			c0,0,0,0,0-0.1c0,0,0,0,0.1,0h0.5c0,0,0.1,0,0.1,0.1v2.7c0,0.1,0,0.1-0.1,0.1H4.2c-0.1,0-0.1,0-0.1-0.1v-1.1h-1v0.6
			C3.1,101.3,3.1,101.4,3,101.5z M2.5,100.4H1.2v0.6c0,0.1,0,0.1,0.1,0.1h1c0.1,0,0.1,0,0.1-0.1V100.4z M4.7,104.1
			c-0.1,0.1-0.2,0.1-0.3,0.1H1.8c-0.2,0-0.3,0-0.4-0.1c-0.1-0.1-0.1-0.2-0.1-0.3v-1.7c0,0,0,0,0,0c0,0,0,0,0.1,0h0.5c0,0,0,0,0.1,0
			c0,0,0,0,0,0v0.5h2.1v-0.5c0,0,0,0,0-0.1c0,0,0,0,0.1,0h0.5c0,0,0,0,0.1,0c0,0,0,0,0,0.1v1.7C4.8,104,4.8,104.1,4.7,104.1z
			 M4.1,103.2H2v0.4c0,0.1,0,0.1,0.1,0.1H4c0.1,0,0.1,0,0.1-0.1V103.2z"/>
		<path class="st3" d="M8.8,100.5c0,0.2,0,0.4-0.1,0.5c-0.1,0.2-0.2,0.3-0.3,0.4c-0.1,0.1-0.3,0.2-0.5,0.3c-0.2,0.1-0.4,0.1-0.6,0.1
			c-0.2,0-0.4,0-0.6-0.1c-0.2-0.1-0.3-0.2-0.5-0.3c-0.1-0.1-0.2-0.3-0.3-0.4c-0.1-0.2-0.1-0.3-0.1-0.5c0-0.2,0-0.4,0.1-0.5
			c0.1-0.2,0.2-0.3,0.3-0.4c0.1-0.1,0.3-0.2,0.5-0.3c0.2-0.1,0.4-0.1,0.6-0.1c0.2,0,0.4,0,0.6,0.1c0.2,0.1,0.3,0.2,0.5,0.3
			c0.1,0.1,0.2,0.3,0.3,0.4C8.8,100.1,8.8,100.3,8.8,100.5z M8.1,100.5c0-0.1,0-0.2-0.1-0.3c0-0.1-0.1-0.2-0.2-0.3
			c-0.1-0.1-0.2-0.1-0.2-0.2c-0.1,0-0.2-0.1-0.3-0.1c-0.1,0-0.2,0-0.3,0.1c-0.1,0-0.2,0.1-0.2,0.2c-0.1,0.1-0.1,0.2-0.2,0.3
			c0,0.1-0.1,0.2-0.1,0.3c0,0.1,0,0.2,0.1,0.3c0,0.1,0.1,0.2,0.2,0.3c0.1,0.1,0.1,0.1,0.2,0.2c0.1,0,0.2,0.1,0.3,0.1
			c0.1,0,0.2,0,0.3-0.1c0.1,0,0.2-0.1,0.2-0.2c0.1-0.1,0.1-0.2,0.2-0.3C8.1,100.7,8.1,100.6,8.1,100.5z M10.5,104.2
			C10.4,104.2,10.4,104.2,10.5,104.2l-3.1,0c-0.2,0-0.3,0-0.4-0.1c-0.1-0.1-0.1-0.2-0.1-0.3v-1.3c0,0,0,0,0-0.1c0,0,0,0,0.1,0h0.5
			c0,0,0,0,0.1,0c0,0,0,0,0,0.1v1.1c0,0,0,0.1,0,0.1c0,0,0,0,0.1,0h2.7c0,0,0,0,0.1,0c0,0,0,0,0,0.1L10.5,104.2
			C10.5,104.2,10.5,104.2,10.5,104.2z M10.3,102.7C10.3,102.7,10.3,102.7,10.3,102.7l-0.6,0.1c-0.1,0-0.1,0-0.1-0.1V99
			c0-0.1,0-0.1,0.1-0.1h0.5c0.1,0,0.1,0,0.1,0.1V102.7z"/>
	</g>
</g>
</svg>
