<?xml version="1.0" encoding="utf-8"?>
<!-- Generator: Adobe Illustrator 28.7.1, SVG Export Plug-In . SVG Version: 9.03 Build 54978)  -->
<svg version="1.0" id="레이어_1" xmlns="http://www.w3.org/2000/svg" xmlns:xlink="http://www.w3.org/1999/xlink" x="0px"
	 y="0px" viewBox="0 0 204.8 55.8" style="enable-background:new 0 0 204.8 55.8;" xml:space="preserve">
<style type="text/css">
	.st0{fill:#FF8300;}
	.st1{fill:#773DBD;}
	.st2{fill:#006072;}
	.st3{fill:#666666;}
	.st4{fill:#4C4948;}
</style>
<g>
	<g>
		<path class="st0" d="M26.1,54.4c-0.4-0.1-0.8-0.3-1.2-0.4c-0.8-0.3-1.7-0.6-2.5-1c-2.6-1.2-4.9-2.8-7-4.6c-0.4-0.3-0.7-0.7-1-1
			c-0.3-0.3-0.7-0.7-1-1c-3.2,0.2-6.3-0.2-9.3-1.1c-0.5-0.2-1,0-1.3,0.5c-0.3,0.4-0.2,1,0.2,1.4c6.2,6.2,15.2,9.4,24.4,7.8
			C27,54.7,26.6,54.5,26.1,54.4z"/>
		<path class="st1" d="M53.8,46.6c-0.3-0.4-0.8-0.6-1.3-0.5c-4.3,1.3-9,1.5-13.7,0.3C25.2,42.8,17,28.9,20.5,15.3
			c1.2-4.7,3.6-8.7,6.9-11.9c0.4-0.3,0.4-0.9,0.2-1.3c-0.3-0.4-0.8-0.6-1.3-0.5C17.3,4.3,10,11.4,7.5,21.1
			c-3.8,14.8,5.1,29.9,19.9,33.7c9.7,2.5,19.6-0.5,26.3-7c0.1-0.1,0.2-0.3,0.3-0.5C54,47.1,53.9,46.8,53.8,46.6z"/>
		<path class="st2" d="M47.2,18.5C36.3,7.7,18.8,7.7,8,18.6C1,25.7-1.4,35.7,0.8,44.8C0.9,45,1,45.2,1.1,45.3
			c0.2,0.2,0.5,0.3,0.8,0.3c0.5,0,0.9-0.3,1.1-0.8c1.1-4.4,3.3-8.5,6.7-12c9.9-10,26-10,36.1-0.1c3.4,3.4,5.7,7.6,6.8,11.9
			c0.1,0.5,0.6,0.8,1.1,0.8c0.5,0,0.9-0.4,1.1-0.8C56.8,35.5,54.3,25.5,47.2,18.5z"/>
		<path class="st0" d="M49.1,20.8C47.2,11,40.3,3.3,31.5,0.1C31.3,0,31.1,0,30.9,0c-0.3,0.1-0.5,0.2-0.7,0.5c-0.3,0.4-0.2,1,0.1,1.4
			c3,3.3,5.2,7.5,6.1,12.3c1.9,10-2,19.5-9.7,25.2c0.3,0.3,0.5,0.6,0.7,0.8c0.3,0.3,0.6,0.5,0.9,0.7c2.3,1.9,4.8,3.7,7.8,4.7
			c0.5,0.2,1,0.3,1.5,0.5c0.4,0.1,0.9,0.2,1.3,0.3c0.5,0.1,0.9,0.2,1.4,0.3C47.4,40.4,51,30.7,49.1,20.8z"/>
	</g>
	<g>
		<g>
			<path class="st3" d="M71.1,52.8l-0.5,0.6v1.3c0,0.1,0,0.1-0.1,0.1h-0.2c0,0-0.1,0-0.1-0.1v-3.9c0-0.1,0-0.1,0.1-0.1h0.2
				c0,0,0.1,0,0.1,0.1V53l1.7-2.1c0.1-0.1,0.1-0.1,0.2-0.1h0.3c0,0,0,0,0,0c0,0,0,0,0,0.1l-1.4,1.6l1.5,2.2c0,0.1,0,0.1,0,0.1h-0.3
				c0,0-0.1,0-0.1,0c0,0-0.1,0-0.1-0.1L71.1,52.8z"/>
			<path class="st3" d="M76.9,52.8c0,0.6-0.2,1.1-0.4,1.5c-0.3,0.4-0.8,0.6-1.3,0.6c-0.6,0-1-0.2-1.3-0.6c-0.3-0.4-0.4-0.9-0.4-1.5
				c0-0.3,0-0.6,0.1-0.8c0.1-0.2,0.2-0.5,0.3-0.6c0.2-0.2,0.4-0.4,0.6-0.5c0.2-0.1,0.5-0.2,0.8-0.2c0.3,0,0.5,0.1,0.8,0.2
				c0.2,0.1,0.4,0.3,0.6,0.5c0.1,0.2,0.3,0.4,0.3,0.7C76.9,52.3,76.9,52.5,76.9,52.8z M76.5,52.8c0-0.2,0-0.4-0.1-0.6
				c-0.1-0.2-0.1-0.4-0.2-0.5c-0.1-0.2-0.3-0.3-0.5-0.4c-0.2-0.1-0.4-0.1-0.6-0.1c-0.2,0-0.4,0-0.6,0.1c-0.2,0.1-0.3,0.2-0.5,0.4
				c-0.1,0.2-0.2,0.3-0.2,0.5c-0.1,0.2-0.1,0.4-0.1,0.6c0,0.2,0,0.4,0.1,0.6c0.1,0.2,0.1,0.4,0.2,0.5c0.1,0.2,0.3,0.3,0.5,0.4
				c0.2,0.1,0.4,0.1,0.6,0.1c0.2,0,0.4,0,0.6-0.1c0.2-0.1,0.3-0.2,0.5-0.4c0.1-0.2,0.2-0.3,0.2-0.5C76.5,53.3,76.5,53.1,76.5,52.8z"
				/>
			<path class="st3" d="M80.5,54.8C80.5,54.8,80.5,54.8,80.5,54.8C80.5,54.8,80.4,54.8,80.5,54.8l-0.3,0.1c-0.1,0-0.1,0-0.1-0.1
				c-0.2-0.3-0.3-0.6-0.4-0.8c-0.1-0.2-0.2-0.4-0.3-0.5c-0.1-0.1-0.1-0.3-0.2-0.3c-0.1,0-0.2,0-0.2,0c-0.1,0-0.2,0-0.3,0h-0.5v1.6
				c0,0.1,0,0.1-0.1,0.1h-0.2c-0.1,0-0.1,0-0.1-0.1V51c0,0,0-0.1,0-0.1c0,0,0,0,0,0c0,0,0,0,0.1,0c0,0,0.1,0,0.1,0h1
				c0.2,0,0.4,0,0.5,0.1c0.2,0.1,0.3,0.1,0.4,0.2c0.1,0.1,0.2,0.2,0.2,0.4c0.1,0.1,0.1,0.3,0.1,0.5c0,0.1,0,0.2-0.1,0.3
				c0,0.1-0.1,0.2-0.2,0.3c-0.1,0.1-0.1,0.2-0.2,0.2c-0.1,0.1-0.2,0.1-0.3,0.2L80.5,54.8z M79.8,52c0-0.2,0-0.3,0-0.4
				c0-0.1-0.1-0.2-0.2-0.3c-0.1-0.1-0.2-0.1-0.3-0.1c-0.1,0-0.3,0-0.5,0h-0.6v1.6h0.6c0.1,0,0.3,0,0.4-0.1c0.1,0,0.2-0.1,0.3-0.2
				c0.1-0.1,0.2-0.2,0.2-0.3C79.8,52.2,79.8,52.1,79.8,52z"/>
			<path class="st3" d="M81.3,54.8c-0.1,0-0.1,0-0.1,0c0,0,0-0.1,0-0.1V51c0-0.1,0-0.1,0-0.1c0,0,0.1,0,0.1,0h1.9
				c0.1,0,0.1,0,0.1,0.1v0.2c0,0.1,0,0.1-0.1,0.1h-1.6v1.4h1.5c0.1,0,0.1,0,0.1,0.1v0.2c0,0.1,0,0.1-0.1,0.1h-1.5v1.6h1.7
				c0.1,0,0.1,0,0.1,0.1v0.2c0,0.1,0,0.1-0.1,0.1H81.3z"/>
			<path class="st3" d="M87.6,54.8C87.6,54.8,87.6,54.8,87.6,54.8l-0.3,0.1c0,0,0,0-0.1,0c0,0,0,0,0-0.1l-0.4-1h-2
				c-0.1,0.2-0.1,0.3-0.2,0.5c-0.1,0.2-0.1,0.3-0.2,0.5c0,0,0,0.1,0,0.1c0,0,0,0-0.1,0H84c0,0-0.1,0,0-0.1l1.6-3.9
				c0,0,0.1-0.1,0.1-0.1H86c0,0,0.1,0,0.1,0.1L87.6,54.8z M86.6,53.4c-0.2-0.4-0.3-0.7-0.4-1.1c-0.1-0.4-0.3-0.7-0.4-1.1
				c-0.2,0.4-0.3,0.7-0.4,1.1c-0.1,0.4-0.3,0.7-0.4,1.1H86.6z"/>
			<path class="st3" d="M90,54.8h-0.2c0,0-0.1,0-0.1-0.1V51c0-0.1,0-0.1,0-0.1c0,0,0.1,0,0.1,0h0.3c0,0,0.1,0,0.1,0c0,0,0,0,0.1,0.1
				l2,3.5v-3.5c0-0.1,0-0.1,0.1-0.1h0.2c0,0,0.1,0,0.1,0.1v3.8c0,0.1,0,0.1,0,0.1c0,0-0.1,0-0.1,0h-0.3c0,0-0.1,0-0.1,0
				c0,0,0,0,0-0.1l-2-3.5L90,54.8C90.1,54.8,90.1,54.8,90,54.8z"/>
			<path class="st3" d="M97,54.8C97,54.8,97,54.8,97,54.8l-0.3,0.1c0,0,0,0-0.1,0c0,0,0,0,0-0.1l-0.4-1h-2c-0.1,0.2-0.1,0.3-0.2,0.5
				c-0.1,0.2-0.1,0.3-0.2,0.5c0,0,0,0.1,0,0.1c0,0,0,0-0.1,0h-0.3c0,0-0.1,0,0-0.1l1.6-3.9c0,0,0.1-0.1,0.1-0.1h0.3
				c0,0,0.1,0,0.1,0.1L97,54.8z M96,53.4c-0.2-0.4-0.3-0.7-0.4-1.1c-0.1-0.4-0.3-0.7-0.4-1.1c-0.2,0.4-0.3,0.7-0.4,1.1
				c-0.1,0.4-0.3,0.7-0.4,1.1H96z"/>
			<path class="st3" d="M98.5,51.2v3.6c0,0.1,0,0.1-0.1,0.1h-0.2c-0.1,0-0.1,0-0.1-0.1v-3.6H97c-0.1,0-0.1,0-0.1-0.1v-0.2
				c0-0.1,0-0.1,0.1-0.1h2.6c0.1,0,0.1,0,0.1,0.1v0.2c0,0.1,0,0.1-0.1,0.1H98.5z"/>
			<path class="st3" d="M100.6,54.8h-0.3c0,0-0.1,0-0.1-0.1v-3.9c0-0.1,0-0.1,0.1-0.1h0.3c0,0,0.1,0,0.1,0.1L100.6,54.8
				C100.7,54.8,100.6,54.8,100.6,54.8z"/>
			<path class="st3" d="M105,52.8c0,0.6-0.2,1.1-0.4,1.5c-0.3,0.4-0.8,0.6-1.3,0.6c-0.6,0-1-0.2-1.3-0.6c-0.3-0.4-0.4-0.9-0.4-1.5
				c0-0.3,0-0.6,0.1-0.8c0.1-0.2,0.2-0.5,0.3-0.6c0.2-0.2,0.4-0.4,0.6-0.5c0.2-0.1,0.5-0.2,0.8-0.2c0.3,0,0.5,0.1,0.8,0.2
				c0.2,0.1,0.4,0.3,0.6,0.5c0.1,0.2,0.2,0.4,0.3,0.7C105,52.3,105,52.5,105,52.8z M104.6,52.8c0-0.2,0-0.4-0.1-0.6
				c-0.1-0.2-0.1-0.4-0.2-0.5c-0.1-0.2-0.3-0.3-0.5-0.4c-0.2-0.1-0.4-0.1-0.6-0.1c-0.2,0-0.4,0-0.6,0.1c-0.2,0.1-0.3,0.2-0.5,0.4
				c-0.1,0.2-0.2,0.3-0.2,0.5c-0.1,0.2-0.1,0.4-0.1,0.6c0,0.2,0,0.4,0.1,0.6c0.1,0.2,0.1,0.4,0.2,0.5c0.1,0.2,0.3,0.3,0.5,0.4
				c0.2,0.1,0.4,0.1,0.6,0.1c0.2,0,0.4,0,0.6-0.1c0.2-0.1,0.3-0.2,0.5-0.4c0.1-0.2,0.2-0.3,0.2-0.5
				C104.6,53.3,104.6,53.1,104.6,52.8z"/>
			<path class="st3" d="M106.2,54.8h-0.2c-0.1,0-0.1,0-0.1-0.1V51c0-0.1,0-0.1,0-0.1c0,0,0.1,0,0.1,0h0.3c0,0,0.1,0,0.1,0
				c0,0,0,0,0,0.1l2,3.5v-3.5c0-0.1,0-0.1,0.1-0.1h0.2c0.1,0,0.1,0,0.1,0.1v3.8c0,0.1,0,0.1,0,0.1c0,0-0.1,0-0.1,0h-0.3
				c0,0,0,0-0.1,0c0,0,0,0,0-0.1l-2-3.5L106.2,54.8C106.2,54.8,106.2,54.8,106.2,54.8z"/>
			<path class="st3" d="M113.1,54.8C113.1,54.8,113.1,54.8,113.1,54.8l-0.3,0.1c0,0,0,0-0.1,0c0,0,0,0,0-0.1l-0.4-1h-2
				c-0.1,0.2-0.1,0.3-0.2,0.5c-0.1,0.2-0.1,0.3-0.2,0.5c0,0,0,0.1,0,0.1c0,0,0,0-0.1,0h-0.3c-0.1,0-0.1,0,0-0.1l1.6-3.9
				c0,0,0-0.1,0.1-0.1h0.3c0,0,0.1,0,0.1,0.1L113.1,54.8z M112.2,53.4c-0.1-0.4-0.3-0.7-0.4-1.1c-0.1-0.4-0.3-0.7-0.4-1.1
				c-0.2,0.4-0.3,0.7-0.4,1.1c-0.1,0.4-0.3,0.7-0.4,1.1H112.2z"/>
			<path class="st3" d="M115.7,54.5C115.8,54.5,115.8,54.5,115.7,54.5l0.1,0.3c0,0.1,0,0.1-0.1,0.1h-1.8c-0.1,0-0.1,0-0.1,0
				c0,0,0,0-0.1,0c0,0,0,0,0-0.1c0,0,0-0.1,0-0.1v-3.7c0-0.1,0-0.1,0.1-0.1h0.3c0,0,0.1,0,0.1,0.1v3.6H115.7z"/>
			<path class="st3" d="M118.2,54.8H118c-0.1,0-0.1,0-0.1-0.1v-3.9c0-0.1,0-0.1,0.1-0.1h0.3c0.1,0,0.1,0,0.1,0.1L118.2,54.8
				C118.3,54.8,118.3,54.8,118.2,54.8z"/>
			<path class="st3" d="M119.5,54.8h-0.2c-0.1,0-0.1,0-0.1-0.1V51c0-0.1,0-0.1,0-0.1c0,0,0.1,0,0.1,0h0.2c0,0,0.1,0,0.1,0
				c0,0,0,0,0.1,0.1l2,3.5v-3.5c0-0.1,0-0.1,0.1-0.1h0.2c0.1,0,0.1,0,0.1,0.1v3.8c0,0.1,0,0.1,0,0.1c0,0-0.1,0-0.1,0h-0.3
				c0,0-0.1,0-0.1,0c0,0,0,0,0-0.1l-2-3.5L119.5,54.8C119.6,54.8,119.6,54.8,119.5,54.8z"/>
			<path class="st3" d="M123.1,54.8C123,54.8,123,54.7,123.1,54.8l0-0.3c0,0,0-0.1,0-0.1c0,0,0,0,0.1,0c0.1,0.1,0.3,0.1,0.4,0.1
				c0.1,0,0.3,0,0.4,0c0.3,0,0.5-0.1,0.6-0.2c0.2-0.1,0.3-0.3,0.3-0.6c0-0.1,0-0.2-0.1-0.3c-0.1-0.1-0.2-0.2-0.3-0.3
				c-0.1-0.1-0.3-0.2-0.4-0.2c-0.2-0.1-0.3-0.2-0.5-0.3c-0.1-0.1-0.3-0.2-0.4-0.3c-0.1-0.1-0.1-0.3-0.1-0.4c0-0.2,0-0.3,0.1-0.5
				c0.1-0.1,0.2-0.2,0.3-0.3c0.1-0.1,0.3-0.2,0.4-0.2c0.2,0,0.3-0.1,0.5-0.1c0.1,0,0.3,0,0.4,0c0.1,0,0.2,0,0.4,0.1
				c0.1,0,0.1,0.1,0.1,0.1l0,0.2c0,0.1,0,0.1-0.1,0c-0.1,0-0.2-0.1-0.3-0.1c-0.1,0-0.2,0-0.4,0c-0.1,0-0.2,0-0.3,0
				c-0.1,0-0.2,0.1-0.3,0.1c-0.1,0.1-0.1,0.1-0.2,0.2c0,0.1-0.1,0.2-0.1,0.3c0,0.1,0,0.2,0.1,0.3c0.1,0.1,0.1,0.2,0.2,0.2
				c0.1,0.1,0.2,0.1,0.3,0.2c0.1,0.1,0.2,0.1,0.3,0.2c0.1,0.1,0.2,0.1,0.3,0.2c0.1,0.1,0.2,0.2,0.3,0.2c0.1,0.1,0.2,0.2,0.2,0.3
				c0.1,0.1,0.1,0.2,0.1,0.4c0,0.2,0,0.3-0.1,0.5c-0.1,0.1-0.2,0.3-0.3,0.4c-0.1,0.1-0.3,0.2-0.4,0.2c-0.2,0.1-0.3,0.1-0.5,0.1
				c-0.2,0-0.3,0-0.4,0C123.4,54.9,123.3,54.8,123.1,54.8z"/>
			<path class="st3" d="M127.3,51.2v3.6c0,0.1,0,0.1-0.1,0.1H127c-0.1,0-0.1,0-0.1-0.1v-3.6h-1.1c-0.1,0-0.1,0-0.1-0.1v-0.2
				c0-0.1,0-0.1,0.1-0.1h2.6c0,0,0.1,0,0.1,0.1v0.2c0,0.1,0,0.1-0.1,0.1H127.3z"/>
			<path class="st3" d="M129.4,54.8h-0.3c-0.1,0-0.1,0-0.1-0.1v-3.9c0-0.1,0-0.1,0.1-0.1h0.3c0.1,0,0.1,0,0.1,0.1L129.4,54.8
				C129.5,54.8,129.4,54.8,129.4,54.8z"/>
			<path class="st3" d="M131.6,51.2v3.6c0,0.1,0,0.1-0.1,0.1h-0.2c-0.1,0-0.1,0-0.1-0.1v-3.6h-1.1c-0.1,0-0.1,0-0.1-0.1v-0.2
				c0-0.1,0-0.1,0.1-0.1h2.6c0,0,0.1,0,0.1,0.1v0.2c0,0.1,0,0.1-0.1,0.1H131.6z"/>
			<path class="st3" d="M133.7,53.4c0,0.3,0.1,0.6,0.3,0.8c0.2,0.2,0.5,0.3,0.8,0.3c0.3,0,0.6-0.1,0.8-0.3c0.1-0.1,0.2-0.2,0.2-0.3
				c0-0.1,0.1-0.3,0.1-0.5v-2.5c0-0.1,0-0.1,0.1-0.1h0.2c0.1,0,0.1,0,0.1,0.1v2.5c0,0.3,0,0.5-0.1,0.7c-0.1,0.2-0.2,0.4-0.4,0.5
				c-0.3,0.2-0.6,0.3-1,0.3c-0.4,0-0.7-0.1-1-0.3c-0.3-0.3-0.5-0.6-0.5-1.2v-2.5c0-0.1,0-0.1,0.1-0.1h0.3c0.1,0,0.1,0,0.1,0.1V53.4z
				"/>
			<path class="st3" d="M138.5,51.2v3.6c0,0.1,0,0.1-0.1,0.1h-0.2c-0.1,0-0.1,0-0.1-0.1v-3.6H137c-0.1,0-0.1,0-0.1-0.1v-0.2
				c0-0.1,0-0.1,0.1-0.1h2.6c0.1,0,0.1,0,0.1,0.1v0.2c0,0.1,0,0.1-0.1,0.1H138.5z"/>
			<path class="st3" d="M140.4,54.8c-0.1,0-0.1,0-0.1,0c0,0,0-0.1,0-0.1V51c0-0.1,0-0.1,0-0.1c0,0,0.1,0,0.1,0h1.9
				c0.1,0,0.1,0,0.1,0.1v0.2c0,0.1,0,0.1-0.1,0.1h-1.6v1.4h1.5c0,0,0.1,0,0.1,0.1v0.2c0,0.1,0,0.1-0.1,0.1h-1.5v1.6h1.7
				c0.1,0,0.1,0,0.1,0.1v0.2c0,0.1,0,0.1-0.1,0.1H140.4z"/>
			<path class="st3" d="M145.3,54.8C145.3,54.8,145.2,54.8,145.3,54.8l-0.3,0.1c-0.1,0-0.1,0-0.1-0.1V51c0-0.1,0-0.1,0-0.1
				c0,0,0.1,0,0.1,0h1.8c0.1,0,0.1,0,0.1,0.1v0.2c0,0.1,0,0.1-0.1,0.1h-1.6v1.4h1.5c0.1,0,0.1,0,0.1,0.1v0.2c0,0,0,0.1-0.1,0.1h-1.5
				V54.8z"/>
			<path class="st3" d="M151,52.8c0,0.6-0.2,1.1-0.4,1.5c-0.3,0.4-0.8,0.6-1.3,0.6c-0.6,0-1-0.2-1.3-0.6c-0.3-0.4-0.4-0.9-0.4-1.5
				c0-0.3,0-0.6,0.1-0.8c0.1-0.2,0.2-0.5,0.3-0.6c0.2-0.2,0.4-0.4,0.6-0.5c0.2-0.1,0.5-0.2,0.8-0.2c0.3,0,0.5,0.1,0.8,0.2
				c0.2,0.1,0.4,0.3,0.6,0.5c0.1,0.2,0.2,0.4,0.3,0.7C151,52.3,151,52.5,151,52.8z M150.6,52.8c0-0.2,0-0.4-0.1-0.6
				c-0.1-0.2-0.1-0.4-0.2-0.5c-0.1-0.2-0.3-0.3-0.5-0.4c-0.2-0.1-0.4-0.1-0.6-0.1c-0.2,0-0.4,0-0.6,0.1c-0.2,0.1-0.3,0.2-0.5,0.4
				c-0.1,0.2-0.2,0.3-0.2,0.5c-0.1,0.2-0.1,0.4-0.1,0.6c0,0.2,0,0.4,0.1,0.6c0.1,0.2,0.1,0.4,0.2,0.5c0.1,0.2,0.3,0.3,0.5,0.4
				c0.2,0.1,0.4,0.1,0.6,0.1c0.2,0,0.4,0,0.6-0.1c0.2-0.1,0.3-0.2,0.5-0.4c0.1-0.2,0.2-0.3,0.2-0.5
				C150.6,53.3,150.6,53.1,150.6,52.8z"/>
			<path class="st3" d="M154.5,54.8C154.6,54.8,154.6,54.8,154.5,54.8C154.5,54.8,154.5,54.8,154.5,54.8l-0.3,0.1
				c-0.1,0-0.1,0-0.1-0.1c-0.2-0.3-0.3-0.6-0.4-0.8c-0.1-0.2-0.2-0.4-0.3-0.5c-0.1-0.1-0.1-0.3-0.2-0.3c-0.1,0-0.2,0-0.2,0
				c-0.1,0-0.2,0-0.3,0h-0.5v1.6c0,0.1,0,0.1-0.1,0.1H152c-0.1,0-0.1,0-0.1-0.1V51c0,0,0-0.1,0-0.1c0,0,0,0,0,0c0,0,0,0,0,0
				c0,0,0,0,0.1,0h1c0.2,0,0.4,0,0.5,0.1c0.2,0.1,0.3,0.1,0.4,0.2c0.1,0.1,0.2,0.2,0.2,0.4c0.1,0.1,0.1,0.3,0.1,0.5
				c0,0.1,0,0.2-0.1,0.3c0,0.1-0.1,0.2-0.2,0.3c-0.1,0.1-0.1,0.2-0.2,0.2c-0.1,0.1-0.2,0.1-0.3,0.2L154.5,54.8z M153.9,52
				c0-0.2,0-0.3-0.1-0.4c0-0.1-0.1-0.2-0.2-0.3c-0.1-0.1-0.2-0.1-0.3-0.1c-0.1,0-0.3,0-0.5,0h-0.6v1.6h0.6c0.1,0,0.3,0,0.4-0.1
				c0.1,0,0.2-0.1,0.3-0.2c0.1-0.1,0.2-0.2,0.2-0.3C153.9,52.2,153.9,52.1,153.9,52z"/>
			<path class="st3" d="M159.1,53.7c0,0.8-0.5,1.1-1.6,1.1h-0.7c-0.1,0-0.1,0-0.1,0c0,0,0-0.1,0-0.1V51c0-0.1,0-0.1,0-0.1
				c0,0,0.1,0,0.1,0h0.8c0.9,0,1.3,0.3,1.3,1c0,0.5-0.2,0.8-0.7,0.9c0.3,0.1,0.5,0.2,0.6,0.4C159.1,53.3,159.1,53.5,159.1,53.7z
				 M158.7,53.7c0-0.3-0.1-0.5-0.3-0.6c-0.2-0.1-0.5-0.2-0.9-0.2h-0.4v1.6h0.4C158.4,54.5,158.7,54.2,158.7,53.7z M158.6,51.8
				c0-0.4-0.3-0.7-0.9-0.7h-0.6v1.4h0.4c0.3,0,0.6-0.1,0.7-0.2C158.5,52.3,158.6,52.1,158.6,51.8z"/>
			<path class="st3" d="M160.4,54.8h-0.3c-0.1,0-0.1,0-0.1-0.1v-3.9c0-0.1,0-0.1,0.1-0.1h0.3c0.1,0,0.1,0,0.1,0.1L160.4,54.8
				C160.4,54.8,160.4,54.8,160.4,54.8z"/>
			<path class="st3" d="M164.8,52.8c0,0.6-0.2,1.1-0.4,1.5c-0.3,0.4-0.8,0.6-1.3,0.6c-0.6,0-1-0.2-1.3-0.6c-0.3-0.4-0.4-0.9-0.4-1.5
				c0-0.3,0-0.6,0.1-0.8c0.1-0.2,0.2-0.5,0.3-0.6c0.2-0.2,0.4-0.4,0.6-0.5c0.2-0.1,0.5-0.2,0.8-0.2c0.3,0,0.5,0.1,0.8,0.2
				c0.2,0.1,0.4,0.3,0.6,0.5c0.1,0.2,0.2,0.4,0.3,0.7C164.7,52.3,164.8,52.5,164.8,52.8z M164.4,52.8c0-0.2,0-0.4-0.1-0.6
				c-0.1-0.2-0.1-0.4-0.2-0.5c-0.1-0.2-0.3-0.3-0.5-0.4c-0.2-0.1-0.4-0.1-0.6-0.1c-0.2,0-0.4,0-0.6,0.1c-0.2,0.1-0.3,0.2-0.5,0.4
				c-0.1,0.2-0.2,0.3-0.2,0.5c-0.1,0.2-0.1,0.4-0.1,0.6c0,0.2,0,0.4,0.1,0.6c0.1,0.2,0.1,0.4,0.2,0.5c0.1,0.2,0.3,0.3,0.5,0.4
				c0.2,0.1,0.4,0.1,0.6,0.1c0.2,0,0.4,0,0.6-0.1c0.2-0.1,0.3-0.2,0.5-0.4c0.1-0.2,0.2-0.3,0.2-0.5
				C164.3,53.3,164.4,53.1,164.4,52.8z"/>
			<path class="st3" d="M165.8,54.8c-0.1,0-0.1,0-0.1,0c0,0,0-0.1,0-0.1V51c0-0.1,0-0.1,0-0.1c0,0,0.1,0,0.1,0h1.9
				c0.1,0,0.1,0,0.1,0.1v0.2c0,0.1,0,0.1-0.1,0.1h-1.6v1.4h1.5c0,0,0.1,0,0.1,0.1v0.2c0,0.1,0,0.1-0.1,0.1h-1.5v1.6h1.7
				c0.1,0,0.1,0,0.1,0.1v0.2c0,0.1,0,0.1-0.1,0.1H165.8z"/>
			<path class="st3" d="M169.9,51.2v3.6c0,0.1,0,0.1-0.1,0.1h-0.3c-0.1,0-0.1,0-0.1-0.1v-3.6h-1.1c-0.1,0-0.1,0-0.1-0.1v-0.2
				c0-0.1,0-0.1,0.1-0.1h2.6c0.1,0,0.1,0,0.1,0.1v0.2c0,0.1,0,0.1-0.1,0.1H169.9z"/>
			<path class="st3" d="M174.6,54.8C174.6,54.8,174.6,54.8,174.6,54.8l-0.3,0.1c-0.1,0-0.1,0-0.1-0.1v-1.8h-2.1v1.8
				c0,0.1,0,0.1-0.1,0.1h-0.2c-0.1,0-0.1,0-0.1-0.1v-3.9c0-0.1,0-0.1,0.1-0.1h0.2c0,0,0.1,0,0.1,0.1v1.7h2.1v-1.7
				c0-0.1,0-0.1,0.1-0.1h0.2c0.1,0,0.1,0,0.1,0.1V54.8z"/>
			<path class="st3" d="M176,54.8h-0.3c-0.1,0-0.1,0-0.1-0.1v-3.9c0-0.1,0-0.1,0.1-0.1h0.3c0.1,0,0.1,0,0.1,0.1L176,54.8
				C176.1,54.8,176,54.8,176,54.8z"/>
			<path class="st3" d="M179.7,54.4C179.7,54.4,179.7,54.4,179.7,54.4C179.8,54.5,179.8,54.5,179.7,54.4l0.1,0.2c0,0,0,0.1-0.1,0.1
				c-0.1,0-0.2,0.1-0.4,0.1c-0.1,0-0.3,0-0.5,0c-0.6,0-1.1-0.2-1.5-0.6c-0.2-0.2-0.3-0.4-0.4-0.7c-0.1-0.3-0.1-0.5-0.1-0.8
				c0-0.6,0.2-1.1,0.6-1.5c0.4-0.4,0.9-0.6,1.5-0.6c0.1,0,0.2,0,0.2,0c0.1,0,0.1,0,0.2,0c0.1,0,0.1,0,0.2,0c0.1,0,0.1,0,0.2,0
				c0.1,0,0.1,0,0.1,0.1l0,0.2c0,0,0,0.1-0.1,0c-0.1,0-0.3-0.1-0.4-0.1c-0.1,0-0.3,0-0.4,0c-0.5,0-0.9,0.2-1.2,0.5
				c-0.3,0.3-0.4,0.7-0.4,1.2c0,0.3,0,0.5,0.1,0.7c0.1,0.2,0.2,0.4,0.3,0.6c0.3,0.3,0.7,0.5,1.2,0.5c0.2,0,0.3,0,0.5,0
				C179.5,54.5,179.6,54.5,179.7,54.4z"/>
			<path class="st3" d="M180.6,54.8C180.5,54.8,180.5,54.7,180.6,54.8l-0.1-0.3c0,0,0-0.1,0-0.1c0,0,0,0,0.1,0
				c0.1,0.1,0.3,0.1,0.4,0.1c0.1,0,0.3,0,0.4,0c0.3,0,0.5-0.1,0.6-0.2c0.2-0.1,0.3-0.3,0.3-0.6c0-0.1,0-0.2-0.1-0.3
				c-0.1-0.1-0.2-0.2-0.3-0.3c-0.1-0.1-0.3-0.2-0.4-0.2c-0.2-0.1-0.3-0.2-0.5-0.3c-0.1-0.1-0.3-0.2-0.4-0.3
				c-0.1-0.1-0.1-0.3-0.1-0.4c0-0.2,0-0.3,0.1-0.5c0.1-0.1,0.2-0.2,0.3-0.3c0.1-0.1,0.3-0.2,0.4-0.2c0.2,0,0.3-0.1,0.5-0.1
				c0.1,0,0.3,0,0.4,0c0.1,0,0.2,0,0.4,0.1c0.1,0,0.1,0.1,0.1,0.1l0,0.2c0,0.1,0,0.1-0.1,0c-0.1,0-0.2-0.1-0.3-0.1
				c-0.1,0-0.2,0-0.4,0c-0.1,0-0.2,0-0.3,0c-0.1,0-0.2,0.1-0.3,0.1c-0.1,0.1-0.1,0.1-0.2,0.2c0,0.1-0.1,0.2-0.1,0.3
				c0,0.1,0,0.2,0.1,0.3c0.1,0.1,0.1,0.2,0.2,0.2c0.1,0.1,0.2,0.1,0.3,0.2c0.1,0.1,0.2,0.1,0.3,0.2c0.1,0.1,0.2,0.1,0.3,0.2
				c0.1,0.1,0.2,0.2,0.3,0.2c0.1,0.1,0.2,0.2,0.2,0.3c0.1,0.1,0.1,0.2,0.1,0.4c0,0.2,0,0.3-0.1,0.5c-0.1,0.1-0.2,0.3-0.3,0.4
				c-0.1,0.1-0.3,0.2-0.4,0.2c-0.2,0.1-0.3,0.1-0.5,0.1c-0.2,0-0.3,0-0.4,0C180.9,54.9,180.7,54.8,180.6,54.8z"/>
			<path class="st3" d="M185.5,54.8C185.5,54.8,185.5,54.8,185.5,54.8l-0.3,0.1c0,0-0.1,0-0.1-0.1V51c0-0.1,0-0.1,0-0.1
				c0,0,0.1,0,0.1,0h1c0.4,0,0.7,0.1,0.9,0.3c0.2,0.2,0.3,0.5,0.3,0.9c0,0.2,0,0.4-0.1,0.5c-0.1,0.1-0.2,0.3-0.3,0.4
				c-0.1,0.1-0.3,0.2-0.4,0.2c-0.2,0.1-0.3,0.1-0.5,0.1h-0.7V54.8z M187.1,52c0-0.3-0.1-0.5-0.2-0.6c-0.1-0.1-0.3-0.2-0.6-0.2h-0.8
				v1.6h0.4c0.2,0,0.3,0,0.5,0c0.1,0,0.3-0.1,0.4-0.1c0.1-0.1,0.2-0.1,0.2-0.2C187.1,52.3,187.1,52.1,187.1,52z"/>
			<path class="st3" d="M191.6,52.8c0,0.6-0.2,1.1-0.4,1.5c-0.3,0.4-0.8,0.6-1.3,0.6c-0.6,0-1-0.2-1.3-0.6c-0.3-0.4-0.4-0.9-0.4-1.5
				c0-0.3,0-0.6,0.1-0.8c0.1-0.2,0.2-0.5,0.3-0.6c0.2-0.2,0.4-0.4,0.6-0.5c0.2-0.1,0.5-0.2,0.8-0.2c0.3,0,0.5,0.1,0.8,0.2
				c0.2,0.1,0.4,0.3,0.6,0.5c0.1,0.2,0.2,0.4,0.3,0.7C191.6,52.3,191.6,52.5,191.6,52.8z M191.2,52.8c0-0.2,0-0.4-0.1-0.6
				c-0.1-0.2-0.1-0.4-0.2-0.5c-0.1-0.2-0.3-0.3-0.5-0.4c-0.2-0.1-0.4-0.1-0.6-0.1s-0.4,0-0.6,0.1c-0.2,0.1-0.3,0.2-0.5,0.4
				c-0.1,0.2-0.2,0.3-0.2,0.5c-0.1,0.2-0.1,0.4-0.1,0.6c0,0.2,0,0.4,0.1,0.6c0.1,0.2,0.1,0.4,0.2,0.5c0.1,0.2,0.3,0.3,0.5,0.4
				c0.2,0.1,0.4,0.1,0.6,0.1c0.2,0,0.4,0,0.6-0.1c0.2-0.1,0.3-0.2,0.5-0.4c0.1-0.2,0.2-0.3,0.2-0.5
				C191.2,53.3,191.2,53.1,191.2,52.8z"/>
			<path class="st3" d="M194.4,54.5C194.5,54.5,194.5,54.5,194.4,54.5l0.1,0.3c0,0.1,0,0.1-0.1,0.1h-1.8c-0.1,0-0.1,0-0.1,0
				c0,0,0,0-0.1,0c0,0,0,0,0-0.1c0,0,0-0.1,0-0.1v-3.7c0-0.1,0-0.1,0.1-0.1h0.3c0,0,0.1,0,0.1,0.1v3.6H194.4z"/>
			<path class="st3" d="M195.4,54.8h-0.3c-0.1,0-0.1,0-0.1-0.1v-3.9c0-0.1,0-0.1,0.1-0.1h0.3c0.1,0,0.1,0,0.1,0.1L195.4,54.8
				C195.5,54.8,195.5,54.8,195.4,54.8z"/>
			<path class="st3" d="M199.2,54.4C199.2,54.4,199.2,54.4,199.2,54.4C199.2,54.5,199.2,54.5,199.2,54.4l0.1,0.2c0,0,0,0.1-0.1,0.1
				c-0.1,0-0.2,0.1-0.4,0.1c-0.1,0-0.3,0-0.5,0c-0.6,0-1.1-0.2-1.5-0.6c-0.2-0.2-0.3-0.4-0.4-0.7c-0.1-0.3-0.1-0.5-0.1-0.8
				c0-0.6,0.2-1.1,0.6-1.5c0.4-0.4,0.9-0.6,1.5-0.6c0.1,0,0.2,0,0.2,0c0.1,0,0.1,0,0.2,0c0.1,0,0.1,0,0.2,0c0.1,0,0.1,0,0.2,0
				c0.1,0,0.1,0,0.1,0.1l0,0.2c0,0,0,0.1-0.1,0c-0.1,0-0.3-0.1-0.4-0.1c-0.1,0-0.3,0-0.4,0c-0.5,0-0.9,0.2-1.2,0.5
				c-0.3,0.3-0.4,0.7-0.4,1.2c0,0.3,0,0.5,0.1,0.7c0.1,0.2,0.2,0.4,0.3,0.6c0.3,0.3,0.7,0.5,1.2,0.5c0.2,0,0.3,0,0.5,0
				C198.9,54.5,199.1,54.5,199.2,54.4z"/>
			<path class="st3" d="M201.6,54.8C201.6,54.8,201.6,54.8,201.6,54.8l-0.3,0.1c-0.1,0-0.1,0-0.1-0.1v-1.6c-0.2-0.4-0.5-0.8-0.7-1.1
				c-0.2-0.4-0.5-0.7-0.7-1.1c0,0,0,0,0-0.1c0,0,0,0,0,0h0.3c0,0,0.1,0,0.1,0.1l1.2,1.9c0.2-0.3,0.4-0.6,0.6-1
				c0.2-0.3,0.4-0.6,0.6-1c0-0.1,0.1-0.1,0.1-0.1h0.3c0,0,0,0,0,0c0,0,0,0,0,0.1l-1.4,2.3V54.8z"/>
		</g>
		<g>
			<path class="st3" d="M94.7,36.5c0,0.2,0,0.5,0,0.8c0,0.3,0,0.6-0.1,0.9c0,0.3-0.1,0.7-0.1,1c0,0.3-0.1,0.7-0.2,1h2.1
				c0,0,0.1,0,0.1,0.1c0,0.1,0.1,0.1,0.1,0.2v0.9c0,0,0,0.1-0.1,0.1c0,0-0.1,0.1-0.1,0.1h-5.5v2.1h2.8c0.4,0,0.6,0.1,0.8,0.2
				c0.1,0.1,0.2,0.4,0.2,0.8v3.8c0,0,0,0.1-0.1,0.1c0,0-0.1,0.1-0.1,0.1h-1.2c-0.1,0-0.1,0-0.2-0.1c0,0-0.1-0.1-0.1-0.1v-3.3
				c0-0.1,0-0.2-0.1-0.2c0,0-0.1,0-0.2,0h-7c0,0-0.1,0-0.1-0.1c0,0-0.1-0.1-0.1-0.1v-1c0-0.1,0-0.1,0.1-0.1c0,0,0.1,0,0.1,0h3.6
				v-2.1H84c-0.1,0-0.1,0-0.1-0.1c0,0-0.1-0.1-0.1-0.1v-0.9c0-0.2,0.1-0.2,0.2-0.2h8.8c0.1-0.5,0.2-0.9,0.2-1.4
				c0.1-0.5,0.1-1,0.1-1.6c0-0.1,0-0.2-0.1-0.2c-0.1,0-0.2,0-0.3,0h-6.6c0,0-0.1,0-0.1-0.1c0,0-0.1-0.1-0.1-0.1v-1
				c0-0.1,0-0.1,0.1-0.1c0,0,0.1,0,0.1,0h7.7c0.3,0,0.5,0.1,0.7,0.2C94.6,35.9,94.7,36.2,94.7,36.5z"/>
			<path class="st3" d="M104.4,37.4c-0.1,0.9-0.2,1.7-0.5,2.5c-0.3,0.8-0.7,1.6-1.2,2.3c-0.5,0.7-1.1,1.4-1.8,2
				c-0.7,0.6-1.5,1.2-2.4,1.6c-0.1,0-0.2,0.1-0.2,0c-0.1,0-0.1,0-0.2-0.1L97.6,45c0-0.1-0.1-0.1,0-0.2c0-0.1,0.1-0.1,0.1-0.2
				c1.4-0.8,2.6-1.7,3.4-2.9c0.9-1.1,1.4-2.3,1.6-3.6c0-0.2,0-0.3,0-0.4c-0.1-0.1-0.2-0.1-0.3-0.1h-4c-0.1,0-0.2-0.1-0.2-0.2v-1
				c0-0.1,0.1-0.2,0.2-0.2h5.1c0.4,0,0.7,0.1,0.8,0.3C104.4,36.7,104.5,37,104.4,37.4z M110.1,41.7c0,0-0.1,0.1-0.1,0.1h-1.9v6.7
				c0,0.1-0.1,0.2-0.2,0.2h-1.3c-0.1,0-0.2-0.1-0.2-0.2V35.4c0-0.1,0.1-0.2,0.2-0.2h1.3c0.1,0,0.2,0.1,0.2,0.2v5h1.9
				c0.1,0,0.1,0,0.1,0c0,0,0.1,0.1,0.1,0.1v1C110.2,41.6,110.2,41.7,110.1,41.7z"/>
			<path class="st3" d="M111.8,42.6c-0.1,0-0.2,0.1-0.2,0.1c-0.1,0-0.2,0-0.2-0.1l-0.5-0.6c-0.1-0.2-0.1-0.3,0.1-0.5
				c0.5-0.4,1-0.8,1.4-1.2c0.4-0.4,0.6-0.9,0.9-1.3c0.2-0.5,0.4-0.9,0.4-1.5c0.1-0.5,0.1-1,0.1-1.6c0-0.1,0-0.1,0.1-0.2
				c0,0,0.1-0.1,0.1-0.1l1.2,0.1c0.1,0,0.2,0.1,0.2,0.2c0,0.8-0.1,1.5-0.2,2.1c0.2,0.5,0.5,1.1,1,1.6c0.4,0.5,0.9,0.9,1.5,1.3
				c0.1,0,0.1,0.1,0.1,0.1c0,0.1,0,0.1-0.1,0.2L117,42c-0.1,0.1-0.3,0.2-0.4,0.1c-0.4-0.2-0.8-0.6-1.2-1c-0.4-0.4-0.7-0.8-1-1.3
				c-0.3,0.6-0.7,1.1-1.1,1.5C112.9,41.8,112.4,42.2,111.8,42.6z M122.7,46c0,0.4-0.1,0.8-0.4,1.1c-0.3,0.3-0.6,0.6-1,0.9
				c-0.4,0.2-0.9,0.4-1.5,0.5c-0.6,0.1-1.1,0.2-1.7,0.2c-0.7,0-1.3-0.1-1.8-0.2c-0.6-0.1-1-0.3-1.4-0.5c-0.4-0.2-0.7-0.5-1-0.8
				c-0.2-0.3-0.3-0.7-0.3-1.1c0-0.4,0.1-0.8,0.3-1.1c0.2-0.3,0.6-0.6,1-0.8c0.4-0.2,0.9-0.4,1.4-0.5c0.6-0.1,1.2-0.2,1.8-0.2
				c0.6,0,1.2,0.1,1.7,0.2c0.6,0.1,1.1,0.3,1.5,0.5c0.4,0.2,0.8,0.5,1,0.8C122.6,45.2,122.7,45.6,122.7,46z M121,46.1
				c0-0.2-0.1-0.4-0.3-0.6c-0.2-0.2-0.4-0.3-0.7-0.4c-0.3-0.1-0.6-0.2-0.9-0.3c-0.4-0.1-0.7-0.1-1-0.1c-0.4,0-0.7,0-1.1,0.1
				c-0.3,0.1-0.7,0.1-0.9,0.3c-0.3,0.1-0.5,0.3-0.6,0.4c-0.2,0.2-0.2,0.4-0.2,0.6c0,0.2,0.1,0.4,0.2,0.6c0.2,0.2,0.4,0.3,0.6,0.4
				c0.3,0.1,0.6,0.2,0.9,0.3c0.4,0.1,0.7,0.1,1.1,0.1c0.3,0,0.7,0,1-0.1c0.4-0.1,0.7-0.1,0.9-0.3c0.3-0.1,0.5-0.3,0.7-0.4
				C120.9,46.5,121,46.3,121,46.1z M121,35.4c0-0.1,0.1-0.2,0.2-0.2h1.2c0.1,0,0.2,0.1,0.2,0.2V43c0,0.1-0.1,0.2-0.2,0.2h-1.2
				c-0.1,0-0.2-0.1-0.2-0.2v-3h-1.3v2.6c0,0.1-0.1,0.2-0.2,0.2h-1.2c-0.1,0-0.2-0.1-0.2-0.2v-7c0-0.1,0.1-0.2,0.2-0.2h1.2
				c0.1,0,0.2,0.1,0.2,0.2v3h1.3V35.4z"/>
			<path class="st3" d="M131.1,42.2c-0.1,0.1-0.4,0.2-0.8,0.2h-4.2c-0.4,0-0.7-0.1-0.8-0.2c-0.2-0.1-0.2-0.4-0.2-0.8v-4.7
				c0-0.4,0.1-0.6,0.2-0.7c0.1-0.1,0.4-0.2,0.8-0.2h4.3c0.4,0,0.6,0.1,0.8,0.2c0.1,0.1,0.2,0.4,0.2,0.8v0.4h2.4v-1.7
				c0-0.1,0.1-0.2,0.2-0.2h1.3c0.1,0,0.2,0.1,0.2,0.2V43c0,0.1-0.1,0.2-0.2,0.2h-1.3c-0.1,0-0.2-0.1-0.2-0.2v-1.8h-2.4v0.2
				C131.3,41.8,131.2,42.1,131.1,42.2z M129.7,37.3c0-0.1,0-0.1,0-0.2c0,0-0.1,0-0.2,0h-2.7c-0.1,0-0.1,0-0.1,0c0,0,0,0.1,0,0.2v3.6
				c0,0.1,0,0.1,0,0.2c0,0,0.1,0,0.1,0h2.7c0.1,0,0.1,0,0.2,0c0,0,0-0.1,0-0.2V37.3z M135.5,46c0,0.4-0.1,0.8-0.3,1.1
				c-0.2,0.3-0.5,0.6-0.9,0.9c-0.4,0.2-0.8,0.4-1.3,0.5c-0.5,0.1-1.1,0.2-1.7,0.2c-0.6,0-1.2-0.1-1.7-0.2c-0.5-0.1-1-0.3-1.3-0.5
				c-0.4-0.2-0.6-0.5-0.8-0.8c-0.2-0.3-0.3-0.7-0.3-1.1c0-0.4,0.1-0.8,0.3-1.1c0.2-0.3,0.5-0.6,0.8-0.8c0.4-0.2,0.8-0.4,1.3-0.5
				c0.5-0.1,1.1-0.2,1.7-0.2c0.6,0,1.2,0.1,1.7,0.2c0.5,0.1,1,0.3,1.3,0.5c0.4,0.2,0.7,0.5,0.9,0.8C135.3,45.2,135.5,45.6,135.5,46z
				 M133.8,46.1c0-0.2-0.1-0.4-0.2-0.6c-0.1-0.2-0.3-0.3-0.6-0.4c-0.2-0.1-0.5-0.2-0.8-0.3c-0.3-0.1-0.6-0.1-1-0.1
				c-0.8,0-1.4,0.1-1.8,0.4c-0.5,0.2-0.7,0.6-0.7,1.1c0,0.4,0.2,0.8,0.7,1c0.5,0.2,1.1,0.3,1.8,0.3c0.3,0,0.7,0,1-0.1
				c0.3-0.1,0.6-0.1,0.8-0.3c0.2-0.1,0.4-0.3,0.6-0.4C133.7,46.5,133.8,46.3,133.8,46.1z M133.7,39.9v-1.5h-2.4v1.5H133.7z"/>
			<path class="st3" d="M150,43c0,0.1-0.1,0.1-0.1,0.1h-3.3v2.5c0,0.1-0.1,0.2-0.2,0.2h-1.2c-0.1,0-0.2-0.1-0.2-0.2v-2.5H143v2.5
				c0,0.1-0.1,0.2-0.2,0.2h-1.2c-0.1,0-0.2-0.1-0.2-0.2v-2.5h-3.9c-0.1,0-0.1,0-0.1-0.1c0-0.1-0.1-0.1-0.1-0.1v-0.9
				c0-0.1,0-0.1,0.1-0.2c0,0,0.1-0.1,0.1-0.1h12.4c0,0,0.1,0,0.1,0.1c0,0,0.1,0.1,0.1,0.1v0.9C150,42.9,150,42.9,150,43z
				 M148.4,48.3c0,0-0.1,0-0.1,0h-8.1c-0.4,0-0.7-0.1-0.9-0.2c-0.1-0.2-0.2-0.4-0.2-0.8v-3c0,0,0-0.1,0.1-0.1c0,0,0.1-0.1,0.1-0.1
				h1.2c0.1,0,0.1,0,0.2,0.1c0,0,0.1,0.1,0.1,0.1v2.4c0,0.1,0,0.2,0.1,0.2c0,0,0.1,0,0.2,0h7.3c0,0,0.1,0,0.1,0.1
				c0,0,0.1,0.1,0.1,0.1v1C148.5,48.3,148.5,48.3,148.4,48.3z M143.7,40.6c-0.7,0-1.3-0.1-1.8-0.2c-0.6-0.1-1-0.3-1.4-0.5
				c-0.4-0.2-0.7-0.5-0.9-0.8c-0.2-0.3-0.3-0.7-0.3-1.1c0-0.4,0.1-0.8,0.3-1.1c0.2-0.3,0.5-0.6,0.9-0.8c0.4-0.2,0.9-0.4,1.4-0.5
				c0.6-0.1,1.2-0.2,1.8-0.2c0.7,0,1.3,0.1,1.8,0.2c0.5,0.1,1,0.3,1.4,0.5c0.4,0.2,0.7,0.5,0.9,0.8c0.2,0.3,0.3,0.7,0.3,1.1
				c0,0.4-0.1,0.8-0.3,1.1c-0.2,0.3-0.5,0.6-0.9,0.8c-0.4,0.2-0.9,0.4-1.4,0.5C144.9,40.6,144.3,40.6,143.7,40.6z M143.7,36.7
				c-0.4,0-0.8,0-1.1,0.1c-0.3,0.1-0.6,0.2-0.9,0.3c-0.2,0.1-0.4,0.3-0.6,0.4c-0.1,0.2-0.2,0.3-0.2,0.5c0,0.2,0.1,0.4,0.2,0.5
				c0.1,0.2,0.3,0.3,0.6,0.4c0.3,0.1,0.5,0.2,0.9,0.3c0.3,0.1,0.7,0.1,1.1,0.1c0.4,0,0.8,0,1.1-0.1c0.3-0.1,0.6-0.2,0.9-0.3
				c0.3-0.1,0.4-0.3,0.6-0.4c0.1-0.2,0.2-0.3,0.2-0.5c0-0.2-0.1-0.4-0.2-0.5c-0.1-0.2-0.3-0.3-0.6-0.4c-0.3-0.1-0.5-0.2-0.9-0.3
				C144.5,36.8,144.1,36.7,143.7,36.7z"/>
			<path class="st3" d="M159.4,44.9c-0.1,0-0.1,0.1-0.2,0.1c-0.3,0.1-0.6,0.1-0.9,0.2c-0.4,0-0.7,0.1-1.1,0.1
				c-0.4,0-0.8,0.1-1.2,0.1c-0.4,0-0.8,0-1.2,0.1c-0.4,0-0.7,0-1,0c-0.3,0-0.6,0-0.8,0c-0.4,0-0.7-0.1-0.9-0.3
				c-0.2-0.1-0.2-0.4-0.2-0.8V41c0-0.3,0.1-0.6,0.2-0.7c0.2-0.2,0.4-0.2,0.7-0.2h3.4c0.1,0,0.1,0,0.2,0c0,0,0-0.1,0-0.2v-2
				c0-0.1,0-0.1,0-0.2c0,0-0.1,0-0.2,0h-4.1c0,0-0.1,0-0.1-0.1c0,0-0.1-0.1-0.1-0.1v-1c0,0,0-0.1,0.1-0.1c0,0,0.1,0,0.1,0h4.9
				c0.4,0,0.7,0.1,0.8,0.2c0.1,0.2,0.2,0.4,0.2,0.7v3.2c0,0.4-0.1,0.6-0.2,0.7c-0.1,0.1-0.4,0.2-0.8,0.2h-3.4
				c-0.1,0-0.2,0.1-0.2,0.2v2.2c0,0.1,0,0.2,0.1,0.2c0,0,0.1,0.1,0.2,0.1c0.4,0,0.9,0,1.3,0c0.5,0,0.9,0,1.4-0.1
				c0.5,0,0.9-0.1,1.4-0.1c0.4-0.1,0.9-0.1,1.2-0.2c0.1,0,0.1,0,0.2,0c0.1,0,0.1,0.1,0.1,0.2l0.1,0.9
				C159.5,44.8,159.5,44.8,159.4,44.9z M162,48.5c0,0.1-0.1,0.2-0.2,0.2h-1.3c-0.1,0-0.2-0.1-0.2-0.2V35.4c0-0.1,0.1-0.2,0.2-0.2
				h1.3c0.1,0,0.2,0.1,0.2,0.2V48.5z"/>
			<path class="st3" d="M165.2,43.1c-0.1,0-0.2-0.1-0.2-0.2l-0.4-0.7c0-0.1-0.1-0.2,0-0.2c0-0.1,0.1-0.1,0.2-0.2
				c0.5-0.2,1-0.5,1.5-0.8c0.5-0.3,0.9-0.7,1.3-1c0.4-0.4,0.7-0.7,1-1.1c0.3-0.4,0.5-0.8,0.7-1.2c0-0.1,0.1-0.2,0-0.2
				c0-0.1-0.1-0.1-0.2-0.1h-3.5c-0.1,0-0.1,0-0.1-0.1c0,0-0.1-0.1-0.1-0.2v-0.9c0-0.1,0-0.1,0.1-0.1c0,0,0.1-0.1,0.2-0.1h4.5
				c0.4,0,0.7,0.1,0.9,0.2c0.2,0.2,0.3,0.4,0.2,0.7c0,0.1,0,0.2-0.1,0.3c0,0.1-0.1,0.2-0.1,0.3c-0.1,0.3-0.3,0.7-0.4,1
				c-0.2,0.3-0.4,0.6-0.6,1c0.2,0.2,0.4,0.3,0.6,0.5c0.2,0.2,0.4,0.3,0.6,0.5c0.2,0.2,0.4,0.3,0.7,0.4c0.2,0.1,0.4,0.2,0.6,0.3
				c0.2,0.1,0.2,0.2,0.1,0.4l-0.4,0.8c-0.1,0.2-0.3,0.2-0.4,0.1c-0.2-0.1-0.4-0.2-0.6-0.3c-0.2-0.1-0.4-0.3-0.7-0.5
				c-0.2-0.2-0.5-0.4-0.7-0.5c-0.2-0.2-0.4-0.4-0.6-0.6c-0.5,0.5-1,0.9-1.6,1.4c-0.6,0.4-1.2,0.8-1.9,1.1
				C165.4,43.1,165.3,43.1,165.2,43.1z M175.2,47.1c-0.2,0.3-0.5,0.6-0.9,0.9c-0.4,0.2-0.8,0.4-1.4,0.5c-0.5,0.1-1.1,0.2-1.7,0.2
				c-0.7,0-1.2-0.1-1.8-0.2c-0.5-0.1-1-0.3-1.3-0.5c-0.4-0.2-0.6-0.5-0.8-0.8c-0.2-0.3-0.3-0.7-0.3-1.1c0-0.4,0.1-0.8,0.3-1.1
				c0.2-0.3,0.5-0.6,0.8-0.8c0.4-0.2,0.8-0.4,1.3-0.5c0.5-0.1,1.1-0.2,1.8-0.2c0.6,0,1.2,0.1,1.7,0.2c0.5,0.1,1,0.3,1.4,0.5
				c0.4,0.2,0.7,0.5,0.9,0.8c0.2,0.3,0.3,0.7,0.3,1.1C175.5,46.4,175.4,46.8,175.2,47.1z M173.6,45.4c-0.1-0.2-0.3-0.3-0.6-0.4
				c-0.2-0.1-0.5-0.2-0.8-0.3c-0.3-0.1-0.6-0.1-1-0.1c-0.8,0-1.4,0.1-1.8,0.4c-0.5,0.2-0.7,0.6-0.7,1.1c0,0.2,0.1,0.4,0.2,0.6
				c0.1,0.2,0.3,0.3,0.5,0.4c0.2,0.1,0.5,0.2,0.8,0.3c0.3,0.1,0.7,0.1,1,0.1c0.4,0,0.7,0,1-0.1c0.3-0.1,0.6-0.1,0.8-0.3
				c0.2-0.1,0.4-0.3,0.6-0.4c0.1-0.2,0.2-0.4,0.2-0.6C173.8,45.8,173.7,45.6,173.6,45.4z M171.3,39.6v-1c0,0,0-0.1,0.1-0.1
				c0,0,0.1,0,0.1,0h2.2v-3c0-0.1,0.1-0.2,0.2-0.2h1.3c0.1,0,0.2,0.1,0.2,0.2V43c0,0.1-0.1,0.2-0.2,0.2H174c-0.1,0-0.2-0.1-0.2-0.2
				v-3.2h-2.2c0,0-0.1,0-0.1-0.1C171.4,39.7,171.3,39.6,171.3,39.6z"/>
			<path class="st3" d="M178.6,43.4c0,0-0.1,0-0.2,0c-0.1,0-0.2,0-0.2-0.1l-0.5-0.7c0-0.1-0.1-0.1,0-0.2c0-0.1,0.1-0.1,0.2-0.2
				c0.4-0.2,0.8-0.4,1.2-0.7c0.4-0.3,0.8-0.5,1.1-0.8c0.3-0.3,0.6-0.6,0.9-0.8c0.3-0.3,0.4-0.5,0.6-0.8c0-0.1,0-0.1,0.1-0.2
				c0,0,0-0.1-0.2-0.1h-3c-0.1,0-0.1,0-0.1-0.1c0-0.1,0-0.1,0-0.2v-0.8c0-0.1,0.1-0.2,0.2-0.2h4c0.4,0,0.7,0,0.9,0.1
				c0.2,0.1,0.3,0.3,0.3,0.5c0,0.1,0,0.2-0.1,0.3c0,0.1-0.1,0.2-0.1,0.4c-0.1,0.2-0.2,0.5-0.4,0.7c-0.2,0.2-0.4,0.5-0.6,0.7
				c0.3,0.3,0.6,0.5,0.9,0.8c0.3,0.2,0.6,0.4,0.9,0.6c0.2,0.1,0.2,0.2,0.1,0.4l-0.5,0.7c0,0-0.1,0.1-0.2,0.1c-0.1,0-0.1,0-0.2,0
				c-0.3-0.2-0.6-0.4-1-0.7c-0.3-0.3-0.7-0.6-1-0.9c-0.4,0.4-0.9,0.8-1.4,1.1C179.7,42.8,179.1,43.1,178.6,43.4z M182.7,36.8
				c0,0-0.1,0.1-0.2,0.1h-3c0,0-0.1,0-0.1-0.1c-0.1,0-0.1-0.1-0.1-0.2v-0.8c0-0.1,0-0.1,0.1-0.2c0.1,0,0.1-0.1,0.1-0.1h3
				c0.1,0,0.1,0,0.2,0.1c0,0.1,0.1,0.1,0.1,0.2v0.7C182.7,36.7,182.7,36.8,182.7,36.8z M189.3,48.6c0,0-0.1,0.1-0.1,0.1h-1.2
				c-0.1,0-0.1,0-0.1-0.1c0,0-0.1-0.1-0.1-0.1v-2.9c0-0.1,0-0.2-0.1-0.2c0,0-0.1,0-0.2,0h-7.1c0,0-0.1,0-0.1-0.1
				c0,0-0.1-0.1-0.1-0.1v-1c0-0.1,0-0.1,0.1-0.1c0,0,0.1,0,0.1,0h8c0.4,0,0.6,0.1,0.7,0.2c0.1,0.1,0.2,0.4,0.2,0.8v3.5
				C189.4,48.5,189.3,48.6,189.3,48.6z M187.7,35.4c0-0.1,0.1-0.2,0.2-0.2h1.2c0.1,0,0.2,0.1,0.2,0.2v7.9c0,0.1-0.1,0.2-0.2,0.2
				h-1.2c-0.1,0-0.2-0.1-0.2-0.2v-3.1h-1.2v3c0,0.1-0.1,0.2-0.2,0.2h-1.2c-0.1,0-0.2-0.1-0.2-0.2v-7.6c0-0.1,0.1-0.2,0.2-0.2h1.2
				c0.1,0,0.2,0.1,0.2,0.2v3.2h1.2V35.4z"/>
			<path class="st3" d="M200.6,42.1c0,0-0.1,0.1-0.1,0.1c-0.3,0-0.6,0.1-0.9,0.1c-0.3,0-0.7,0.1-1,0.1c-0.3,0-0.7,0.1-1,0.1
				c-0.3,0-0.7,0-0.9,0v2c0,0.1,0,0.1-0.1,0.1c0,0-0.1,0.1-0.1,0.1h-1.2c-0.1,0-0.1,0-0.1-0.1c0,0-0.1-0.1-0.1-0.1v-1.9
				c-0.3,0-0.6,0-0.9,0c-0.3,0-0.6,0-0.9,0c-0.3,0-0.6,0-0.8,0c-0.3,0-0.5,0-0.7,0c-0.1,0-0.1,0-0.1-0.1c0,0-0.1-0.1-0.1-0.2v-0.9
				c0-0.1,0-0.1,0.1-0.1c0,0,0.1-0.1,0.1-0.1c0.7,0,1.4,0,2.1,0c0.8,0,1.5,0,2.3-0.1c0.8,0,1.5-0.1,2.2-0.1c0.7-0.1,1.3-0.1,1.8-0.2
				c0,0,0.1,0,0.1,0c0,0,0.1,0.1,0.1,0.1l0.1,0.8C200.6,42,200.6,42.1,200.6,42.1z M195.9,35.4c0.5,0,0.9,0.1,1.3,0.2
				c0.4,0.1,0.7,0.3,1,0.6c0.3,0.2,0.5,0.5,0.7,0.8c0.2,0.3,0.2,0.6,0.2,1c0,0.4-0.1,0.7-0.2,1c-0.2,0.3-0.4,0.6-0.7,0.8
				c-0.3,0.2-0.6,0.4-1,0.6c-0.4,0.1-0.8,0.2-1.3,0.2c-0.5,0-0.9-0.1-1.3-0.2c-0.4-0.1-0.7-0.3-1-0.6c-0.3-0.2-0.5-0.5-0.7-0.8
				c-0.2-0.3-0.2-0.7-0.2-1c0-0.4,0.1-0.7,0.2-1c0.2-0.3,0.4-0.6,0.7-0.8c0.3-0.2,0.6-0.4,1-0.6C194.9,35.5,195.4,35.4,195.9,35.4z
				 M203,48.4c0,0-0.1,0-0.1,0h-8.1c-0.4,0-0.7-0.1-0.9-0.2c-0.1-0.2-0.2-0.4-0.2-0.8v-2c0,0,0-0.1,0.1-0.1c0,0,0.1-0.1,0.1-0.1h1.2
				c0.1,0,0.1,0,0.1,0.1c0,0,0.1,0.1,0.1,0.1v1.5c0,0.1,0,0.2,0.1,0.2c0,0,0.1,0,0.2,0h7.2c0,0,0.1,0,0.1,0.1c0,0,0.1,0.1,0.1,0.1v1
				C203,48.4,203,48.4,203,48.4z M195.9,36.7c-0.2,0-0.4,0-0.6,0.1c-0.2,0.1-0.4,0.2-0.5,0.3c-0.2,0.1-0.3,0.3-0.4,0.4
				c-0.1,0.2-0.1,0.3-0.1,0.5c0,0.2,0,0.4,0.1,0.5c0.1,0.2,0.2,0.3,0.4,0.4c0.1,0.1,0.3,0.2,0.5,0.3c0.2,0.1,0.4,0.1,0.6,0.1
				c0.2,0,0.5,0,0.7-0.1c0.2-0.1,0.4-0.2,0.5-0.3c0.2-0.1,0.3-0.3,0.4-0.4c0.1-0.2,0.1-0.3,0.1-0.5c0-0.2,0-0.4-0.1-0.5
				c-0.1-0.2-0.2-0.3-0.4-0.4c-0.2-0.1-0.3-0.2-0.5-0.3C196.3,36.7,196.1,36.7,195.9,36.7z M202.5,45.8h-1.3c-0.1,0-0.2-0.1-0.2-0.2
				v-1.3h-2.4c0,0-0.1,0-0.1-0.1c0,0-0.1-0.1-0.1-0.1v-0.9c0,0,0-0.1,0.1-0.1c0,0,0.1-0.1,0.1-0.1h2.4v-7.7c0-0.1,0.1-0.2,0.2-0.2
				h1.3c0.1,0,0.2,0.1,0.2,0.2v10.2C202.7,45.8,202.7,45.8,202.5,45.8z"/>
		</g>
		<g>
			<path class="st3" d="M70.1,39.8C70,39.8,70,39.8,70.1,39.8c-0.1,0-0.2,0-0.2,0l-0.3-0.3c0,0,0-0.1,0-0.1c0,0,0-0.1,0.1-0.1
				c0.3-0.2,0.5-0.4,0.7-0.6c0.2-0.2,0.4-0.5,0.6-0.7c0.2-0.2,0.3-0.5,0.4-0.7c0.1-0.2,0.2-0.5,0.2-0.7c0-0.1,0-0.1,0-0.1
				c0,0,0,0-0.1,0H70c0,0,0,0,0,0c0,0,0,0,0-0.1v-0.4c0-0.1,0-0.1,0.1-0.1h1.7c0.2,0,0.3,0,0.4,0.1c0.1,0.1,0.1,0.1,0.1,0.3
				c0,0,0,0.1,0,0.1c0,0.1,0,0.1,0,0.1c0,0.2-0.1,0.5-0.2,0.7c-0.1,0.2-0.2,0.5-0.3,0.7c0.1,0.1,0.1,0.2,0.2,0.3
				c0.1,0.1,0.2,0.2,0.3,0.3c0.1,0.1,0.2,0.2,0.3,0.3c0.1,0.1,0.2,0.2,0.2,0.2c0,0,0.1,0.1,0.1,0.1c0,0,0,0.1,0,0.1l-0.2,0.3
				c-0.1,0.1-0.1,0.1-0.2,0c-0.1,0-0.1-0.1-0.2-0.2C72,39.2,72,39.1,71.9,39c-0.1-0.1-0.2-0.2-0.2-0.3c-0.1-0.1-0.2-0.2-0.2-0.3
				C71,38.9,70.6,39.4,70.1,39.8z M74.3,35.4C74.3,35.3,74.3,35.3,74.3,35.4l0.6-0.1c0.1,0,0.1,0,0.1,0.1v5.8c0,0.1,0,0.1-0.1,0.1
				h-0.5c-0.1,0-0.1,0-0.1-0.1v-3h-0.5V41c0,0,0,0,0,0.1c0,0,0,0-0.1,0h-0.5c0,0,0,0-0.1,0c0,0,0,0,0-0.1v-5.5c0,0,0,0,0-0.1
				c0,0,0,0,0.1,0h0.5c0,0,0,0,0.1,0c0,0,0,0,0,0.1v2.1h0.5V35.4z"/>
			<path class="st3" d="M79.3,38.3C79.3,38.4,79.3,38.4,79.3,38.3c-0.2,0.1-0.4,0.1-0.6,0.2c-0.2,0-0.5,0.1-0.7,0.1
				c-0.3,0-0.5,0-0.8,0c-0.3,0-0.5,0-0.7,0c-0.1,0-0.2,0-0.3-0.1c-0.1-0.1-0.1-0.2-0.1-0.3v-2.1c0-0.1,0-0.2,0.1-0.3
				c0.1-0.1,0.2-0.1,0.3-0.1h2.2c0.1,0,0.1,0,0.1,0.1v0.4c0,0.1,0,0.1-0.1,0.1h-1.8c-0.1,0-0.1,0-0.1,0.1v1.5c0,0.1,0,0.1,0,0.1
				c0,0,0.1,0,0.2,0c0.1,0,0.3,0,0.5,0c0.2,0,0.4,0,0.6,0c0.2,0,0.4,0,0.6-0.1c0.2,0,0.4-0.1,0.6-0.1c0.1,0,0.1,0,0.1,0.1L79.3,38.3
				C79.3,38.3,79.3,38.3,79.3,38.3z M80.6,41.2C80.6,41.2,80.5,41.2,80.6,41.2l-3.4,0c-0.2,0-0.3,0-0.4-0.1
				c-0.1-0.1-0.1-0.2-0.1-0.3v-1.3c0,0,0,0,0-0.1c0,0,0,0,0.1,0h0.5c0,0,0,0,0.1,0c0,0,0,0,0,0.1v1.1c0,0,0,0.1,0,0.1c0,0,0,0,0.1,0
				h3c0,0,0,0,0.1,0c0,0,0,0,0,0.1L80.6,41.2C80.6,41.1,80.6,41.1,80.6,41.2z M81.3,37.8C81.3,37.8,81.2,37.8,81.3,37.8l-0.9,0v1.6
				c0,0.1,0,0.1-0.1,0.1h-0.6c-0.1,0-0.1,0-0.1-0.1v-4.1c0-0.1,0-0.1,0.1-0.1h0.6c0.1,0,0.1,0,0.1,0.1v1.9h0.9c0,0,0,0,0.1,0
				c0,0,0,0,0,0.1L81.3,37.8C81.3,37.8,81.3,37.8,81.3,37.8z"/>
			<path class="st3" d="M72.8,45.7c-0.1,0.1-0.2,0.1-0.4,0.1h-1.8c-0.2,0-0.3,0-0.4-0.1c-0.1-0.1-0.1-0.2-0.1-0.3v-2.3
				c0-0.1,0-0.1,0.1-0.1h0.5c0,0,0,0,0.1,0c0,0,0,0,0,0.1v0.8h1.3v-0.8c0,0,0,0,0-0.1c0,0,0,0,0.1,0h0.5c0,0,0,0,0.1,0
				c0,0,0,0,0,0.1v1.1H74v-1.2c0,0,0,0,0-0.1c0,0,0,0,0.1,0h0.6c0,0,0.1,0,0.1,0.1v3c0,0.1,0,0.1-0.1,0.1h-0.6C74,46,74,46,74,46
				v-1.2h-1.1v0.7C72.9,45.6,72.9,45.7,72.8,45.7z M72.2,44.5h-1.3v0.6c0,0.1,0,0.1,0.1,0.1h1.1c0.1,0,0.1,0,0.1-0.1V44.5z
				 M74.6,48.6c-0.1,0.1-0.2,0.1-0.4,0.1h-2.8c-0.2,0-0.3,0-0.4-0.1C71,48.6,71,48.5,71,48.3v-1.9c0,0,0,0,0-0.1c0,0,0,0,0.1,0h0.5
				c0,0,0,0,0.1,0c0,0,0,0,0,0.1V47H74v-0.6c0,0,0,0,0-0.1c0,0,0,0,0.1,0h0.6c0,0,0,0,0.1,0c0,0,0,0,0,0.1v1.9
				C74.7,48.5,74.7,48.6,74.6,48.6z M74,47.6h-2.3v0.4c0,0.1,0,0.1,0.1,0.1h2.1c0.1,0,0.1,0,0.1-0.1V47.6z"/>
			<path class="st3" d="M79,44.6c0,0.2,0,0.4-0.1,0.6c-0.1,0.2-0.2,0.3-0.3,0.5C78.4,45.9,78.2,46,78,46c-0.2,0.1-0.4,0.1-0.6,0.1
				c-0.2,0-0.4,0-0.6-0.1c-0.2-0.1-0.3-0.2-0.5-0.3c-0.1-0.1-0.2-0.3-0.3-0.5c-0.1-0.2-0.1-0.4-0.1-0.6c0-0.2,0-0.4,0.1-0.6
				c0.1-0.2,0.2-0.3,0.3-0.5c0.1-0.1,0.3-0.3,0.5-0.3c0.2-0.1,0.4-0.1,0.6-0.1c0.2,0,0.4,0,0.6,0.1c0.2,0.1,0.4,0.2,0.5,0.3
				c0.1,0.1,0.2,0.3,0.3,0.5C78.9,44.2,79,44.4,79,44.6z M78.2,44.7c0-0.1,0-0.2-0.1-0.3c0-0.1-0.1-0.2-0.2-0.3
				c-0.1-0.1-0.2-0.1-0.3-0.2c-0.1,0-0.2-0.1-0.3-0.1c-0.1,0-0.2,0-0.3,0.1c-0.1,0-0.2,0.1-0.3,0.2c-0.1,0.1-0.1,0.2-0.2,0.3
				c0,0.1-0.1,0.2-0.1,0.3c0,0.1,0,0.2,0.1,0.4c0,0.1,0.1,0.2,0.2,0.3c0.1,0.1,0.2,0.1,0.3,0.2c0.1,0,0.2,0.1,0.3,0.1
				c0.1,0,0.2,0,0.3-0.1c0.1,0,0.2-0.1,0.3-0.2c0.1-0.1,0.1-0.2,0.2-0.3C78.2,44.9,78.2,44.8,78.2,44.7z M80.7,48.7
				C80.7,48.7,80.7,48.7,80.7,48.7l-3.3,0c-0.2,0-0.3,0-0.4-0.1c-0.1-0.1-0.1-0.2-0.1-0.3v-1.4c0,0,0,0,0-0.1c0,0,0,0,0.1,0h0.5
				c0,0,0.1,0,0.1,0c0,0,0,0,0,0.1V48c0,0,0,0.1,0,0.1c0,0,0,0,0.1,0h2.9c0,0,0,0,0.1,0c0,0,0,0,0,0.1L80.7,48.7
				C80.8,48.7,80.8,48.7,80.7,48.7z M80.6,47C80.6,47.1,80.6,47.1,80.6,47l-0.6,0.1c-0.1,0-0.1,0-0.1-0.1v-4.1c0-0.1,0-0.1,0.1-0.1
				h0.6c0.1,0,0.1,0,0.1,0.1V47z"/>
		</g>
		<g>
			<path class="st4" d="M70,4.4c0-1,0.8-1.9,1.9-1.9h5.6v11.4l7.8-11.4h9.9l-8.8,11.3l9.2,18.7h-9.2l-5.1-12.4l-3.8,5v7.3H70V4.4z"
				/>
			<g>
				<path class="st4" d="M104.5,11.5c-5.9,0-10.7,4.8-10.7,10.7c0,5.9,4.8,10.7,10.7,10.7c5.9,0,10.7-4.8,10.7-10.7
					C115.2,16.3,110.4,11.5,104.5,11.5z M104.5,26.6c-2.5,0-4.5-2-4.5-4.5c0-2.5,2-4.5,4.5-4.5c2.5,0,4.5,2,4.5,4.5
					C109,24.6,107,26.6,104.5,26.6z"/>
			</g>
			<path class="st4" d="M133,2.6v16.6l-9.1-16.6h-5.2c-1,0-1.7,0.8-1.7,1.7v28.3h7V16.1l9,16.5h7V2.6H133z"/>
			<path class="st4" d="M147,2.6c-1,0-1.7,0.8-1.7,1.7v28.3h7.5V2.6H147z"/>
			<path class="st4" d="M179.2,19.3c-0.8-1.3-2.1-2.2-3.8-2.7c1.1-0.5,2-1.2,2.6-2c0.9-1.3,1.3-2.8,1.3-4.6c0-2.1-0.6-3.9-1.9-5.3
				c-1.2-1.4-3-2.2-5.4-2.2h-12.2c-1,0-1.7,0.8-1.7,1.7v28.3H171c0.6,0,1.7-0.1,3.3-0.4c1.3-0.2,2.2-0.5,2.8-1c1-0.7,1.8-1.7,2.4-3
				c0.6-1.2,0.9-2.6,0.9-4.2C180.4,22.1,180,20.6,179.2,19.3z M165.7,8.6h3.3c1.1,0,1.9,0.2,2.4,0.7c0.5,0.5,0.7,1.2,0.7,2
				c0,0.9-0.2,1.7-0.7,2.2c-0.5,0.5-1.3,0.7-2.4,0.7h-3.2V8.6z M172.2,25.3c-0.5,0.6-1.4,0.8-2.7,0.8h-3.8v-6.1h3.8
				c1.3,0,2.2,0.3,2.7,0.8c0.5,0.5,0.8,1.3,0.8,2.1C173,24,172.7,24.7,172.2,25.3z"/>
			<path class="st4" d="M202.8,5c-1.3-1.6-3.4-2.4-6.1-2.4h-10.7c-1,0-1.7,0.8-1.7,1.7v28.3h7.5V21.5h4.1c3,0,5.2-0.9,6.7-2.6
				c1.5-1.7,2.2-4.1,2.2-7.1C204.8,8.8,204.1,6.6,202.8,5z M196.7,14.4c-0.6,0.6-1.6,0.9-3,0.9h-1.8V8.7h2.1c1.4,0,2.3,0.3,2.8,1
				c0.5,0.7,0.8,1.5,0.8,2.4C197.5,13,197.2,13.8,196.7,14.4z"/>
		</g>
	</g>
</g>
</svg>
